<svg id="Layer_1" data-name="Layer 1" xmlns="http://www.w3.org/2000/svg" viewBox="0 0 155.92 81.65"><title>hero-overlay</title><path d="M543.39,459.05c-1.69.35-2.51-.6-2-2.06a5.73,5.73,0,0,1,4.11-3.17c1.77-.31,2.8.56,2.17,2a6.76,6.76,0,0,1-4.33,3.24h0Zm-6-2.21c-2.73.5-4.39-1-3.93-3.28s3-4.41,5.83-4.81,4.92,1,4.33,3.16-3.49,4.42-6.22,4.92h0ZM507.6,421.15c3.69,0.07,7.23,2.64,7.7,5.74s-2.35,5.73-6.16,5.88-7.12-2.41-7.49-5.72,2.25-6,5.94-5.9h0Zm-10.55-7.49a6.32,6.32,0,0,1,5.77,4.87c0.41,2.54-1.63,4.57-4.49,4.54a5.75,5.75,0,0,1-5.69-4.85,4,4,0,0,1,4.41-4.57h0Z" transform="translate(-391.99 -408.38)" style="fill:#cac8c8;fill-rule:evenodd"/><path d="M442.66,465.22c4.39-.71,7.73-4.41,7.45-8.26s-4.11-6.58-8.52-6.11-7.75,4.17-7.44,8.25,4.12,6.82,8.51,6.11h0Z" transform="translate(-391.99 -408.38)" style="fill:#cac8c8;fill-rule:evenodd"/><path d="M453.45,451.65c5.14-.59,9.06-4.53,8.75-8.78s-4.76-7.49-9.93-7.22-9.09,4.2-8.75,8.78,4.79,7.81,9.92,7.22h0Z" transform="translate(-391.99 -408.38)" style="fill:#cac8c8;fill-rule:evenodd"/><path d="M396.89,489.93a5.35,5.35,0,0,0,4.21-5.37,4,4,0,0,0-4.89-3.53,5.22,5.22,0,0,0-4.21,5.36,3.9,3.9,0,0,0,4.89,3.54h0Z" transform="translate(-391.99 -408.38)" style="fill:#cac8c8;fill-rule:evenodd"/><path d="M407.26,481.76c3.92-.77,6.87-4.32,6.6-7.94s-3.68-6.07-7.62-5.48a7.73,7.73,0,0,0-6.62,7.94c0.29,3.79,3.71,6.25,7.64,5.48h0Z" transform="translate(-391.99 -408.38)" style="fill:#cac8c8;fill-rule:evenodd"/><path d="M432.25,453.4c6-.69,10.55-5.27,10.2-10.22s-5.54-8.72-11.57-8.41-10.59,4.9-10.19,10.23,5.58,9.1,11.56,8.41h0Z" transform="translate(-391.99 -408.38)" style="fill:#752f8a;fill-rule:evenodd"/><path d="M469.08,408.39c-2.57-.12-4.55,1.36-4.42,3.29s2.33,3.53,4.89,3.58,4.55-1.42,4.42-3.28-2.32-3.47-4.89-3.59h0Z" transform="translate(-391.99 -408.38)" style="fill:#752f8a;fill-rule:evenodd"/><path d="M529.17,451.39c3-.44,5.5-2.86,5.55-5.37s-2.49-4.29-5.53-4-5.42,2.65-5.38,5.33,2.41,4.49,5.36,4.05h0Z" transform="translate(-391.99 -408.38)" style="fill:#752f8a;fill-rule:evenodd"/><path d="M463.33,423.51c-4.46,0-7.86,3.07-7.59,6.8s4.09,6.55,8.53,6.3,7.84-3.31,7.59-6.81-4.07-6.32-8.53-6.29h0Z" transform="translate(-391.99 -408.38)" style="fill:#752f8a;fill-rule:evenodd"/><path d="M474.32,416c-3.44-.09-6.07,2-5.88,4.77s3.13,4.89,6.56,4.84,6.06-2.17,5.89-4.76-3.12-4.75-6.57-4.85h0Z" transform="translate(-391.99 -408.38)" style="fill:#752f8a;fill-rule:evenodd"/><path d="M483.54,412.24c-2.21-.1-3.91,1.17-3.8,2.83s2,3,4.2,3.07,3.9-1.22,3.8-2.82-2-3-4.2-3.08h0Z" transform="translate(-391.99 -408.38)" style="fill:#752f8a;fill-rule:evenodd"/><path d="M490.77,410.92c-1.31-.07-2.32.65-2.25,1.59s1.17,1.73,2.48,1.78,2.32-.66,2.26-1.58-1.17-1.72-2.48-1.79h0Z" transform="translate(-391.99 -408.38)" style="fill:#752f8a;fill-rule:evenodd"/><path d="M420.39,481.33a4.59,4.59,0,0,0,3.62-4.61,3.4,3.4,0,0,0-4.19-3,4.48,4.48,0,0,0-3.62,4.6,3.35,3.35,0,0,0,4.2,3h0Z" transform="translate(-391.99 -408.38)" style="fill:#752f8a;fill-rule:evenodd"/><path d="M432,476c3.37-.66,5.9-3.71,5.67-6.82s-3.16-5.21-6.54-4.7a6.63,6.63,0,0,0-5.68,6.82A5.27,5.27,0,0,0,432,476h0Z" transform="translate(-391.99 -408.38)" style="fill:#752f8a;fill-rule:evenodd"/><path d="M520,443.89c4.42-.44,8-3.58,7.8-7s-4.26-6-8.68-5.87-7.67,3.25-7.42,6.94,3.89,6.34,8.3,5.9h0Z" transform="translate(-391.99 -408.38)" style="fill:#752f8a;fill-rule:evenodd"/><path d="M456.55,411.87c-4-.11-7.07,2.37-6.84,5.55s3.64,5.69,7.64,5.64,7.06-2.54,6.86-5.54-3.64-5.53-7.65-5.64h0Z" transform="translate(-391.99 -408.38)" style="fill:#752f8a;fill-rule:evenodd"/><path d="M443.75,420.62c-5.2,0-9.16,3.58-8.84,7.92s4.77,7.63,9.94,7.34S454,432,453.69,428s-4.74-7.36-9.94-7.33h0Z" transform="translate(-391.99 -408.38)" style="fill:#752f8a;fill-rule:evenodd"/><path d="M419.68,469.2c5.12-.83,9-5.13,8.68-9.62s-4.78-7.66-9.92-7.11-9,4.86-8.67,9.61,4.8,7.94,9.91,7.12h0Z" transform="translate(-391.99 -408.38)" style="fill:#752f8a;fill-rule:evenodd"/></svg>