<svg id="Layer_1" data-name="Layer 1" xmlns="http://www.w3.org/2000/svg" xmlns:xlink="http://www.w3.org/1999/xlink" viewBox="0 0 150.24 150.24"><defs><clipPath id="clip-path" transform="translate(9.58 557.21)"><rect x="-9.58" y="-557.21" width="150.24" height="150.24" style="fill:none"/></clipPath></defs><title>phone</title><g id="Vector_Smart_Object" data-name="Vector Smart Object"><g style="clip-path:url(#clip-path)"><g style="clip-path:url(#clip-path)"><path d="M65.54-557.21A75.12,75.12,0,0,0-9.58-482.09,75.13,75.13,0,0,0,65.54-407a75.13,75.13,0,0,0,75.12-75.12,75.12,75.12,0,0,0-75.12-75.12m0,138.42a63.3,63.3,0,0,1-63.3-63.3,63.3,63.3,0,0,1,63.3-63.31,63.3,63.3,0,0,1,63.3,63.31,63.3,63.3,0,0,1-63.3,63.3" transform="translate(9.58 557.21)" style="fill:#fff"/><path d="M39.7-493.59H9a9.6,9.6,0,0,1-9.57-9.57V-534A9.6,9.6,0,0,1,9-543.52H39.7A9.6,9.6,0,0,1,49.27-534v30.79a9.6,9.6,0,0,1-9.57,9.57" transform="translate(9.58 557.21)" style="fill:#752f8a"/><rect x="9.01" y="13.68" width="49.85" height="49.94" rx="9.57" ry="9.57" style="fill:none;stroke:#752f8a;stroke-miterlimit:10"/><path d="M43.47-422.05L13-425.44A9.6,9.6,0,0,1,4.49-436l3.4-30.61a9.6,9.6,0,0,1,10.57-8.46L49-471.68a9.6,9.6,0,0,1,8.46,10.57L54-430.51a9.6,9.6,0,0,1-10.57,8.46" transform="translate(9.58 557.21)" style="fill:#752f8a"/><path d="M43.47-422.05L13-425.44A9.6,9.6,0,0,1,4.49-436l3.4-30.61a9.6,9.6,0,0,1,10.57-8.46L49-471.68a9.6,9.6,0,0,1,8.46,10.57L54-430.51A9.6,9.6,0,0,1,43.47-422.05Z" transform="translate(9.58 557.21)" style="fill:none;stroke:#752f8a;stroke-miterlimit:10"/><path d="M40.17-449.52a8.31,8.31,0,0,1-8.31,8.31,8.31,8.31,0,0,1-8.31-8.31,8.31,8.31,0,0,1,8.31-8.31,8.31,8.31,0,0,1,8.31,8.31" transform="translate(9.58 557.21)" style="fill:#fff"/><circle cx="41.44" cy="107.69" r="8.31" style="fill:none;stroke:#752f8a;stroke-miterlimit:10"/><path d="M31.86-518.55a8.31,8.31,0,0,1-8.31,8.31,8.31,8.31,0,0,1-8.31-8.31,8.31,8.31,0,0,1,8.31-8.31,8.31,8.31,0,0,1,8.31,8.31" transform="translate(9.58 557.21)" style="fill:#fff"/><circle cx="33.13" cy="38.65" r="8.31" style="fill:none;stroke:#752f8a;stroke-miterlimit:10"/><rect x="33.13" y="35.91" width="25.72" height="5.24" style="fill:#fff"/><rect x="20.6" y="-462.84" width="25.72" height="5.23" transform="translate(498.69 169.81) rotate(-85.08)" style="fill:#fff"/><path d="M46-518.19l14.12-3.08a20.4,20.4,0,0,0,7.14-2.52c1.29-.86,2.36-2,3.56-3,4.1-3.34,9.47-4.61,14.67-5.6,6.32-1.19,13-2.06,19,.16a5.58,5.58,0,0,1,3.29,2.47,6.44,6.44,0,0,1,.42,2.83c0,3.07-.85,5.36-0.85,8.44,2.27-2.73.47-7.21-2.62-9s-6.87-1.54-10.4-1.28a12,12,0,0,0-5.51,1.3c-1.83,1.13-2.9,3.12-4,5-11.29,18.77-33,28.31-48.61,43.67-1.15,1.13-2.35,2.65-1.84,4.18" transform="translate(9.58 557.21)" style="fill:none;stroke:#fff;stroke-miterlimit:10"/><path d="M121.12-426.29h-29a9.6,9.6,0,0,1-9.57-9.57v-74.88a9.6,9.6,0,0,1,9.57-9.57h29a9.6,9.6,0,0,1,9.57,9.57v74.88a9.6,9.6,0,0,1-9.57,9.57" transform="translate(9.58 557.21)" style="fill:#752f8a"/><rect x="92.09" y="36.9" width="48.19" height="94.02" rx="9.57" ry="9.57" style="fill:none;stroke:#752f8a;stroke-miterlimit:10"/><path d="M103.21-445.37a7.48,7.48,0,0,1-7.48,7.48,7.48,7.48,0,0,1-7.48-7.48,7.48,7.48,0,0,1,7.48-7.48,7.48,7.48,0,0,1,7.48,7.48" transform="translate(9.58 557.21)" style="fill:#fff"/><path d="M124.08-445.37a7.48,7.48,0,0,1-7.48,7.48,7.48,7.48,0,0,1-7.48-7.48,7.48,7.48,0,0,1,7.48-7.48,7.48,7.48,0,0,1,7.48,7.48" transform="translate(9.58 557.21)" style="fill:#fff"/><path d="M115.31-458.63H98.63a9.6,9.6,0,0,1-9.57-9.57v-33.26A9.6,9.6,0,0,1,98.63-511h16.68a9.6,9.6,0,0,1,9.57,9.57v33.26a9.6,9.6,0,0,1-9.57,9.57" transform="translate(9.58 557.21)" style="fill:#fff"/></g></g></g></svg>