<svg id="Layer_1" data-name="Layer 1" xmlns="http://www.w3.org/2000/svg" xmlns:xlink="http://www.w3.org/1999/xlink" viewBox="0 0 150.24 150.24"><defs><clipPath id="clip-path" transform="translate(-231.99 335.86)"><rect x="231.99" y="-335.86" width="150.24" height="150.24" style="fill:none"/></clipPath></defs><title>plus-sign</title><g id="Vector_Smart_Object" data-name="Vector Smart Object"><g style="clip-path:url(#clip-path)"><g style="clip-path:url(#clip-path)"><path d="M307.11-335.86A75.12,75.12,0,0,0,232-260.74a75.13,75.13,0,0,0,75.12,75.12,75.13,75.13,0,0,0,75.12-75.12,75.12,75.12,0,0,0-75.12-75.12m0,138.42a63.3,63.3,0,0,1-63.3-63.3A63.3,63.3,0,0,1,307.11-324a63.3,63.3,0,0,1,63.3,63.31,63.3,63.3,0,0,1-63.3,63.3" transform="translate(-231.99 335.86)" style="fill:#fff"/><path d="M276.59-280.15c0,1.93,0,3.73,0,5.52,0.28,10.59.6,21.19,0.83,31.78a3.54,3.54,0,0,0,1.95,3.5c2.37,1.34,4.51,3.07,6.8,4.55,4.44,2.87,8.91,5.67,13.37,8.5,0.19,0.12.37,0.26,0.73,0.52-0.47,0-.74.05-1,0a49.06,49.06,0,0,0-22.5,5.4,12.85,12.85,0,0,0-7.45,9.74c-0.1.58-.1,1.17-0.17,1.92l-4.75-3.42q-10.12-7.32-20.26-14.62a2.52,2.52,0,0,1-1.1-2c-0.25-2.62-.54-5.24-0.76-7.86-0.31-3.65-.61-7.3-0.82-11-0.32-5.55-.55-11.1-0.82-16.65-0.17-3.59-.36-7.19-0.53-10.78,0-.83,0-1.66,0-2.6A53.13,53.13,0,0,0,258.4-276c6.14-.4,12.29-0.94,18.19-4.14" transform="translate(-231.99 335.86)" style="fill:#752f8a"/><path d="M279.75-206.89a35.59,35.59,0,0,1-5-1.09c-2.54-.92-3.18-2.93-1.67-5.18a14.37,14.37,0,0,1,3.33-3.53,35.48,35.48,0,0,1,17.64-6.61,17.15,17.15,0,0,1,6.63.43,6.72,6.72,0,0,1,1.73.75,2.76,2.76,0,0,1,1.18,3.8,13.19,13.19,0,0,1-2.82,3.68c-4.07,3.53-9,5.45-14.13,6.67-2.19.51-4.45,0.71-6.9,1.09" transform="translate(-231.99 335.86)" style="fill:#752f8a"/><path d="M246-286.61c6.29,2.49,12.54,2.43,18.85,1.3a10.64,10.64,0,0,0,6.15-3.11c-0.06.66-.11,1.15-0.14,1.65-0.09,1.56-.23,3.13-0.24,4.69a1.79,1.79,0,0,1-1.15,1.77,18.34,18.34,0,0,1-7.14,1.7,44.19,44.19,0,0,1-15.22-1.56,1.27,1.27,0,0,1-1.11-1.46c0.06-1.62,0-3.25,0-5" transform="translate(-231.99 335.86)" style="fill:#752f8a"/><path d="M258.21-296.09a29.42,29.42,0,0,1,8.57,1.4,9.25,9.25,0,0,1,2.62,1.4c1.29,1,1.19,2.34-.31,3A18.4,18.4,0,0,1,264.6-289a39,39,0,0,1-12.73.25,17.62,17.62,0,0,1-4-1.14c-1.82-.8-1.9-2.18-0.34-3.46a10.9,10.9,0,0,1,5.32-2.1c1.77-.29,3.56-0.41,5.35-0.6" transform="translate(-231.99 335.86)" style="fill:#752f8a"/><path d="M346.69-252.52l5.22-8.37c5.08-8.17,5.06-16.62.47-24.78-4.81-8.54-12.85-12.49-22.42-12.54-17.44-.08-27.85,13.66-23.9,30.72,0.32,1.39-1,3.16-1.56,4.75-1.3-1.12-3.31-2-3.79-3.39-6-17.12,7.28-36.19,25.38-37.6,17.78-1.38,30.44,9.64,33.82,20.85,3.33,11.05.74,20.8-6.2,29.48-1.19,1.49-4.26,1.47-6.46,2.15l-0.56-1.28" transform="translate(-231.99 335.86)" style="fill:#fff"/><path d="M366.32-231.53a16,16,0,0,1-15.88,16.18,16.17,16.17,0,0,1-16.35-16.21,16.32,16.32,0,0,1,16.17-16,16.1,16.1,0,0,1,16.05,16.07m-13.79,2.33c2.28,0,4,.25,5.51-0.09,1-.22,1.75-1.32,2.61-2-0.91-.8-1.72-2-2.77-2.28-1.52-.39-3.21-0.1-5.37-0.1,0-2.22.26-4-.1-5.7-0.2-.92-1.46-1.62-2.23-2.42-0.74.83-1.93,1.57-2.12,2.52a29.5,29.5,0,0,0-.1,5.64c-2.33,0-4.15-.26-5.82.11-0.9.2-1.56,1.49-2.32,2.29,0.75,0.68,1.41,1.77,2.26,2a40.49,40.49,0,0,0,5.88.44c0,2-.27,3.74.1,5.3,0.22,0.94,1.42,1.65,2.18,2.47,0.76-.81,2-1.52,2.18-2.46,0.37-1.55.1-3.24,0.1-5.64" transform="translate(-231.99 335.86)" style="fill:#752f8a"/><path d="M321.76-241a42.93,42.93,0,0,0,1.91-4,23.15,23.15,0,0,1,7-10.44c1.78-1.48,2.51-5.05,2.4-7.62-0.06-1.47-2.58-3.47-4.36-4-1.43-.43-3.4,1.07-5.17,1.56a20.76,20.76,0,0,1-3.23.39c0.1-1.22-.25-2.77.36-3.6,3.17-4.28,10.93-4.06,14.67.25,4,4.57,3.74,12-1.2,16a21.62,21.62,0,0,0-6.83,10,16.87,16.87,0,0,1-1.42,3c-2.58,4.26-7.43,4.46-9.36-.13-1.41-3.36-1.24-7.44-1.43-11.21,0-.73,1.51-1.54,2.33-2.32,0.63,1,1.67,2,1.81,3.12,0.38,3,.39,6,0.54,9h2" transform="translate(-231.99 335.86)" style="fill:#fff"/><path d="M349.28-272.53a95.75,95.75,0,0,1-3.11,9.74c-0.49,1.14-2.3,1.72-3.51,2.56a17.38,17.38,0,0,1-.36-4.23c0.5-3.22,2-6.43,1.86-9.58-0.4-7.11-6.59-11.93-14.71-12.23-6.3-.24-11.33,4.31-12.86,11.65a7.06,7.06,0,0,1-.31,2,34.71,34.71,0,0,1-2.38,3.22c-0.66-1.31-2-2.67-1.87-3.91,1.14-14.81,15.34-22,28.05-14.35a18.31,18.31,0,0,1,9.2,15.12" transform="translate(-231.99 335.86)" style="fill:#fff"/><path d="M332-222.06l2.91,4.51c-6.29,2.88-12.26,3.35-18-.1-5-3-6.65-8-6.2-13.53,0.11-1.35,1.84-2.56,2.82-3.83,0.93,1.14,2.55,2.2,2.69,3.44,1.12,9.43,4.76,12,14.13,9.81,0.4-.09.8-0.14,1.65-0.28" transform="translate(-231.99 335.86)" style="fill:#fff"/><path d="M352.52-229.2c0,2.39.27,4.09-.1,5.64-0.22.94-1.42,1.65-2.18,2.46-0.76-.82-2-1.53-2.18-2.47-0.36-1.56-.1-3.26-0.1-5.3a40.49,40.49,0,0,1-5.88-.44c-0.86-.18-1.52-1.27-2.26-2,0.77-.8,1.42-2.1,2.32-2.29,1.68-.37,3.5-0.11,5.82-0.11a29.5,29.5,0,0,1,.1-5.64c0.2-.95,1.38-1.69,2.13-2.52,0.78,0.8,2,1.49,2.23,2.42,0.36,1.68.1,3.49,0.1,5.7,2.16,0,3.85-.29,5.37.1,1,0.27,1.85,1.49,2.77,2.28-0.86.7-1.64,1.81-2.61,2-1.55.34-3.24,0.09-5.51,0.09" transform="translate(-231.99 335.86)" style="fill:#fff"/></g></g></g></svg>