<svg id="Layer_1" data-name="Layer 1" xmlns="http://www.w3.org/2000/svg" xmlns:xlink="http://www.w3.org/1999/xlink" viewBox="0 0 158.79 150.24"><defs><clipPath id="clip-path" transform="translate(-205.25 533.61)"><rect x="205.25" y="-533.61" width="158.79" height="150.24" style="fill:none"/></clipPath></defs><title>scooter</title><g id="Vector_Smart_Object" data-name="Vector Smart Object"><g style="clip-path:url(#clip-path)"><g style="clip-path:url(#clip-path)"><path d="M282.09-533.61A75.12,75.12,0,0,0,207-458.49a75.13,75.13,0,0,0,75.12,75.12,75.13,75.13,0,0,0,75.12-75.12,75.12,75.12,0,0,0-75.12-75.12m0,138.42a63.3,63.3,0,0,1-63.3-63.3,63.3,63.3,0,0,1,63.3-63.31,63.3,63.3,0,0,1,63.3,63.31,63.3,63.3,0,0,1-63.3,63.3" transform="translate(-205.25 533.61)" style="fill:#fff"/><rect x="133.77" y="98.17" width="2.02" height="5.54" style="fill:#752f8a"/><rect x="350.35" y="-441.29" width="3.89" height="1.22" transform="translate(450.03 568.86) rotate(-71.12)" style="fill:#752f8a"/><rect x="359.03" y="-470.81" width="3.89" height="1.22" transform="translate(483.45 557.36) rotate(-71.08)" style="fill:#752f8a"/><path d="M298.69-412.12a0.51,0.51,0,0,0,.43-0.57L299-413.87a0.5,0.5,0,0,0-.56-0.44h-0.06a7.21,7.21,0,0,0-.45-1.17l0.07,0a0.51,0.51,0,0,0,.12-0.71l-0.68-1a0.5,0.5,0,0,0-.7-0.12l-0.06,0a7.11,7.11,0,0,0-.93-0.82l0-.08a0.51,0.51,0,0,0-.21-0.69l-1-.55a0.5,0.5,0,0,0-.68.22l0,0.08a7.34,7.34,0,0,0-1.39-.44c0-.28,0-0.74-0.3-0.74h-1.18c-0.28,0-.26.5-0.26,0.78v0a8.54,8.54,0,0,0-1.69.4l0,0a0.51,0.51,0,0,0-.69-0.19l-1,.59a0.7,0.7,0,0,0-.13.69h0a3.25,3.25,0,0,0-1,.87,0.54,0.54,0,0,0-.72.16l-0.65,1a0.51,0.51,0,0,0,.11.67,7.1,7.1,0,0,0-.44,1.26,0.5,0.5,0,0,0-.5.46l-0.11,1.19a0.5,0.5,0,0,0,.4.54,7.06,7.06,0,0,0,.2,1.32,0.51,0.51,0,0,0-.24.64l0.45,1.1a0.5,0.5,0,0,0,.65.28,7.31,7.31,0,0,0,.77,1l0,0a0.51,0.51,0,0,0,.06.72L287-406a0.5,0.5,0,0,0,.71-0.06l0-.05a7.14,7.14,0,0,0,1.11.54l0,0.1a0.51,0.51,0,0,0,.38.61l1.15,0.26a0.5,0.5,0,0,0,.6-0.39l0-.13,0.43,0a7.42,7.42,0,0,0,.78,0l0,0.14a0.5,0.5,0,0,0,.62.36L294-405a0.51,0.51,0,0,0,.36-0.62l0-.13a7.24,7.24,0,0,0,1.07-.58l0.09,0.1a0.5,0.5,0,0,0,.71,0L297-407a0.51,0.51,0,0,0,0-.72l-0.07-.08a7.43,7.43,0,0,0,.69-1l0.1,0a0.5,0.5,0,0,0,.64-0.31l0.4-1.12a0.51,0.51,0,0,0-.3-0.65l-0.07,0a7.08,7.08,0,0,0,.14-1.25h0.08Z" transform="translate(-205.25 533.61)" style="fill:#752f8a"/><path d="M358.64-412.12a0.51,0.51,0,0,0,.43-0.57l-0.15-1.18a0.5,0.5,0,0,0-.56-0.44h-0.07a7,7,0,0,0-.45-1.17l0.07,0a0.51,0.51,0,0,0,.12-0.71l-0.68-1a0.5,0.5,0,0,0-.7-0.12l-0.06,0a7.12,7.12,0,0,0-.93-0.82l0-.08a0.51,0.51,0,0,0-.22-0.69l-1-.55a0.5,0.5,0,0,0-.68.22l0,0.08a7.33,7.33,0,0,0-1.39-.44c0-.28,0-0.61-0.32-0.61l-1.26.06c-0.28,0-.27.73-0.27,0.73a5.29,5.29,0,0,0-1.33.31l-0.17,0a0.59,0.59,0,0,0-.76-0.19l-1.06.59a0.52,0.52,0,0,0-.2.69h0a7.3,7.3,0,0,0-.95.87,0.5,0.5,0,0,0-.69.16l-0.64,1a0.51,0.51,0,0,0,.12.67,7,7,0,0,0-.44,1.26,0.5,0.5,0,0,0-.5.46l-0.1,1.19a0.5,0.5,0,0,0,.4.54,7.23,7.23,0,0,0,.2,1.32,0.51,0.51,0,0,0-.24.64l0.45,1.1a0.5,0.5,0,0,0,.64.28,7.24,7.24,0,0,0,.77,1l0,0a0.51,0.51,0,0,0,.06.72l0.9,0.77a0.5,0.5,0,0,0,.71-0.06l0-.05a7.13,7.13,0,0,0,1.11.54l0,0.1a0.51,0.51,0,0,0,.38.61l1.15,0.26a0.5,0.5,0,0,0,.6-0.39l0-.13,0.43,0a7.41,7.41,0,0,0,.78,0l0,0.14a0.5,0.5,0,0,0,.62.36l1.14-.31a0.51,0.51,0,0,0,.36-0.62l0-.13a7.3,7.3,0,0,0,1.07-.58l0.09,0.1a0.5,0.5,0,0,0,.71,0L357-407a0.51,0.51,0,0,0,0-.72l-0.07-.08a7.16,7.16,0,0,0,.69-1l0.1,0a0.5,0.5,0,0,0,.64-0.31l0.4-1.12a0.51,0.51,0,0,0-.3-0.65l-0.07,0a7.08,7.08,0,0,0,.14-1.25h0.08Z" transform="translate(-205.25 533.61)" style="fill:#752f8a"/><path d="M352.61-428.89H330.52c-3.49,0-7.12,2-7.12,5.51v7.59H302.66a10,10,0,0,0-10-7.71l-9.78.21a1.48,1.48,0,0,0-1.56,1.48,1.52,1.52,0,0,0,1.58,1.49h9.78a7,7,0,0,1,7.1,7,1.84,1.84,0,0,0,1.58,1.85c0.13,0,.26.23,0.39,0.23h41.11c0-.5,0-0.65,0-0.7,0-4.88,3.58-9.1,8.46-9.1,3,0,5.87,1.24,6.88,3.53v-5.85c0-3.49-2.07-5.51-5.56-5.51" transform="translate(-205.25 533.61)" style="fill:#752f8a"/><path d="M302.25-474.71c-0.54.54-1.08,1.07-1.61,1.62s-1.06,1.1-1.56,1.68-1,1.15-1.5,1.74c-0.25.29-.49,0.6-0.72,0.9s-0.48.6-.71,0.92c-0.47.62-.91,1.25-1.35,1.89a29.44,29.44,0,0,0-2.37,4.13l-0.65,1.44v0L292-449h3.52l0.49-10a31.83,31.83,0,0,0,3.62-1.94c0.66-.42,1.3-0.83,1.93-1.28,0.32-.21.63-0.44,0.94-0.67s0.62-.45.92-0.69q0.92-.7,1.79-1.43c0.6-.48,1.15-1,1.73-1.5s1.12-1,1.67-1.56l0.13-.13-6.46-6.45Z" transform="translate(-205.25 533.61)" style="fill:#752f8a"/><path d="M310-469.75l-0.2-.25-0.4-.46c-0.18-.22-0.79-0.89-1.27-1.42L306-474.16c-0.51-.5-1.17-1.14-1.38-1.32l-0.45-.41-0.25-.21c-0.12-.09-0.12-0.05-0.14,0l-0.05,0-0.21.19-0.42.39-0.8.76,6.46,6.46,0.68-.67,0.4-.41,0.2-.2,0.05,0s0.06,0,0-.14" transform="translate(-205.25 533.61)" style="fill:#752f8a"/><path d="M315.84-467.43a0.76,0.76,0,0,1-.76.76H303.5a0.76,0.76,0,0,1-.76-0.76,0.76,0.76,0,0,1,.76-0.76h11.59a0.76,0.76,0,0,1,.76.76" transform="translate(-205.25 533.61)" style="fill:#752f8a"/><path d="M303.18-477.86a0.63,0.63,0,0,1-.56-0.34l-3.1-6a0.63,0.63,0,0,1,.27-0.85,0.63,0.63,0,0,1,.85.27l3.1,6a0.63,0.63,0,0,1-.27.85,0.61,0.61,0,0,1-.29.07" transform="translate(-205.25 533.61)" style="fill:#752f8a"/><polygon points="94.67 49.6 94.83 54.17 97.67 55.12 94.67 49.6" style="fill:#752f8a"/><polygon points="97.24 61.01 93.56 54.66 94.97 53.7 95.32 54.22 94.41 54.84 97.78 60.69 97.24 61.01" style="fill:#752f8a"/><path d="M303.53-472.22a0.46,0.46,0,0,1-.46.46,0.46,0.46,0,0,1-.46-0.46,0.46,0.46,0,0,1,.46-0.46,0.46,0.46,0,0,1,.46.46" transform="translate(-205.25 533.61)" style="fill:#752f8a"/><path d="M322-418.81H304.84a11.29,11.29,0,0,0-2.7-3.68l0,0a6.72,6.72,0,0,0-2.21-3.31l-3.12-7.07h-5.68l-4.23,5.61a3.26,3.26,0,0,0-1.34.94h0l-2.64.06a4.48,4.48,0,0,0-4.61,4.47,1.08,1.08,0,0,0,1.26,1h0a1,1,0,0,0,1.25-1,1.92,1.92,0,0,1,2-1.9c0.05,0,.1-0.06.15-0.06l9.73-.08h0a11.09,11.09,0,0,1,9,4.66,9.64,9.64,0,0,1,1.18,2.16l0.31,0.73H322a1.26,1.26,0,0,0,1.26-1.26,1.26,1.26,0,0,0-1.26-1.26" transform="translate(-205.25 533.61)" style="fill:#752f8a"/><rect x="76.84" y="100.69" width="2.52" height="6.05" style="fill:#752f8a"/><path d="M284.61-427.1a2.84,2.84,0,0,0,2.18-2.2,6.11,6.11,0,0,1,1.35.37l0.85-1a8.72,8.72,0,0,0-2.34-.63,2.61,2.61,0,0,0-2-1.65" transform="translate(-205.25 533.61)" style="fill:#752f8a"/><path d="M353.13-438.09a3.54,3.54,0,0,1-3.24,3.66H329.46c-1.85,0-5.55-1.81-5.55-3.66v-0.24c0-1.85,2-3.35,3.82-3.35l21.87,1.26c1.85,0,3.53.24,3.53,2.09v0.24Z" transform="translate(-205.25 533.61)" style="fill:#752f8a"/><path d="M363.65-472.08a2.52,2.52,0,0,1-3.11,1.72l-0.15,0a2.52,2.52,0,0,1-2-2.93l1.54-3.86a2.26,2.26,0,0,1,2.62-1.69c1.39,0.42,1.69,1.65,1.39,2.93Z" transform="translate(-205.25 533.61)" style="fill:#752f8a"/><path d="M355.3-468.55a0.72,0.72,0,0,0-.42-0.28c-1.46-.26-3.66,5.29-4.91,12.39s-1.1,13.06.36,13.32a0.74,0.74,0,0,0,.49-0.12Z" transform="translate(-205.25 533.61)" style="fill:#752f8a"/><path d="M351-440.62a0.43,0.43,0,0,0,.2-0.29c0.06-1-5.24-2.06-11.82-2.42s-12,.15-12,1.13a0.44,0.44,0,0,0,.17.31Z" transform="translate(-205.25 533.61)" style="fill:#752f8a"/><path d="M353.74-452.41h0l0.15,0h0l-0.15,0" transform="translate(-205.25 533.61)" style="fill:#752f8a"/><path d="M359.31-470.35c-1.53-.34-3.46.31-4,3l-1.66,9.77h0.6c1.84,0,2.43.38,2.43,2.32v0.08c0,1.94-.94,3.65-2.75,3.65h0l-1.32-.25-1.23,7.07c-0.34,1.53,0,3,1.52,3.37s2.42-.64,2.76-2.17L362.09-467c0.34-1.53-1.25-3.06-2.78-3.4" transform="translate(-205.25 533.61)" style="fill:#752f8a"/><path d="M352.63-452.53l1.23,0.1a2.54,2.54,0,0,0,2.29-2.78v-0.08c0-1.55-.38-1.82-1.93-1.82H339c-1.55,0-4-.36-4,1.19v0.08c0,1.55,1.79,2.17,3.34,2.17l14.07,1.14h0.22Z" transform="translate(-205.25 533.61)" style="fill:#752f8a"/><path d="M352.67-452.53h0l1.07,0.1,0.15,0Z" transform="translate(-205.25 533.61)" style="fill:#752f8a"/><polygon points="147.27 81.09 147.42 81.1 147.42 81.1 147.27 81.09" style="fill:#752f8a"/><path d="M352.63-452.51l1.07,0.1h0l-1.08-.1h0Z" transform="translate(-205.25 533.61)" style="fill:#752f8a"/><path d="M356-442.29l-0.16,0a0.58,0.58,0,0,1-.41-0.71l6.65-24.08a0.59,0.59,0,0,1,.72-0.41,0.58,0.58,0,0,1,.41.71l-6.66,24.08a0.58,0.58,0,0,1-.56.43" transform="translate(-205.25 533.61)" style="fill:#752f8a"/><path d="M343.56-429.9v-1.51H337v1.51l-2.52,0c0,0.22-.06,1-0.06,1h12a9,9,0,0,0-.33-1Z" transform="translate(-205.25 533.61)" style="fill:#752f8a"/><path d="M296.7-434.43h-5.54a0.5,0.5,0,0,0-.5.5,0.5,0.5,0,0,0,.5.5h5.54a0.5,0.5,0,0,0,.5-0.5,0.5,0.5,0,0,0-.5-0.5" transform="translate(-205.25 533.61)" style="fill:#752f8a"/><path d="M296.7-435.94h-5.54a0.5,0.5,0,0,0-.5.5,0.5,0.5,0,0,0,.5.5h5.54a0.5,0.5,0,0,0,.5-0.5,0.5,0.5,0,0,0-.5-0.5" transform="translate(-205.25 533.61)" style="fill:#752f8a"/><path d="M296.7-437.46h-5.54a0.5,0.5,0,0,0-.5.5,0.5,0.5,0,0,0,.5.5h5.54a0.5,0.5,0,0,0,.5-0.5,0.5,0.5,0,0,0-.5-0.5" transform="translate(-205.25 533.61)" style="fill:#752f8a"/><path d="M296.7-439h-5.54a0.5,0.5,0,0,0-.5.5,0.5,0.5,0,0,0,.5.5h5.54a0.5,0.5,0,0,0,.5-0.5,0.5,0.5,0,0,0-.5-0.5" transform="translate(-205.25 533.61)" style="fill:#752f8a"/><path d="M296.7-440.48h-5.54a0.5,0.5,0,0,0-.5.5,0.5,0.5,0,0,0,.5.5h5.54a0.5,0.5,0,0,0,.5-0.5,0.5,0.5,0,0,0-.5-0.5" transform="translate(-205.25 533.61)" style="fill:#752f8a"/><path d="M296.7-442h-5.54a0.5,0.5,0,0,0-.5.5,0.5,0.5,0,0,0,.5.5h5.54a0.5,0.5,0,0,0,.5-0.5,0.5,0.5,0,0,0-.5-0.5" transform="translate(-205.25 533.61)" style="fill:#752f8a"/><path d="M296.7-443.5h-5.54a0.5,0.5,0,0,0-.5.5,0.5,0.5,0,0,0,.5.5h5.54a0.5,0.5,0,0,0,.5-0.5,0.5,0.5,0,0,0-.5-0.5" transform="translate(-205.25 533.61)" style="fill:#752f8a"/><path d="M296.7-445h-5.54a0.5,0.5,0,0,0-.5.5,0.5,0.5,0,0,0,.5.51h5.54a0.5,0.5,0,0,0,.5-0.51,0.5,0.5,0,0,0-.5-0.5" transform="translate(-205.25 533.61)" style="fill:#752f8a"/><path d="M296.7-446.52h-5.54a0.5,0.5,0,0,0-.5.5,0.5,0.5,0,0,0,.5.5h5.54a0.5,0.5,0,0,0,.5-0.5,0.5,0.5,0,0,0-.5-0.5" transform="translate(-205.25 533.61)" style="fill:#752f8a"/><path d="M296.7-448h-5.54a0.5,0.5,0,0,0-.5.5,0.5,0.5,0,0,0,.5.5h5.54a0.5,0.5,0,0,0,.5-0.5,0.5,0.5,0,0,0-.5-0.5" transform="translate(-205.25 533.61)" style="fill:#752f8a"/><path d="M291.16-448.54h5.54a0.5,0.5,0,0,0,.5-0.5,0.5,0.5,0,0,0-.5-0.5h-5.54a0.5,0.5,0,0,0-.5.5,0.5,0.5,0,0,0,.5.5" transform="translate(-205.25 533.61)" style="fill:#752f8a"/><path d="M291.6-450.05l-0.2-13.6H279.29l0.28,2.45v0.07h0l1.28,11.09H291.6Zm-3.45-4h-1l-0.42-5.54h1Zm0.08-5.54h1l0.42,5.54h-1Zm-1.56,6,0.08,1h-1l-0.08-1h1Zm-1-.5-0.42-5.54h1l0.42,5.54h-1Zm1.55,0.5h1l0.08,1h-1Zm-0.5-6.55-0.08-1h1l0.08,1h-1Zm-0.51,0h-1l-0.08-1h1Zm-1.51,0h-1l-0.08-1h1Zm0,0.5,0.42,5.54h-1l-0.42-5.54h1Zm0.46,6,0.08,1h-1l-0.08-1h1Zm-1.44,1h-1l-0.08-1h1Zm0,0.5,0.11,1.51h-1l-0.11-1.51h1Zm0.51,0h1l0.11,1.51h-1Zm1.51,0h1l0.11,1.51h-1Zm1.51,0h1l0.11,1.51h-1Zm1.51,0h1l0.12,1.51h-1Zm0-.5-0.08-1h1l0.08,1h-1Zm1.44-1H291v1h-0.78Zm0-.5-0.42-5.54H291l0.08,5.54h-0.87Zm-0.46-6-0.08-1h1.31l0,1h-1.25Zm-0.51,0h-1l-0.08-1h1Zm-1.12-1.51L288-463.15h1l0.11,1.51h-1Zm-0.5,0h-1l-0.12-1.51h1Zm-1.51,0h-1l-0.11-1.51h1Zm-1.51,0h-1l-0.12-1.51h1Zm-1.51,0h-1l-0.11-1.51h1Zm0,0.5,0.08,1h-1l-0.08-1h1Zm0.12,1.51,0.42,5.54h-1l-0.42-5.54h1Zm-1.09,5.54H280.9l-0.64-5.54h1.42Zm0,0.5,0.08,1h-1.14v0.07L281-453.58h1.19Zm-1,1.51h1.13l0.12,1.51h-1.07Zm9.31,1.51-0.11-1.51h0.75l0,1.51h-0.65Zm0.5-11.08h-1.34l-0.11-1.51h1.43Zm-9.52-1.51,0.12,1.51H280l-0.17-1.51h1.56Zm0.15,2,0.08,1H280.2l-0.12-1h1.48Z" transform="translate(-205.25 533.61)" style="fill:#752f8a"/><path d="M291.36-407.71h0A4.27,4.27,0,0,1,287.1-412a4.27,4.27,0,0,1,4.26-4.26,4.27,4.27,0,0,1,4.26,4.26,4.27,4.27,0,0,1-4.26,4.26" transform="translate(-205.25 533.61)" style="fill:#fff"/><path d="M347.29-412.2h0a4.27,4.27,0,0,1,4.49-4,4.27,4.27,0,0,1,4,4.49,4.27,4.27,0,0,1-4.49,4,4.27,4.27,0,0,1-4-4.49" transform="translate(-205.25 533.61)" style="fill:#fff"/><path d="M207.46-492a0.52,0.52,0,0,1,.63.36s1.3,4.69,1.67,5.75a2.79,2.79,0,0,0,1.24,1.36l5.71,3v1.17l-6.18-3.24a3.82,3.82,0,0,1-1.74-1.94c-0.38-1.1-1.64-5.62-1.69-5.81a0.52,0.52,0,0,1,.36-0.64" transform="translate(-205.25 533.61)" style="fill:#752f8a"/><path d="M213.39-487.92l0.17-1.39a0.28,0.28,0,0,1,.31-0.24,0.28,0.28,0,0,1,.24.31l-0.18,1.41v0.06a0.72,0.72,0,0,0,0,.55,1,1,0,0,0,.74.36c1,0.15,2.45.4,3.11,0.53v0.56c-0.6-.11-2.11-0.39-3.19-0.54a1.47,1.47,0,0,1-1.14-.63,1.27,1.27,0,0,1-.1-1" transform="translate(-205.25 533.61)" style="fill:#752f8a"/><path d="M213.85-494.76a0.2,0.2,0,0,1-.1-0.25l0.05-.09a0.27,0.27,0,0,1,.17-0.08l0.06-.47-0.06,0a0.2,0.2,0,0,1-.1-0.25l0.05-.1a0.26,0.26,0,0,1,.17-0.07l0-.37h0.07a0.17,0.17,0,0,1-.16-0.18,0.17,0.17,0,0,1,.2-0.13l1.1,0.13a0.17,0.17,0,0,1,.17.17,0.17,0.17,0,0,1-.2.13h0l-0.1.84,0,0a0.19,0.19,0,0,1,.09.25l0,0.1a0.23,0.23,0,0,1-.13.08l-0.06.48,0,0a0.19,0.19,0,0,1,.08.25l0,0.1a0.24,0.24,0,0,1-.13.08l-0.06.48,0,0a0.19,0.19,0,0,1,.09.25l0,0.1a0.23,0.23,0,0,1-.13.08l-0.06.48,0,0a0.19,0.19,0,0,1,.09.25l0,0.1a0.24,0.24,0,0,1-.13.08l-0.06.48,0,0a0.19,0.19,0,0,1,.08.25l0,0.1a0.23,0.23,0,0,1-.13.08l-0.06.48,0,0a0.19,0.19,0,0,1,.09.25l0,0.1a0.25,0.25,0,0,1-.13.08l-0.14,1.18-1.2-.14,0.2-1.65-0.06,0a0.2,0.2,0,0,1-.1-0.25l0-.1a0.28,0.28,0,0,1,.17-0.07l0.06-.47-0.06,0a0.2,0.2,0,0,1-.1-0.25l0.05-.1a0.25,0.25,0,0,1,.17-0.07l0.06-.47-0.06,0a0.2,0.2,0,0,1-.1-0.25l0.05-.1a0.27,0.27,0,0,1,.17-0.07l0.06-.47-0.06,0a0.2,0.2,0,0,1-.1-0.25l0.05-.1a0.26,0.26,0,0,1,.17-0.07l0.06-.47Z" transform="translate(-205.25 533.61)" style="fill:#752f8a"/><rect x="220.29" y="-494.42" width="5.3" height="1.02" transform="translate(462.93 348.58) rotate(-79.54)" style="fill:#752f8a"/><polygon points="10.32 88.97 12.99 88.97 12.99 37.38 10.32 36.37 10.32 88.97" style="fill:#752f8a"/><rect x="9.99" y="88.97" width="3.33" height="5.33" style="fill:#752f8a"/><rect x="1.67" y="94.3" width="19.65" height="1.33" style="fill:#752f8a"/><path d="M258.2-497.78c0,0.44.17,1.18,0.56,1.18H260a1.39,1.39,0,0,0,.9-1.18V-501a0.81,0.81,0,0,0-.9-0.63h-1.2a0.52,0.52,0,0,0-.56.63v3.18Z" transform="translate(-205.25 533.61)" style="fill:#752f8a"/><polygon points="55.62 34.33 36.11 29.23 10.66 34.33 10.66 31.95 36.03 26.86 55.62 31.95 55.62 34.33" style="fill:#752f8a"/><polygon points="13.15 58.53 13.62 55.43 13.23 55.37 13.48 53.76 13.98 53.84 16.55 42.12 17.89 42.34 16.54 54.24 17.29 54.35 17.03 55.96 16.64 55.9 16.17 58.99 13.15 58.53" style="fill:#752f8a"/><polygon points="53.96 37.35 53.96 36.68 54.29 36.68 54.29 37.35 54.62 37.35 54.62 38.01 53.62 38.01 53.62 37.35 53.96 37.35" style="fill:#752f8a"/><path d="M259.25-500.52a0.42,0.42,0,0,0,.42.42,0.42,0.42,0,0,0,.42-0.42,0.42,0.42,0,0,0-.42-0.42,0.42,0.42,0,0,0-.42.42" transform="translate(-205.25 533.61)" style="fill:#752f8a"/><path d="M222.9-497.21c0,0.54.15,1.28,0.54,1.28h0.18a1.13,1.13,0,0,0,.82-1.13l1-4a0.86,0.86,0,0,0-.82-0.89h-1.2c-0.39,0-.54.23-0.54,0.78v3.94Z" transform="translate(-205.25 533.61)" style="fill:#752f8a"/><path d="M223.59-500.18a0.42,0.42,0,0,0,.42.42,0.42,0.42,0,0,0,.42-0.42,0.42,0.42,0,0,0-.42-0.42,0.43,0.43,0,0,0-.42.42" transform="translate(-205.25 533.61)" style="fill:#752f8a"/><path d="M214.24-497.21c0,0.54,0,1.28.37,1.28h1.2a1.57,1.57,0,0,0,1.1-1.28v-3.94a1,1,0,0,0-1.1-.78h-1.2c-0.39,0-.37.23-0.37,0.78v3.94Z" transform="translate(-205.25 533.61)" style="fill:#752f8a"/><path d="M214.76-500.86a0.42,0.42,0,0,0,.42.43,0.42,0.42,0,0,0,.42-0.43,0.42,0.42,0,0,0-.42-0.42,0.42,0.42,0,0,0-.42.42" transform="translate(-205.25 533.61)" style="fill:#752f8a"/><path d="M217-484.48a0.34,0.34,0,0,0,.34-0.29,0.34,0.34,0,0,0-.29-0.38s-2.6-.34-4.33-0.48a1.2,1.2,0,0,1-.93-0.4,0.89,0.89,0,0,1-.09-0.67v-0.07l0.11-1.75a0.34,0.34,0,0,0-.32-0.36,0.34,0.34,0,0,0-.36.32l-0.11,1.72a1.56,1.56,0,0,0,.19,1.2,1.81,1.81,0,0,0,1.44.69c1.7,0.14,4.27.48,4.29,0.48h0" transform="translate(-205.25 533.61)" style="fill:#752f8a"/><path d="M211.12-495.29a0.25,0.25,0,0,1-.15-0.3l0.06-.12a0.34,0.34,0,0,1,.2-0.1l0-.58-0.08,0a0.25,0.25,0,0,1-.14-0.3l0.06-.12a0.32,0.32,0,0,1,.2-0.1l0-.46h0.09a0.21,0.21,0,0,1-.21-0.21,0.21,0.21,0,0,1,.24-0.18l1.36,0.08a0.21,0.21,0,0,1,.21.21,0.21,0.21,0,0,1-.24.18h0l-0.06,1,0,0a0.23,0.23,0,0,1,.12.3l0,0.12a0.3,0.3,0,0,1-.16.1l0,0.59,0,0a0.23,0.23,0,0,1,.12.3l0,0.12a0.3,0.3,0,0,1-.16.11l0,0.59,0,0a0.23,0.23,0,0,1,.12.3l0,0.12a0.28,0.28,0,0,1-.16.1l0,0.59,0,0a0.23,0.23,0,0,1,.12.3l0,0.12a0.27,0.27,0,0,1-.16.1l0,0.59,0,0a0.23,0.23,0,0,1,.12.3l0,0.12a0.29,0.29,0,0,1-.16.1l0,0.59,0,0a0.23,0.23,0,0,1,.12.3l0,0.12a0.28,0.28,0,0,1-.16.1l-0.09,1.46-1.48-.09,0.12-2-0.08,0a0.25,0.25,0,0,1-.14-0.3l0.06-.12a0.32,0.32,0,0,1,.2-0.1l0-.59-0.08,0a0.25,0.25,0,0,1-.15-0.3l0.06-.12a0.32,0.32,0,0,1,.2-0.1l0-.59L211-493a0.25,0.25,0,0,1-.15-0.3l0.06-.12a0.33,0.33,0,0,1,.2-0.1l0-.59-0.08,0a0.25,0.25,0,0,1-.15-0.3l0.06-.12a0.32,0.32,0,0,1,.2-0.1l0-.59Z" transform="translate(-205.25 533.61)" style="fill:#752f8a"/><path d="M216.32-477h4.25v2.1h1v1.67h-5.34c-0.53,0-.66-0.66-0.66-1.24v-1.63a0.71,0.71,0,0,1,.74-0.88" transform="translate(-205.25 533.61)" style="fill:#752f8a"/><path d="M205.25-491.13a1.62,1.62,0,0,0,1.59,1.65,1.62,1.62,0,0,0,1.59-1.65,1.62,1.62,0,0,0-1.59-1.65,1.62,1.62,0,0,0-1.59,1.65" transform="translate(-205.25 533.61)" style="fill:#752f8a"/><path d="M218.54-475.38a0.59,0.59,0,0,0,.49-0.26,0.6,0.6,0,0,0-.15-0.83l-9-6.21a3.21,3.21,0,0,1-1.23-1.73c-0.28-1.27-1.12-6.76-1.13-6.81a0.59,0.59,0,0,0-.68-0.5,0.59,0.59,0,0,0-.5.68c0,0.23.85,5.58,1.14,6.89a4.4,4.4,0,0,0,1.72,2.46l9,6.21a0.58,0.58,0,0,0,.34.1" transform="translate(-205.25 533.61)" style="fill:#752f8a"/><path d="M215.78-476.4a0.42,0.42,0,0,0,.42.42,0.42,0.42,0,0,0,.42-0.42,0.42,0.42,0,0,0-.42-0.42,0.42,0.42,0,0,0-.42.42" transform="translate(-205.25 533.61)" style="fill:#752f8a"/><path d="M215.78-474.36a0.42,0.42,0,0,0,.42.43,0.42,0.42,0,0,0,.42-0.43,0.42,0.42,0,0,0-.42-0.42,0.42,0.42,0,0,0-.42.42" transform="translate(-205.25 533.61)" style="fill:#752f8a"/><path d="M275.72-487.34a0.83,0.83,0,0,0,.47-0.14,0.85,0.85,0,0,0,.23-1.18c-3.13-4.68-9.89-7.7-17.22-7.7s-14,2.93-17.18,7.63a0.85,0.85,0,0,0,.23,1.18,0.85,0.85,0,0,0,1.18-.23c2.85-4.19,9-6.89,15.77-6.89s13,2.73,15.81,6.95a0.84,0.84,0,0,0,.71.38" transform="translate(-205.25 533.61)" style="fill:#752f8a"/><path d="M275.28-488.3a0.39,0.39,0,0,0,.39.39,0.39,0.39,0,0,0,.39-0.39,0.39,0.39,0,0,0-.39-0.39,0.39,0.39,0,0,0-.39.39" transform="translate(-205.25 533.61)" style="fill:#752f8a"/><path d="M242.33-488.3a0.39,0.39,0,0,0,.39.39,0.39,0.39,0,0,0,.39-0.39,0.39,0.39,0,0,0-.39-0.39,0.39,0.39,0,0,0-.39.39" transform="translate(-205.25 533.61)" style="fill:#752f8a"/><path d="M261.43-454.62a6.74,6.74,0,0,1-1.75.41h-0.41a9.41,9.41,0,0,1-2.32-.42c-2.8-.76-7.22-13.16-8.49-15.54-2.15-3.42-2.77-5.62-2.89-6.92h0c2.32-1.62,8.74,3,13.46,3.19s11.13-4.81,13.45-3.19a1.07,1.07,0,0,1,.29.31,17.75,17.75,0,0,1-2.85,6.61c-1.27,2.38-5.69,14.77-8.49,15.54" transform="translate(-205.25 533.61)" style="fill:#752f8a"/><path d="M245.58-477.08a7.66,7.66,0,0,0,.22,1.23c2.48-1.22,8.66,3.15,13.24,3.32s11.13-4.81,13.45-3.19l0.06,0a8.23,8.23,0,0,0,.23-1.09,1.16,1.16,0,0,0-.29-0.31c-2.32-1.62-8.88,3.36-13.45,3.19s-11.14-4.81-13.46-3.19h0Z" transform="translate(-205.25 533.61)" style="fill:#752f8a"/><path d="M249.07-461.37l0.34,0.81c0.22,0.5.45,1.13,0.69,1.67a22.69,22.69,0,0,1,1,2.26h0c0.33,0.67.67,1.29,1,1.9a0.84,0.84,0,0,1,.21.43h0a6.24,6.24,0,0,0,2.4,2.57c1,0.41,7.16.14,8.23,0,1.26-.15,2.08.29,3.45-1.67a33.55,33.55,0,0,0,3.44-6.73l0.07-.18c0.29-.75.57-1.51,0.83-2.28h0c2.07-6.08,3.09-12.46,2-14.18a17.76,17.76,0,0,1-2.85,6.61c-1.27,2.38-5.69,14.77-8.49,15.54a6.8,6.8,0,0,1-1.75.41h-0.41a9.44,9.44,0,0,1-2.32-.43c-2.8-.76-7.22-13.16-8.49-15.54-2.15-3.42-2.77-5.62-2.89-6.92-2.31,1.63.23,8,3.49,15.71" transform="translate(-205.25 533.61)" style="fill:#752f8a"/><path d="M245.14-476.62a19.42,19.42,0,0,0,2.91,6.57c1.33,2.47,5.92,15.36,8.83,16.16a9.83,9.83,0,0,0,2.41.44l0.43,0a7,7,0,0,0,1.81-.42c2.91-.79,7.5-13.68,8.83-16.16a21.92,21.92,0,0,0,2.74-5.79,2.65,2.65,0,0,0-.33-0.93,17.73,17.73,0,0,1-2.85,6.61c-1.27,2.38-5.69,14.77-8.49,15.54a6.78,6.78,0,0,1-1.75.41h-0.41a9.42,9.42,0,0,1-2.32-.42c-2.8-.76-7.22-13.16-8.49-15.54-2.15-3.42-2.77-5.62-2.89-6.92a1.72,1.72,0,0,0-.44.46" transform="translate(-205.25 533.61)" style="fill:#752f8a"/><path d="M245-478.12c0,0.11,0,.29,0,0.48,0.08,5.85.53,8.68,1.53,9.49l0.09,0,0.49-.9a3.46,3.46,0,0,1-.58-1.61,0.45,0.45,0,0,0,.17,0,0.51,0.51,0,0,0,.5-0.52,41.85,41.85,0,0,0-.89-7.21c-0.42-1.82-2.31-8.52-4-8.52h0a1.67,1.67,0,0,0-1.4,1.05c-0.67,1.61.7,4.18,4.09,7.66m-3.16-7.25a0.7,0.7,0,0,1,.46-0.44c0.46,0.35,1.65,2.76,2.59,6.09-3.3-3.61-3.25-5.14-3.05-5.65" transform="translate(-205.25 533.61)" style="fill:#752f8a"/><path d="M242.55-485.19a0.33,0.33,0,0,0,.33-0.34v-2.38a0.33,0.33,0,0,0-.33-0.34,0.33,0.33,0,0,0-.33.34v2.38a0.33,0.33,0,0,0,.33.34" transform="translate(-205.25 533.61)" style="fill:#752f8a"/><path d="M270.88-469l0.36,0.95a0.5,0.5,0,0,0,.21-0.1c1-.81,1.45-3.64,1.53-9.49,0-.18,0-0.36,0-0.48,3.39-3.48,4.76-6.05,4.09-7.66a1.67,1.67,0,0,0-1.4-1.05h0c-1.64,0-3.54,6.69-4,8.52a41.59,41.59,0,0,0-.89,7.2,0.51,0.51,0,0,0,.49.52,0.47,0.47,0,0,0,.17,0,3.5,3.5,0,0,1-.58,1.61m2.22-10.72c0.94-3.33,2.13-5.74,2.59-6.09a0.7,0.7,0,0,1,.46.44c0.2,0.51.25,2-3.05,5.65" transform="translate(-205.25 533.61)" style="fill:#752f8a"/><path d="M275.52-485.19a0.33,0.33,0,0,0,.33-0.34v-2.38a0.33,0.33,0,0,0-.33-0.34,0.33,0.33,0,0,0-.33.34v2.38a0.33,0.33,0,0,0,.33.34" transform="translate(-205.25 533.61)" style="fill:#752f8a"/><path d="M249.41-460.56c0.22,0.5.45,1,.69,1.58,0.85,0.85,2,2,2.58,2.56a12.63,12.63,0,0,0,3.79,2.34l0.12,0a0.34,0.34,0,0,0,.31-0.22,0.34,0.34,0,0,0-.2-0.44,12.26,12.26,0,0,1-3.57-2.19c-0.94-.9-3.53-3.53-3.56-3.56a0.32,0.32,0,0,0-.18-0.1" transform="translate(-205.25 533.61)" style="fill:#752f8a"/><path d="M251.12-456.82c0.33,0.67.67,1.37,1,2l0.21,0.36v0a10.27,10.27,0,0,0,6.8,2.53h0.16c4.1-.33,5.16-0.76,10.57-8.21l0.07-.15c0.29-.75.57-1.5,0.83-2.27a0.89,0.89,0,0,0-.08.14c-6.73,9.39-7.4,9.49-11.39,9.82h-0.15a9.65,9.65,0,0,1-7.83-4,0.46,0.46,0,0,0-.2-0.21" transform="translate(-205.25 533.61)" style="fill:#752f8a"/></g></g></g></svg>