<svg id="Layer_1" data-name="Layer 1" xmlns="http://www.w3.org/2000/svg" xmlns:xlink="http://www.w3.org/1999/xlink" viewBox="0 0 150.24 150.24"><defs><clipPath id="clip-path" transform="translate(-31.99 329.12)"><rect x="31.99" y="-329.12" width="150.24" height="150.24" style="fill:none"/></clipPath></defs><title>sock</title><g id="Vector_Smart_Object" data-name="Vector Smart Object"><g style="clip-path:url(#clip-path)"><g style="clip-path:url(#clip-path)"><path d="M107.11-329.12A75.12,75.12,0,0,0,32-254a75.13,75.13,0,0,0,75.12,75.12A75.13,75.13,0,0,0,182.23-254a75.12,75.12,0,0,0-75.12-75.12m0,138.42A63.3,63.3,0,0,1,43.81-254a63.3,63.3,0,0,1,63.3-63.31A63.3,63.3,0,0,1,170.41-254a63.3,63.3,0,0,1-63.3,63.3" transform="translate(-31.99 329.12)" style="fill:#fff"/><path d="M81.13-317.55s4.35-5.36,9.38-5.36a32,32,0,0,0,8.37-1s13.06-4.69,18.75-3.68a7.7,7.7,0,0,1,6.36,6.36s3,1,3,2-2.34,20.76-2.34,20.76,1.67,0,1.67,2.68-0.33,16.07-1.67,16.41a8.34,8.34,0,0,0-2.34,1l-2,22.43s2.34,0.33,2,4.35-2,13.06-2,13.06l-2,1.34a15.71,15.71,0,0,0,.33,6.7,8.78,8.78,0,0,0,3,4.35,1.18,1.18,0,0,1,1.67-.33c1,0.67,10.38,9,10.38,9v1.34s10.71,5,13.73,7,3.68,3,3.68,3l3,2s2.34-.67,2.34,1.34-4.35,13.06-5.36,14.06-3,6.36-4.35,7.37-9.71,1.67-16.07,0-19.42-9.37-24.11-11-10-5-15.74-6.36S81.13-203,80.46-209.4s3-13.06,2.68-19.08-0.33-12.05-.33-12.05a14.41,14.41,0,0,1-.67-6.36,27.76,27.76,0,0,1,.67-5s-0.67-11.72-1-18.42a125.62,125.62,0,0,0-1.34-12.72s-0.78-1-.44-4.72,0.15-8.57.44-9.15c0.95-1.9,1-.86,1-0.86l-1-13.39,1.67-1Z" transform="translate(-31.99 329.12)" style="fill:#752f8a"/><path d="M120.41-223.55s1.74-3.38,2.9-2.92,9.1,7,9.74,8a3.63,3.63,0,0,1,.58,3.49,4.49,4.49,0,0,1-1.6,1.74l-0.58-.29s-4.5,6.1-5.81,7.85-7,7.56-7.27,8-4.94.44-4.94,0.44l-5.52-5.09,0.29-5.09a60.69,60.69,0,0,1,6.25-8.14c3.63-3.92,6.54-7.12,6.54-7.12Z" transform="translate(-31.99 329.12)" style="fill:#fff"/><path d="M120.41-223.55s1.74-3.38,2.9-2.92,9.1,7,9.74,8a3.63,3.63,0,0,1,.58,3.49,4.49,4.49,0,0,1-1.6,1.74l-0.58-.29s-4.5,6.1-5.81,7.85-7,7.56-7.27,8-4.94.44-4.94,0.44l-5.52-5.09,0.29-5.09a60.69,60.69,0,0,1,6.25-8.14c3.63-3.92,6.54-7.12,6.54-7.12Z" transform="translate(-31.99 329.12)" style="fill:none;stroke:#fff"/><path d="M85-250.29a2.73,2.73,0,0,1-1.45-.87c-0.7-.76-1.45-1.74-1.45-0.29s-0.87,5.23-.73,6.54-0.58,2.62,2.76,5.38,9.74,6.39,14.53,7,8.28,2,13.51-.58,7.7-4.07,8.28-4.94,2-12.64,2-14.39-0.58-3.49-1.16-3.92-0.8-.4-1,0.45-0.62,4.34-.62,4.92a3,3,0,0,1-.29,1.16s-5.23,3.05-10,3.2A56.61,56.61,0,0,1,98-248L94-246.66s-5.38-1.74-6.68-2.47S85-250.29,85-250.29" transform="translate(-31.99 329.12)" style="fill:#fff"/><path d="M85-250.29a2.73,2.73,0,0,1-1.45-.87c-0.7-.76-1.45-1.74-1.45-0.29s-0.87,5.23-.73,6.54-0.58,2.62,2.76,5.38,9.74,6.39,14.53,7,8.28,2,13.51-.58,7.7-4.07,8.28-4.94,2-12.64,2-14.39-0.58-3.49-1.16-3.92-0.8-.4-1,0.45-0.62,4.34-.62,4.92a3,3,0,0,1-.29,1.16s-5.23,3.05-10,3.2A56.61,56.61,0,0,1,98-248L94-246.66s-5.38-1.74-6.68-2.47S85-250.29,85-250.29Z" transform="translate(-31.99 329.12)" style="fill:none;stroke:#fff"/><path d="M82.77-295.77s-3.05-2.18-3.2-1.6a30.44,30.44,0,0,0,0,5.23c0.15,1.74-.73,4.07-0.44,5.38s0.15,4.5,4.36,6.83,16.57,5.23,20.93,5.23,11.19-.29,14.24-1.45,6-1.89,6.54-3.63,1.6-11.33,1.6-14.53,0.44-2.18,0-3.2-2.15-.95-2.15-0.95l-0.32,4.58s-10.9,4.36-22.38,3.05a67,67,0,0,1-19.18-4.94" transform="translate(-31.99 329.12)" style="fill:#fff"/><path d="M82.77-295.77s-3.05-2.18-3.2-1.6a30.44,30.44,0,0,0,0,5.23c0.15,1.74-.73,4.07-0.44,5.38s0.15,4.5,4.36,6.83,16.57,5.23,20.93,5.23,11.19-.29,14.24-1.45,6-1.89,6.54-3.63,1.6-11.33,1.6-14.53,0.44-2.18,0-3.2-2.15-.95-2.15-0.95l-0.32,4.58s-10.9,4.36-22.38,3.05A67,67,0,0,1,82.77-295.77Z" transform="translate(-31.99 329.12)" style="fill:none;stroke:#fff"/></g></g></g></svg>