<svg data-name="Layer 1" xmlns="http://www.w3.org/2000/svg" viewBox="0 0 150.24 150.24"><defs><clipPath id="a" transform="translate(9.58 557.21)"><path fill="none" d="M-9.58-557.21h150.24v150.24H-9.58z"/></clipPath></defs><title>phone</title><g clip-path="url(#a)" data-name="Vector Smart Object"><path d="M75.12 0A75.12 75.12 0 0 0 0 75.12a75.13 75.13 0 0 0 75.12 75.09 75.13 75.13 0 0 0 75.12-75.12A75.12 75.12 0 0 0 75.12-.03m0 138.42a63.3 63.3 0 0 1-63.3-63.3 63.3 63.3 0 0 1 63.3-63.31 63.3 63.3 0 0 1 63.3 63.31 63.3 63.3 0 0 1-63.3 63.3" fill="#fff"/><path d="M49.28 63.62h-30.7a9.6 9.6 0 0 1-9.57-9.57V23.21a9.6 9.6 0 0 1 9.57-9.52h30.7a9.6 9.6 0 0 1 9.57 9.52V54a9.6 9.6 0 0 1-9.57 9.57" fill="#752f8a"/><rect x="9.01" y="13.68" width="49.85" height="49.94" rx="9.57" ry="9.57" fill="none" stroke="#752f8a" stroke-miterlimit="10"/><path d="M53.05 135.16l-30.47-3.39a9.6 9.6 0 0 1-8.51-10.56l3.4-30.61a9.6 9.6 0 0 1 10.57-8.46l30.54 3.39a9.6 9.6 0 0 1 8.46 10.57l-3.46 30.6a9.6 9.6 0 0 1-10.57 8.46" fill="#752f8a"/><path d="M53.05 135.16l-30.47-3.39a9.6 9.6 0 0 1-8.51-10.56l3.4-30.61a9.6 9.6 0 0 1 10.57-8.46l30.54 3.39a9.6 9.6 0 0 1 8.46 10.57l-3.46 30.6a9.6 9.6 0 0 1-10.53 8.46z" fill="none" stroke="#752f8a" stroke-miterlimit="10"/><path d="M49.75 107.69a8.31 8.31 0 0 1-8.31 8.31 8.31 8.31 0 0 1-8.31-8.31 8.31 8.31 0 0 1 8.31-8.31 8.31 8.31 0 0 1 8.31 8.31" fill="#fff"/><circle cx="41.44" cy="107.69" r="8.31" fill="none" stroke="#752f8a" stroke-miterlimit="10"/><path d="M41.44 38.66a8.31 8.31 0 0 1-8.31 8.31 8.31 8.31 0 0 1-8.31-8.31 8.31 8.31 0 0 1 8.31-8.31 8.31 8.31 0 0 1 8.31 8.31" fill="#fff"/><circle cx="33.13" cy="38.65" r="8.31" fill="none" stroke="#752f8a" stroke-miterlimit="10"/><path fill="#fff" d="M33.13 35.91h25.72v5.24H33.13zm6.192 73.68l2.206-25.625 5.21.45-2.205 25.624z"/><path d="M55.58 39.02l14.12-3.08a20.4 20.4 0 0 0 7.14-2.52c1.29-.86 2.36-2 3.56-3 4.1-3.34 9.47-4.61 14.67-5.6 6.32-1.19 13-2.06 19 .16a5.58 5.58 0 0 1 3.29 2.47 6.44 6.44 0 0 1 .42 2.83c0 3.07-.85 5.36-.85 8.44 2.27-2.73.47-7.21-2.62-9s-6.87-1.54-10.4-1.28a12 12 0 0 0-5.51 1.3c-1.83 1.13-2.9 3.12-4 5-11.29 18.77-33 28.31-48.61 43.67-1.15 1.13-2.35 2.65-1.84 4.18" fill="none" stroke="#fff" stroke-miterlimit="10"/><path d="M130.7 130.92h-29a9.6 9.6 0 0 1-9.57-9.57V46.47a9.6 9.6 0 0 1 9.57-9.57h29a9.6 9.6 0 0 1 9.57 9.57v74.88a9.6 9.6 0 0 1-9.57 9.57" fill="#752f8a"/><rect x="92.09" y="36.9" width="48.19" height="94.02" rx="9.57" ry="9.57" fill="none" stroke="#752f8a" stroke-miterlimit="10"/><path d="M112.79 111.84a7.48 7.48 0 0 1-7.48 7.48 7.48 7.48 0 0 1-7.48-7.48 7.48 7.48 0 0 1 7.48-7.48 7.48 7.48 0 0 1 7.48 7.48m20.87 0a7.48 7.48 0 0 1-7.48 7.48 7.48 7.48 0 0 1-7.48-7.48 7.48 7.48 0 0 1 7.48-7.48 7.48 7.48 0 0 1 7.48 7.48m-8.77-13.26h-16.68a9.6 9.6 0 0 1-9.57-9.57V55.75a9.6 9.6 0 0 1 9.57-9.54h16.68a9.6 9.6 0 0 1 9.57 9.57v33.26a9.6 9.6 0 0 1-9.57 9.57" fill="#fff"/></g></svg>