<svg data-name="Layer 1" xmlns="http://www.w3.org/2000/svg" viewBox="0 0 150.24 150.24"><defs><clipPath id="a" transform="translate(-231.99 335.86)"><path fill="none" d="M231.99-335.86h150.24v150.24H231.99z"/></clipPath></defs><title>plus-sign</title><g clip-path="url(#a)" data-name="Vector Smart Object"><path d="M75.12 0A75.12 75.12 0 0 0 .01 75.12a75.13 75.13 0 0 0 75.12 75.12 75.13 75.13 0 0 0 75.12-75.12A75.12 75.12 0 0 0 75.13 0m0 138.42a63.3 63.3 0 0 1-63.3-63.3 63.3 63.3 0 0 1 63.29-63.26 63.3 63.3 0 0 1 63.3 63.31 63.3 63.3 0 0 1-63.3 63.3" fill="#fff"/><path d="M44.6 55.71v5.52c.28 10.59.6 21.19.83 31.78a3.54 3.54 0 0 0 1.95 3.5c2.37 1.34 4.51 3.07 6.8 4.55 4.44 2.87 8.91 5.67 13.37 8.5.19.12.37.26.73.52-.47 0-.74.05-1 0a49.06 49.06 0 0 0-22.5 5.4 12.85 12.85 0 0 0-7.45 9.74c-.1.58-.1 1.17-.17 1.92l-4.75-3.42q-10.12-7.32-20.26-14.62a2.52 2.52 0 0 1-1.1-2c-.25-2.62-.54-5.24-.76-7.86-.31-3.65-.61-7.3-.82-11-.32-5.55-.55-11.1-.82-16.65-.17-3.59-.36-7.19-.53-10.78v-2.6a53.13 53.13 0 0 0 18.29 1.65c6.14-.4 12.29-.94 18.19-4.14" fill="#752f8a"/><path d="M47.76 128.97a35.59 35.59 0 0 1-5-1.09c-2.54-.92-3.18-2.93-1.67-5.18a14.37 14.37 0 0 1 3.33-3.53 35.48 35.48 0 0 1 17.64-6.61 17.15 17.15 0 0 1 6.63.43 6.72 6.72 0 0 1 1.73.75 2.76 2.76 0 0 1 1.18 3.8 13.19 13.19 0 0 1-2.82 3.68c-4.07 3.53-9 5.45-14.13 6.67-2.19.51-4.45.71-6.9 1.09M14.01 49.25c6.29 2.49 12.54 2.43 18.85 1.3a10.64 10.64 0 0 0 6.15-3.11c-.06.66-.11 1.15-.14 1.65-.09 1.56-.23 3.13-.24 4.69a1.79 1.79 0 0 1-1.15 1.77 18.34 18.34 0 0 1-7.14 1.7 44.19 44.19 0 0 1-15.22-1.56 1.27 1.27 0 0 1-1.11-1.46c.06-1.62 0-3.25 0-5m12.21-9.46a29.42 29.42 0 0 1 8.57 1.4 9.25 9.25 0 0 1 2.62 1.4c1.29 1 1.19 2.34-.31 3a18.4 18.4 0 0 1-4.49 1.29 39 39 0 0 1-12.73.25 17.62 17.62 0 0 1-4-1.14c-1.82-.8-1.9-2.18-.34-3.46a10.9 10.9 0 0 1 5.32-2.1c1.77-.29 3.56-.41 5.35-.6" fill="#752f8a"/><path d="M114.7 83.34l5.22-8.37c5.08-8.17 5.06-16.62.47-24.78-4.81-8.54-12.85-12.49-22.42-12.54-17.44-.08-27.85 13.66-23.9 30.72.32 1.39-1 3.16-1.56 4.75-1.3-1.12-3.31-2-3.79-3.39-6-17.12 7.28-36.19 25.38-37.6 17.78-1.38 30.44 9.64 33.82 20.85 3.33 11.05.74 20.8-6.2 29.48-1.19 1.49-4.26 1.47-6.46 2.15l-.56-1.28" fill="#fff"/><path d="M134.33 104.33a16 16 0 0 1-15.88 16.18 16.17 16.17 0 0 1-16.35-16.21 16.32 16.32 0 0 1 16.17-16 16.1 16.1 0 0 1 16.05 16.07m-13.79 2.33c2.28 0 4 .25 5.51-.09 1-.22 1.75-1.32 2.61-2-.91-.8-1.72-2-2.77-2.28-1.52-.39-3.21-.1-5.37-.1 0-2.22.26-4-.1-5.7-.2-.92-1.46-1.62-2.23-2.42-.74.83-1.93 1.57-2.12 2.52a29.5 29.5 0 0 0-.1 5.64c-2.33 0-4.15-.26-5.82.11-.9.2-1.56 1.49-2.32 2.29.75.68 1.41 1.77 2.26 2a40.49 40.49 0 0 0 5.88.44c0 2-.27 3.74.1 5.3.22.94 1.42 1.65 2.18 2.47.76-.81 2-1.52 2.18-2.46.37-1.55.1-3.24.1-5.64" fill="#752f8a"/><path d="M89.77 94.86a42.93 42.93 0 0 0 1.91-4 23.15 23.15 0 0 1 7-10.44c1.78-1.48 2.51-5.05 2.4-7.62-.06-1.47-2.58-3.47-4.36-4-1.43-.43-3.4 1.07-5.17 1.56a20.76 20.76 0 0 1-3.23.39c.1-1.22-.25-2.77.36-3.6 3.17-4.28 10.93-4.06 14.67.25 4 4.57 3.74 12-1.2 16a21.62 21.62 0 0 0-6.83 10 16.87 16.87 0 0 1-1.42 3c-2.58 4.26-7.43 4.46-9.36-.13-1.41-3.36-1.24-7.44-1.43-11.21 0-.73 1.51-1.54 2.33-2.32.63 1 1.67 2 1.81 3.12.38 3 .39 6 .54 9h2" fill="#fff"/><path d="M117.29 63.33a95.75 95.75 0 0 1-3.11 9.74c-.49 1.14-2.3 1.72-3.51 2.56a17.38 17.38 0 0 1-.36-4.23c.5-3.22 2-6.43 1.86-9.58-.4-7.11-6.59-11.93-14.71-12.23-6.3-.24-11.33 4.31-12.86 11.65a7.06 7.06 0 0 1-.31 2 34.71 34.71 0 0 1-2.38 3.22c-.66-1.31-2-2.67-1.87-3.91 1.14-14.81 15.34-22 28.05-14.35a18.31 18.31 0 0 1 9.2 15.12m-17.28 50.48l2.91 4.51c-6.29 2.88-12.26 3.35-18-.1-5-3-6.65-8-6.2-13.53.11-1.35 1.84-2.56 2.82-3.83.93 1.14 2.55 2.2 2.69 3.44 1.12 9.43 4.76 12 14.13 9.81.4-.09.8-.14 1.65-.28m20.52-7.16c0 2.39.27 4.09-.1 5.64-.22.94-1.42 1.65-2.18 2.46-.76-.82-2-1.53-2.18-2.47-.36-1.56-.1-3.26-.1-5.3a40.49 40.49 0 0 1-5.88-.44c-.86-.18-1.52-1.27-2.26-2 .77-.8 1.42-2.1 2.32-2.29 1.68-.37 3.5-.11 5.82-.11a29.5 29.5 0 0 1 .1-5.64c.2-.95 1.38-1.69 2.13-2.52.78.8 2 1.49 2.23 2.42.36 1.68.1 3.49.1 5.7 2.16 0 3.85-.29 5.37.1 1 .27 1.85 1.49 2.77 2.28-.86.7-1.64 1.81-2.61 2-1.55.34-3.24.09-5.51.09" fill="#fff"/></g></svg>