<svg data-name="Layer 1" xmlns="http://www.w3.org/2000/svg" viewBox="0 0 158.79 150.24"><defs><clipPath id="a" transform="translate(-205.25 533.61)"><path fill="none" d="M205.25-533.61h158.79v150.24H205.25z"/></clipPath></defs><title>scooter</title><g clip-path="url(#a)" data-name="Vector Smart Object"><path d="M76.84 0A75.12 75.12 0 0 0 1.75 75.12a75.13 75.13 0 0 0 75.12 75.12 75.13 75.13 0 0 0 75.12-75.12A75.12 75.12 0 0 0 76.87 0m0 138.42a63.3 63.3 0 0 1-63.3-63.3 63.3 63.3 0 0 1 63.3-63.31 63.3 63.3 0 0 1 63.3 63.31 63.3 63.3 0 0 1-63.3 63.3" fill="#fff"/><path fill="#752f8a" d="M133.77 98.17h2.02v5.54h-2.02zm12.08-3.606l1.26-3.68 1.154.394-1.26 3.68zm8.64-29.494l1.263-3.68 1.154.394-1.26 3.68zm-61.05 56.42a.51.51 0 0 0 .43-.57l-.12-1.18a.5.5 0 0 0-.56-.44h-.06a7.21 7.21 0 0 0-.45-1.17h.07a.51.51 0 0 0 .12-.71l-.68-1a.5.5 0 0 0-.7-.12h-.06a7.11 7.11 0 0 0-.93-.82v-.08a.51.51 0 0 0-.21-.69l-1-.55a.5.5 0 0 0-.68.22v.08a7.34 7.34 0 0 0-1.39-.44c0-.28 0-.74-.3-.74h-1.18c-.28 0-.26.5-.26.78a8.54 8.54 0 0 0-1.69.4.51.51 0 0 0-.69-.19l-1 .59a.7.7 0 0 0-.13.69 3.25 3.25 0 0 0-1 .87.54.54 0 0 0-.72.16l-.65 1a.51.51 0 0 0 .11.67 7.1 7.1 0 0 0-.44 1.26.5.5 0 0 0-.5.46l-.11 1.19a.5.5 0 0 0 .4.54 7.06 7.06 0 0 0 .2 1.32.51.51 0 0 0-.24.64l.45 1.1a.5.5 0 0 0 .65.28 7.31 7.31 0 0 0 .77 1 .51.51 0 0 0 .06.72l.8.85a.5.5 0 0 0 .71-.06v-.05a7.14 7.14 0 0 0 1.11.54v.1a.51.51 0 0 0 .38.61l1.15.26a.5.5 0 0 0 .6-.39v-.13h.43a7.42 7.42 0 0 0 .78 0v.14a.5.5 0 0 0 .62.36l1.22-.38a.51.51 0 0 0 .36-.62v-.13a7.24 7.24 0 0 0 1.07-.58l.09.1a.5.5 0 0 0 .71 0l.77-.77a.51.51 0 0 0 0-.72l-.07-.08a7.43 7.43 0 0 0 .69-1h.1a.5.5 0 0 0 .64-.31l.4-1.12a.51.51 0 0 0-.3-.65h-.07a7.08 7.08 0 0 0 .14-1.25h.08zm59.95 0a.51.51 0 0 0 .43-.57l-.15-1.18a.5.5 0 0 0-.56-.44h-.07a7 7 0 0 0-.45-1.17h.07a.51.51 0 0 0 .12-.71l-.68-1a.5.5 0 0 0-.7-.12h-.06a7.12 7.12 0 0 0-.93-.82v-.08a.51.51 0 0 0-.22-.69l-1-.55a.5.5 0 0 0-.68.22v.08a7.33 7.33 0 0 0-1.39-.44c0-.28 0-.61-.32-.61l-1.26.06c-.28 0-.27.73-.27.73a5.29 5.29 0 0 0-1.33.31h-.17a.59.59 0 0 0-.76-.19l-1.06.59a.52.52 0 0 0-.2.69 7.3 7.3 0 0 0-.95.87.5.5 0 0 0-.69.16l-.64 1a.51.51 0 0 0 .12.67 7 7 0 0 0-.44 1.26.5.5 0 0 0-.5.46l-.1 1.19a.5.5 0 0 0 .4.54 7.23 7.23 0 0 0 .2 1.32.51.51 0 0 0-.24.64l.45 1.1a.5.5 0 0 0 .64.28 7.24 7.24 0 0 0 .77 1 .51.51 0 0 0 .06.72l.9.77a.5.5 0 0 0 .71-.06v-.05a7.13 7.13 0 0 0 1.11.54v.1a.51.51 0 0 0 .38.61l1.15.26a.5.5 0 0 0 .6-.39v-.13h.43a7.41 7.41 0 0 0 .78 0v.14a.5.5 0 0 0 .62.36l1.14-.31a.51.51 0 0 0 .36-.62v-.13a7.3 7.3 0 0 0 1.07-.58l.09.1a.5.5 0 0 0 .71 0l.87-.81a.51.51 0 0 0 0-.72l-.07-.08a7.16 7.16 0 0 0 .69-1h.1a.5.5 0 0 0 .64-.31l.4-1.12a.51.51 0 0 0-.3-.65h-.07a7.08 7.08 0 0 0 .14-1.25h.08z"/><path d="M147.36 104.72h-22.09c-3.49 0-7.12 2-7.12 5.51v7.59H97.41a10 10 0 0 0-10-7.71l-9.78.21a1.48 1.48 0 0 0-1.56 1.48 1.52 1.52 0 0 0 1.58 1.49h9.78a7 7 0 0 1 7.1 7 1.84 1.84 0 0 0 1.58 1.85c.13 0 .26.23.39.23h41.11v-.7c0-4.88 3.58-9.1 8.46-9.1 3 0 5.87 1.24 6.88 3.53v-5.85c0-3.49-2.07-5.51-5.56-5.51M97 58.9c-.54.54-1.08 1.07-1.61 1.62s-1.06 1.1-1.56 1.68-1 1.15-1.5 1.74c-.25.29-.49.6-.72.9s-.48.6-.71.92c-.47.62-.91 1.25-1.35 1.89a29.44 29.44 0 0 0-2.37 4.13l-.65 1.44.22 11.39h3.52l.49-10a31.83 31.83 0 0 0 3.62-1.94c.66-.42 1.3-.83 1.93-1.28.32-.21.63-.44.94-.67s.62-.45.92-.69q.92-.7 1.79-1.43c.6-.48 1.15-1 1.73-1.5s1.12-1 1.67-1.56l.13-.13-6.46-6.45zm7.75 4.96l-.2-.25-.4-.46c-.18-.22-.79-.89-1.27-1.42l-2.13-2.28c-.51-.5-1.17-1.14-1.38-1.32l-.45-.41-.25-.21c-.12-.09-.12-.05-.14 0h-.05l-.21.19-.42.39-.8.76 6.46 6.46.68-.67.4-.41.2-.2h.05s.06 0 0-.14" fill="#752f8a"/><path d="M110.59 66.18a.76.76 0 0 1-.76.76H98.25a.76.76 0 0 1-.76-.76.76.76 0 0 1 .76-.76h11.59a.76.76 0 0 1 .76.76M97.93 55.75a.63.63 0 0 1-.56-.34l-3.1-6a.63.63 0 0 1 .27-.85.63.63 0 0 1 .85.27l3.1 6a.63.63 0 0 1-.27.85.61.61 0 0 1-.29.07" fill="#752f8a"/><path fill="#752f8a" d="M94.67 49.6l.16 4.57 2.84.95-3-5.52"/><path fill="#752f8a" d="M97.24 61.01l-3.68-6.35 1.41-.96.35.52-.91.62 3.37 5.85-.54.32m1.04.38a.46.46 0 0 1-.46.46.46.46 0 0 1-.46-.46.46.46 0 0 1 .46-.46.46.46 0 0 1 .46.46m18.47 53.41H99.59a11.29 11.29 0 0 0-2.7-3.68 6.72 6.72 0 0 0-2.21-3.31l-3.12-7.07h-5.68l-4.23 5.61a3.26 3.26 0 0 0-1.34.94l-2.64.06a4.48 4.48 0 0 0-4.61 4.47 1.08 1.08 0 0 0 1.26 1 1 1 0 0 0 1.25-1 1.92 1.92 0 0 1 2-1.9c.05 0 .1-.06.15-.06l9.73-.08a11.09 11.09 0 0 1 9 4.66 9.64 9.64 0 0 1 1.18 2.16l.31.73h18.81a1.26 1.26 0 0 0 1.26-1.26 1.26 1.26 0 0 0-1.26-1.26"/><path fill="#752f8a" d="M76.84 100.69h2.52v6.05h-2.52zm2.52 5.82a2.84 2.84 0 0 0 2.18-2.2 6.11 6.11 0 0 1 1.35.37l.85-1a8.72 8.72 0 0 0-2.34-.63 2.61 2.61 0 0 0-2-1.65m68.48-5.88a3.54 3.54 0 0 1-3.24 3.66h-20.43c-1.85 0-5.55-1.81-5.55-3.66v-.24c0-1.85 2-3.35 3.82-3.35l21.87 1.26c1.85 0 3.53.24 3.53 2.09v.24zm10.52-33.99a2.52 2.52 0 0 1-3.11 1.72h-.15a2.52 2.52 0 0 1-2-2.93l1.54-3.86a2.26 2.26 0 0 1 2.62-1.69c1.39.42 1.69 1.65 1.39 2.93zm-8.35 3.53a.72.72 0 0 0-.42-.28c-1.46-.26-3.66 5.29-4.91 12.39s-1.1 13.06.36 13.32a.74.74 0 0 0 .49-.12zm-4.3 27.93a.43.43 0 0 0 .2-.29c.06-1-5.24-2.06-11.82-2.42s-12 .15-12 1.13a.44.44 0 0 0 .17.31zm2.74-11.79h.15-.15m5.57-17.94c-1.53-.34-3.46.31-4 3l-1.66 9.77h.6c1.84 0 2.43.38 2.43 2.32v.08c0 1.94-.94 3.65-2.75 3.65l-1.32-.25-1.23 7.07c-.34 1.53 0 3 1.52 3.37s2.42-.64 2.76-2.17l6.43-23.49c.34-1.53-1.25-3.06-2.78-3.4"/><path d="M147.38 81.08l1.23.1a2.54 2.54 0 0 0 2.29-2.78v-.08c0-1.55-.38-1.82-1.93-1.82h-15.22c-1.55 0-4-.36-4 1.19v.08c0 1.55 1.79 2.17 3.34 2.17l14.07 1.14h.22z" fill="#752f8a"/><path d="M147.42 81.08l1.07.1h.15zm-.15.01l.15.01-.15-.01m.11.01l1.07.1-1.08-.1zm3.37 10.22h-.16a.58.58 0 0 1-.41-.71l6.65-24.08a.59.59 0 0 1 .72-.41.58.58 0 0 1 .41.71l-6.66 24.08a.58.58 0 0 1-.56.43m-12.43 12.37v-1.51h-6.56v1.51h-2.52c0 .22-.06 1-.06 1h12a9 9 0 0 0-.33-1zm-46.86-4.53h-5.54a.5.5 0 0 0-.5.5.5.5 0 0 0 .5.5h5.54a.5.5 0 0 0 .5-.5.5.5 0 0 0-.5-.5m0-1.51h-5.54a.5.5 0 0 0-.5.5.5.5 0 0 0 .5.5h5.54a.5.5 0 0 0 .5-.5.5.5 0 0 0-.5-.5m0-1.52h-5.54a.5.5 0 0 0-.5.5.5.5 0 0 0 .5.5h5.54a.5.5 0 0 0 .5-.5.5.5 0 0 0-.5-.5m0-1.54h-5.54a.5.5 0 0 0-.5.5.5.5 0 0 0 .5.5h5.54a.5.5 0 0 0 .5-.5.5.5 0 0 0-.5-.5m0-1.48h-5.54a.5.5 0 0 0-.5.5.5.5 0 0 0 .5.5h5.54a.5.5 0 0 0 .5-.5.5.5 0 0 0-.5-.5m0-1.52h-5.54a.5.5 0 0 0-.5.5.5.5 0 0 0 .5.5h5.54a.5.5 0 0 0 .5-.5.5.5 0 0 0-.5-.5m0-1.5h-5.54a.5.5 0 0 0-.5.5.5.5 0 0 0 .5.5h5.54a.5.5 0 0 0 .5-.5.5.5 0 0 0-.5-.5m0-1.5h-5.54a.5.5 0 0 0-.5.5.5.5 0 0 0 .5.51h5.54a.5.5 0 0 0 .5-.51.5.5 0 0 0-.5-.5m0-1.52h-5.54a.5.5 0 0 0-.5.5.5.5 0 0 0 .5.5h5.54a.5.5 0 0 0 .5-.5.5.5 0 0 0-.5-.5m0-1.48h-5.54a.5.5 0 0 0-.5.5.5.5 0 0 0 .5.5h5.54a.5.5 0 0 0 .5-.5.5.5 0 0 0-.5-.5m-5.54-.54h5.54a.5.5 0 0 0 .5-.5.5.5 0 0 0-.5-.5h-5.54a.5.5 0 0 0-.5.5.5.5 0 0 0 .5.5m.44-1.51l-.2-13.6H74.04l.28 2.45v.07l1.28 11.09h10.75zm-3.45-4h-1l-.42-5.54h1zm.08-5.54h1l.42 5.54h-1zm-1.56 6l.08 1h-1l-.08-1h1zm-1-.5L80 73.98h1l.42 5.54h-1zm1.55.5h1l.08 1h-1zm-.5-6.55l-.08-1h1l.08 1h-1zm-.51 0h-1l-.08-1h1zm-1.51 0h-1l-.08-1h1zm0 .5l.42 5.54h-1l-.42-5.54h1zm.46 6l.08 1h-1l-.08-1h1zm-1.44 1h-1l-.08-1h1zm0 .5l.11 1.51h-1l-.11-1.51h1zm.51 0h1l.11 1.51h-1zm1.51 0h1l.11 1.51h-1zm1.51 0h1l.11 1.51h-1zm1.51 0h1l.12 1.51h-1zm0-.5l-.08-1h1l.08 1h-1zm1.44-1h.8v1h-.78zm0-.5l-.42-5.54h1.22l.08 5.54h-.87zm-.46-6l-.08-1h1.31v1h-1.25zm-.51 0h-1l-.08-1h1zm-1.12-1.51l-.11-1.5h1l.11 1.51h-1zm-.5 0h-1l-.12-1.51h1zm-1.51 0h-1l-.11-1.51h1zm-1.51 0h-1l-.12-1.51h1zm-1.51 0h-1l-.11-1.51h1zm0 .5l.08 1h-1l-.08-1h1zm.12 1.51l.42 5.54h-1l-.42-5.54h1zm-1.09 5.54h-1.21l-.64-5.54h1.42zm0 .5l.08 1H75.8v.07l-.05-1.05h1.19zm-1 1.51h1.13l.12 1.51h-1.07zm9.31 1.51l-.11-1.51h.75v1.51h-.65zm.5-11.08h-1.34l-.11-1.51h1.43zm-9.52-1.51l.12 1.51h-1.52l-.17-1.51h1.56zm.15 2l.08 1h-1.43l-.12-1h1.48z" fill="#752f8a"/><path d="M86.11 125.9a4.27 4.27 0 0 1-4.26-4.29 4.27 4.27 0 0 1 4.26-4.26 4.27 4.27 0 0 1 4.26 4.26 4.27 4.27 0 0 1-4.26 4.26m55.93-4.46a4.27 4.27 0 0 1 4.49-4 4.27 4.27 0 0 1 4 4.49 4.27 4.27 0 0 1-4.49 4 4.27 4.27 0 0 1-4-4.49" fill="#fff"/><path d="M2.21 41.61a.52.52 0 0 1 .63.36s1.3 4.69 1.67 5.75a2.79 2.79 0 0 0 1.24 1.36l5.71 3v1.17l-6.18-3.24a3.82 3.82 0 0 1-1.74-1.94c-.38-1.1-1.64-5.62-1.69-5.81a.52.52 0 0 1 .36-.64m5.93 4.07l.17-1.39a.28.28 0 0 1 .31-.24.28.28 0 0 1 .24.31l-.18 1.41v.06a.72.72 0 0 0 0 .55 1 1 0 0 0 .74.36c1 .15 2.45.4 3.11.53v.56c-.6-.11-2.11-.39-3.19-.54a1.47 1.47 0 0 1-1.14-.63 1.27 1.27 0 0 1-.1-1" fill="#752f8a"/><path d="M8.6 38.85a.2.2 0 0 1-.1-.25l.05-.09a.27.27 0 0 1 .17-.08l.06-.47h-.06a.2.2 0 0 1-.1-.25l.05-.1a.26.26 0 0 1 .17-.07v-.37h.07a.17.17 0 0 1-.16-.18.17.17 0 0 1 .2-.13l1.1.13a.17.17 0 0 1 .17.17.17.17 0 0 1-.2.13l-.1.84a.19.19 0 0 1 .09.25v.1a.23.23 0 0 1-.13.08l-.06.48a.19.19 0 0 1 .08.25v.1a.24.24 0 0 1-.13.08l-.06.48a.19.19 0 0 1 .09.25v.1a.23.23 0 0 1-.13.08l-.06.48a.19.19 0 0 1 .09.25v.1a.24.24 0 0 1-.13.08l-.06.48a.19.19 0 0 1 .08.25v.1a.23.23 0 0 1-.13.08l-.06.48a.19.19 0 0 1 .09.25v.1a.25.25 0 0 1-.13.08l-.14 1.18-1.2-.14.2-1.65h-.06a.2.2 0 0 1-.1-.25v-.1a.28.28 0 0 1 .17-.07l.06-.47h-.06a.2.2 0 0 1-.1-.25l.05-.1a.25.25 0 0 1 .17-.07l.06-.47h-.06a.2.2 0 0 1-.1-.25l.05-.1a.27.27 0 0 1 .17-.07l.06-.47h-.06a.2.2 0 0 1-.1-.25l.05-.1a.26.26 0 0 1 .17-.07l.06-.47zm8.12 3.34l.962-5.213 1.003.186-.962 5.212zm-6.4 46.78h2.67V37.38l-2.67-1.01v52.6m-.33 0h3.33v5.33H9.99zM1.67 94.3h19.65v1.33H1.67zm51.28-58.47c0 .44.17 1.18.56 1.18h1.24a1.39 1.39 0 0 0 .9-1.18v-3.22a.81.81 0 0 0-.9-.63h-1.2a.52.52 0 0 0-.56.63v3.18z" fill="#752f8a"/><path fill="#752f8a" d="M55.62 34.33l-19.51-5.1-25.45 5.1v-2.38l25.37-5.09 19.59 5.09v2.38m-42.47 24.2l.47-3.1-.39-.06.25-1.61.5.08 2.57-11.72 1.34.22-1.35 11.9.75.11-.26 1.61-.39-.06-.47 3.09-3.02-.46m40.81-21.18v-.67h.33v.67h.33v.66h-1v-.66h.34"/><path d="M54 33.09a.42.42 0 0 0 .42.42.42.42 0 0 0 .42-.42.42.42 0 0 0-.42-.42.42.42 0 0 0-.42.42M17.65 36.4c0 .54.15 1.28.54 1.28h.18a1.13 1.13 0 0 0 .82-1.13l1-4a.86.86 0 0 0-.82-.89h-1.2c-.39 0-.54.23-.54.78v3.94z" fill="#752f8a"/><path d="M18.34 33.43a.42.42 0 0 0 .42.42.42.42 0 0 0 .42-.42.42.42 0 0 0-.42-.42.43.43 0 0 0-.42.42M8.99 36.4c0 .54 0 1.28.37 1.28h1.2a1.57 1.57 0 0 0 1.1-1.28v-3.94a1 1 0 0 0-1.1-.78h-1.2c-.39 0-.37.23-.37.78v3.94z" fill="#752f8a"/><path d="M9.51 32.75a.42.42 0 0 0 .42.43.42.42 0 0 0 .42-.43.42.42 0 0 0-.42-.42.42.42 0 0 0-.42.42m2.24 16.38a.34.34 0 0 0 .34-.29.34.34 0 0 0-.29-.38s-2.6-.34-4.33-.48a1.2 1.2 0 0 1-.93-.4.89.89 0 0 1-.09-.67v-.07l.11-1.75a.34.34 0 0 0-.32-.36.34.34 0 0 0-.36.32l-.11 1.72a1.56 1.56 0 0 0 .19 1.2 1.81 1.81 0 0 0 1.44.69c1.7.14 4.27.48 4.29.48" fill="#752f8a"/><path d="M5.87 38.32a.25.25 0 0 1-.15-.3l.06-.12a.34.34 0 0 1 .2-.1v-.58H5.9a.25.25 0 0 1-.14-.3l.06-.12a.32.32 0 0 1 .2-.1v-.46h.09a.21.21 0 0 1-.21-.21.21.21 0 0 1 .24-.18l1.36.08a.21.21 0 0 1 .21.21.21.21 0 0 1-.24.18l-.06 1a.23.23 0 0 1 .12.3v.12a.3.3 0 0 1-.16.1v.59a.23.23 0 0 1 .12.3v.12a.3.3 0 0 1-.16.11v.59a.23.23 0 0 1 .12.3v.12a.28.28 0 0 1-.16.1v.59a.23.23 0 0 1 .12.3v.12a.27.27 0 0 1-.16.1v.59a.23.23 0 0 1 .12.3v.12a.29.29 0 0 1-.16.1v.59a.23.23 0 0 1 .12.3v.12a.28.28 0 0 1-.16.1l-.09 1.46-1.48-.09.12-2h-.08a.25.25 0 0 1-.14-.3l.06-.12a.32.32 0 0 1 .2-.1v-.59h-.08a.25.25 0 0 1-.15-.3l.06-.12a.32.32 0 0 1 .2-.1v-.59l-.04.06a.25.25 0 0 1-.15-.3l.06-.12a.33.33 0 0 1 .2-.1v-.59h-.08a.25.25 0 0 1-.15-.3l.06-.12a.32.32 0 0 1 .2-.1v-.59zm5.2 18.29h4.25v2.1h1v1.67h-5.34c-.53 0-.66-.66-.66-1.24v-1.63a.71.71 0 0 1 .74-.88M0 42.48a1.62 1.62 0 0 0 1.59 1.65 1.62 1.62 0 0 0 1.59-1.65 1.62 1.62 0 0 0-1.59-1.65A1.62 1.62 0 0 0 0 42.48" fill="#752f8a"/><path d="M13.29 58.23a.59.59 0 0 0 .49-.26.6.6 0 0 0-.15-.83l-9-6.21A3.21 3.21 0 0 1 3.4 49.2c-.28-1.27-1.12-6.76-1.13-6.81a.59.59 0 0 0-.68-.5.59.59 0 0 0-.5.68c0 .23.85 5.58 1.14 6.89a4.4 4.4 0 0 0 1.72 2.46l9 6.21a.58.58 0 0 0 .34.1" fill="#752f8a"/><path d="M10.53 57.21a.42.42 0 0 0 .42.42.42.42 0 0 0 .42-.42.42.42 0 0 0-.42-.42.42.42 0 0 0-.42.42m0 2.04a.42.42 0 0 0 .42.43.42.42 0 0 0 .42-.43.42.42 0 0 0-.42-.42.42.42 0 0 0-.42.42m59.94-12.98a.83.83 0 0 0 .47-.14.85.85 0 0 0 .23-1.18c-3.13-4.68-9.89-7.7-17.22-7.7s-14 2.93-17.18 7.63a.85.85 0 0 0 .23 1.18.85.85 0 0 0 1.18-.23c2.85-4.19 9-6.89 15.77-6.89s13 2.73 15.81 6.95a.84.84 0 0 0 .71.38" fill="#752f8a"/><path d="M70.03 45.31a.39.39 0 0 0 .39.39.39.39 0 0 0 .39-.39.39.39 0 0 0-.39-.39.39.39 0 0 0-.39.39m-32.95 0a.39.39 0 0 0 .39.39.39.39 0 0 0 .39-.39.39.39 0 0 0-.39-.39.39.39 0 0 0-.39.39m19.1 33.68a6.74 6.74 0 0 1-1.75.41h-.41a9.41 9.41 0 0 1-2.32-.42c-2.8-.76-7.22-13.16-8.49-15.54-2.15-3.42-2.77-5.62-2.89-6.92 2.32-1.62 8.74 3 13.46 3.19s11.13-4.81 13.45-3.19a1.07 1.07 0 0 1 .29.31 17.75 17.75 0 0 1-2.85 6.61c-1.27 2.38-5.69 14.77-8.49 15.54" fill="#752f8a"/><path d="M40.33 56.53a7.66 7.66 0 0 0 .22 1.23c2.48-1.22 8.66 3.15 13.24 3.32s11.13-4.81 13.45-3.19h.06a8.23 8.23 0 0 0 .23-1.09 1.16 1.16 0 0 0-.29-.31c-2.32-1.62-8.88 3.36-13.45 3.19s-11.14-4.81-13.46-3.19z" fill="#752f8a"/><path d="M43.82 72.24l.34.81c.22.5.45 1.13.69 1.67a22.69 22.69 0 0 1 1 2.26c.33.67.67 1.29 1 1.9a.84.84 0 0 1 .21.43 6.24 6.24 0 0 0 2.4 2.57c1 .41 7.16.14 8.23 0 1.26-.15 2.08.29 3.45-1.67a33.55 33.55 0 0 0 3.44-6.73l.07-.18c.29-.75.57-1.51.83-2.28 2.07-6.08 3.09-12.46 2-14.18a17.76 17.76 0 0 1-2.85 6.61c-1.27 2.38-5.69 14.77-8.49 15.54a6.8 6.8 0 0 1-1.75.41h-.41a9.44 9.44 0 0 1-2.32-.43c-2.8-.76-7.22-13.16-8.49-15.54-2.15-3.42-2.77-5.62-2.89-6.92-2.31 1.63.23 8 3.49 15.71" fill="#752f8a"/><path d="M39.89 56.99a19.42 19.42 0 0 0 2.91 6.57c1.33 2.47 5.92 15.36 8.83 16.16a9.83 9.83 0 0 0 2.41.44h.43a7 7 0 0 0 1.81-.42c2.91-.79 7.5-13.68 8.83-16.16a21.92 21.92 0 0 0 2.74-5.79 2.65 2.65 0 0 0-.33-.93 17.73 17.73 0 0 1-2.85 6.61c-1.27 2.38-5.69 14.77-8.49 15.54a6.78 6.78 0 0 1-1.75.41h-.41A9.42 9.42 0 0 1 51.7 79c-2.8-.76-7.22-13.16-8.49-15.54-2.15-3.42-2.77-5.62-2.89-6.92a1.72 1.72 0 0 0-.44.46" fill="#752f8a"/><path d="M39.75 55.49v.48c.08 5.85.53 8.68 1.53 9.49h.09l.49-.9a3.46 3.46 0 0 1-.58-1.61.45.45 0 0 0 .17 0 .51.51 0 0 0 .5-.52 41.85 41.85 0 0 0-.89-7.21c-.42-1.82-2.31-8.52-4-8.52a1.67 1.67 0 0 0-1.4 1.05c-.67 1.61.7 4.18 4.09 7.66m-3.16-7.25a.7.7 0 0 1 .46-.44c.46.35 1.65 2.76 2.59 6.09-3.3-3.61-3.25-5.14-3.05-5.65" fill="#752f8a"/><path d="M37.3 48.42a.33.33 0 0 0 .33-.34V45.7a.33.33 0 0 0-.33-.34.33.33 0 0 0-.33.34v2.38a.33.33 0 0 0 .33.34m28.33 16.19l.36.95a.5.5 0 0 0 .21-.1c1-.81 1.45-3.64 1.53-9.49v-.48c3.39-3.48 4.76-6.05 4.09-7.66a1.67 1.67 0 0 0-1.4-1.05c-1.64 0-3.54 6.69-4 8.52a41.59 41.59 0 0 0-.89 7.2.51.51 0 0 0 .49.52.47.47 0 0 0 .17 0 3.5 3.5 0 0 1-.58 1.61m2.22-10.72c.94-3.33 2.13-5.74 2.59-6.09a.7.7 0 0 1 .46.44c.2.51.25 2-3.05 5.65" fill="#752f8a"/><path d="M70.27 48.42a.33.33 0 0 0 .33-.34V45.7a.33.33 0 0 0-.33-.34.33.33 0 0 0-.33.34v2.38a.33.33 0 0 0 .33.34M44.16 73.05c.22.5.45 1 .69 1.58.85.85 2 2 2.58 2.56a12.63 12.63 0 0 0 3.79 2.34h.12a.34.34 0 0 0 .31-.22.34.34 0 0 0-.2-.44 12.26 12.26 0 0 1-3.57-2.19c-.94-.9-3.53-3.53-3.56-3.56a.32.32 0 0 0-.18-.1" fill="#752f8a"/><path d="M45.87 76.79c.33.67.67 1.37 1 2l.21.36a10.27 10.27 0 0 0 6.8 2.53h.16c4.1-.33 5.16-.76 10.57-8.21l.07-.15c.29-.75.57-1.5.83-2.27a.89.89 0 0 0-.08.14c-6.73 9.39-7.4 9.49-11.39 9.82h-.15a9.65 9.65 0 0 1-7.83-4 .46.46 0 0 0-.2-.21" fill="#752f8a"/></g></svg>