<svg data-name="Layer 1" xmlns="http://www.w3.org/2000/svg" viewBox="0 0 150.24 150.24"><defs><clipPath id="a" transform="translate(-31.99 329.12)"><path fill="none" d="M31.99-329.12h150.24v150.24H31.99z"/></clipPath></defs><title>sock</title><g clip-path="url(#a)" data-name="Vector Smart Object"><path d="M75.12 0A75.12 75.12 0 0 0 .01 75.12a75.13 75.13 0 0 0 75.12 75.12 75.13 75.13 0 0 0 75.11-75.12A75.12 75.12 0 0 0 75.12 0m0 138.42a63.3 63.3 0 0 1-63.3-63.3 63.3 63.3 0 0 1 63.3-63.31 63.3 63.3 0 0 1 63.3 63.31 63.3 63.3 0 0 1-63.3 63.3" fill="#fff"/><path d="M49.14 11.57s4.35-5.36 9.38-5.36a32 32 0 0 0 8.37-1S79.95.52 85.64 1.53A7.7 7.7 0 0 1 92 7.89s3 1 3 2-2.34 20.76-2.34 20.76 1.67 0 1.67 2.68S94 49.4 92.66 49.74a8.34 8.34 0 0 0-2.34 1l-2 22.43s2.34.33 2 4.35-2 13.06-2 13.06l-2 1.34a15.71 15.71 0 0 0 .33 6.7 8.78 8.78 0 0 0 3 4.35 1.18 1.18 0 0 1 1.67-.33c1 .67 10.38 9 10.38 9v1.34s10.71 5 13.73 7 3.68 3 3.68 3l3 2s2.34-.67 2.34 1.34-4.35 13.06-5.36 14.06-3 6.36-4.35 7.37-9.71 1.67-16.07 0-19.42-9.37-24.11-11-10-5-15.74-6.36-9.68-4.27-10.35-10.67 3-13.06 2.68-19.08-.33-12.05-.33-12.05a14.41 14.41 0 0 1-.67-6.36 27.76 27.76 0 0 1 .67-5s-.67-11.72-1-18.42a125.62 125.62 0 0 0-1.34-12.72s-.78-1-.44-4.72.15-8.57.44-9.15c.95-1.9 1-.86 1-.86l-1-13.39 1.67-1z" fill="#752f8a"/><path d="M88.42 105.57s1.74-3.38 2.9-2.92 9.1 7 9.74 8a3.63 3.63 0 0 1 .58 3.49 4.49 4.49 0 0 1-1.6 1.74l-.58-.29s-4.5 6.1-5.81 7.85-7 7.56-7.27 8-4.94.44-4.94.44l-5.52-5.09.29-5.09a60.69 60.69 0 0 1 6.25-8.14c3.63-3.92 6.54-7.12 6.54-7.12z" fill="#fff"/><path d="M88.42 105.57s1.74-3.38 2.9-2.92 9.1 7 9.74 8a3.63 3.63 0 0 1 .58 3.49 4.49 4.49 0 0 1-1.6 1.74l-.58-.29s-4.5 6.1-5.81 7.85-7 7.56-7.27 8-4.94.44-4.94.44l-5.52-5.09.29-5.09a60.69 60.69 0 0 1 6.25-8.14c3.63-3.92 6.54-7.12 6.54-7.12z" fill="none" stroke="#fff"/><path d="M53.01 78.83a2.73 2.73 0 0 1-1.45-.87c-.7-.76-1.45-1.74-1.45-.29s-.87 5.23-.73 6.54-.58 2.62 2.76 5.38 9.74 6.39 14.53 7 8.28 2 13.51-.58 7.7-4.07 8.28-4.94 2-12.64 2-14.39-.58-3.49-1.16-3.92-.8-.4-1 .45-.62 4.34-.62 4.92a3 3 0 0 1-.29 1.16s-5.23 3.05-10 3.2a56.61 56.61 0 0 1-11.38-1.37l-4 1.34s-5.38-1.74-6.68-2.47-2.32-1.16-2.32-1.16" fill="#fff"/><path d="M53.01 78.83a2.73 2.73 0 0 1-1.45-.87c-.7-.76-1.45-1.74-1.45-.29s-.87 5.23-.73 6.54-.58 2.62 2.76 5.38 9.74 6.39 14.53 7 8.28 2 13.51-.58 7.7-4.07 8.28-4.94 2-12.64 2-14.39-.58-3.49-1.16-3.92-.8-.4-1 .45-.62 4.34-.62 4.92a3 3 0 0 1-.29 1.16s-5.23 3.05-10 3.2a56.61 56.61 0 0 1-11.38-1.37l-4 1.34s-5.38-1.74-6.68-2.47-2.32-1.16-2.32-1.16z" fill="none" stroke="#fff"/><path d="M50.78 33.35s-3.05-2.18-3.2-1.6a30.44 30.44 0 0 0 0 5.23c.15 1.74-.73 4.07-.44 5.38s.15 4.5 4.36 6.83 16.57 5.23 20.93 5.23 11.19-.29 14.24-1.45 6-1.89 6.54-3.63 1.6-11.33 1.6-14.53.44-2.18 0-3.2-2.15-.95-2.15-.95l-.32 4.58s-10.9 4.36-22.38 3.05a67 67 0 0 1-19.18-4.94" fill="#fff"/><path d="M50.78 33.35s-3.05-2.18-3.2-1.6a30.44 30.44 0 0 0 0 5.23c.15 1.74-.73 4.07-.44 5.38s.15 4.5 4.36 6.83 16.57 5.23 20.93 5.23 11.19-.29 14.24-1.45 6-1.89 6.54-3.63 1.6-11.33 1.6-14.53.44-2.18 0-3.2-2.15-.95-2.15-.95l-.32 4.58s-10.9 4.36-22.38 3.05a67 67 0 0 1-19.18-4.94z" fill="none" stroke="#fff"/></g></svg>