<?xml version="1.0" encoding="utf-8"?>
<!-- Generated by IcoMoon.io -->
<!DOCTYPE svg PUBLIC "-//W3C//DTD SVG 1.1//EN" "http://www.w3.org/Graphics/SVG/1.1/DTD/svg11.dtd">
<svg version="1.1" xmlns="http://www.w3.org/2000/svg" xmlns:xlink="http://www.w3.org/1999/xlink" width="510" height="512" viewBox="0 0 510 512">
<g id="icomoon-ignore">
	<line stroke-width="1" x1="16" y1="0" x2="16" y2="512" stroke="#449FDB" opacity="0.3"></line>
	<line stroke-width="1" x1="32" y1="0" x2="32" y2="512" stroke="#449FDB" opacity="1"></line>
	<line stroke-width="1" x1="48" y1="0" x2="48" y2="512" stroke="#449FDB" opacity="0.3"></line>
	<line stroke-width="1" x1="64" y1="0" x2="64" y2="512" stroke="#449FDB" opacity="1"></line>
	<line stroke-width="1" x1="80" y1="0" x2="80" y2="512" stroke="#449FDB" opacity="0.3"></line>
	<line stroke-width="1" x1="96" y1="0" x2="96" y2="512" stroke="#449FDB" opacity="1"></line>
	<line stroke-width="1" x1="112" y1="0" x2="112" y2="512" stroke="#449FDB" opacity="0.3"></line>
	<line stroke-width="1" x1="128" y1="0" x2="128" y2="512" stroke="#449FDB" opacity="1"></line>
	<line stroke-width="1" x1="144" y1="0" x2="144" y2="512" stroke="#449FDB" opacity="0.3"></line>
	<line stroke-width="1" x1="160" y1="0" x2="160" y2="512" stroke="#449FDB" opacity="1"></line>
	<line stroke-width="1" x1="176" y1="0" x2="176" y2="512" stroke="#449FDB" opacity="0.3"></line>
	<line stroke-width="1" x1="192" y1="0" x2="192" y2="512" stroke="#449FDB" opacity="1"></line>
	<line stroke-width="1" x1="208" y1="0" x2="208" y2="512" stroke="#449FDB" opacity="0.3"></line>
	<line stroke-width="1" x1="224" y1="0" x2="224" y2="512" stroke="#449FDB" opacity="1"></line>
	<line stroke-width="1" x1="240" y1="0" x2="240" y2="512" stroke="#449FDB" opacity="0.3"></line>
	<line stroke-width="1" x1="256" y1="0" x2="256" y2="512" stroke="#449FDB" opacity="1"></line>
	<line stroke-width="1" x1="272" y1="0" x2="272" y2="512" stroke="#449FDB" opacity="0.3"></line>
	<line stroke-width="1" x1="288" y1="0" x2="288" y2="512" stroke="#449FDB" opacity="1"></line>
	<line stroke-width="1" x1="304" y1="0" x2="304" y2="512" stroke="#449FDB" opacity="0.3"></line>
	<line stroke-width="1" x1="320" y1="0" x2="320" y2="512" stroke="#449FDB" opacity="1"></line>
	<line stroke-width="1" x1="336" y1="0" x2="336" y2="512" stroke="#449FDB" opacity="0.3"></line>
	<line stroke-width="1" x1="352" y1="0" x2="352" y2="512" stroke="#449FDB" opacity="1"></line>
	<line stroke-width="1" x1="368" y1="0" x2="368" y2="512" stroke="#449FDB" opacity="0.3"></line>
	<line stroke-width="1" x1="384" y1="0" x2="384" y2="512" stroke="#449FDB" opacity="1"></line>
	<line stroke-width="1" x1="400" y1="0" x2="400" y2="512" stroke="#449FDB" opacity="0.3"></line>
	<line stroke-width="1" x1="416" y1="0" x2="416" y2="512" stroke="#449FDB" opacity="1"></line>
	<line stroke-width="1" x1="432" y1="0" x2="432" y2="512" stroke="#449FDB" opacity="0.3"></line>
	<line stroke-width="1" x1="448" y1="0" x2="448" y2="512" stroke="#449FDB" opacity="1"></line>
	<line stroke-width="1" x1="464" y1="0" x2="464" y2="512" stroke="#449FDB" opacity="0.3"></line>
	<line stroke-width="1" x1="480" y1="0" x2="480" y2="512" stroke="#449FDB" opacity="1"></line>
	<line stroke-width="1" x1="496" y1="0" x2="496" y2="512" stroke="#449FDB" opacity="0.3"></line>
	<line stroke-width="1" x1="0" y1="16" x2="510" y2="16" stroke="#449FDB" opacity="0.3"></line>
	<line stroke-width="1" x1="0" y1="32" x2="510" y2="32" stroke="#449FDB" opacity="1"></line>
	<line stroke-width="1" x1="0" y1="48" x2="510" y2="48" stroke="#449FDB" opacity="0.3"></line>
	<line stroke-width="1" x1="0" y1="64" x2="510" y2="64" stroke="#449FDB" opacity="1"></line>
	<line stroke-width="1" x1="0" y1="80" x2="510" y2="80" stroke="#449FDB" opacity="0.3"></line>
	<line stroke-width="1" x1="0" y1="96" x2="510" y2="96" stroke="#449FDB" opacity="1"></line>
	<line stroke-width="1" x1="0" y1="112" x2="510" y2="112" stroke="#449FDB" opacity="0.3"></line>
	<line stroke-width="1" x1="0" y1="128" x2="510" y2="128" stroke="#449FDB" opacity="1"></line>
	<line stroke-width="1" x1="0" y1="144" x2="510" y2="144" stroke="#449FDB" opacity="0.3"></line>
	<line stroke-width="1" x1="0" y1="160" x2="510" y2="160" stroke="#449FDB" opacity="1"></line>
	<line stroke-width="1" x1="0" y1="176" x2="510" y2="176" stroke="#449FDB" opacity="0.3"></line>
	<line stroke-width="1" x1="0" y1="192" x2="510" y2="192" stroke="#449FDB" opacity="1"></line>
	<line stroke-width="1" x1="0" y1="208" x2="510" y2="208" stroke="#449FDB" opacity="0.3"></line>
	<line stroke-width="1" x1="0" y1="224" x2="510" y2="224" stroke="#449FDB" opacity="1"></line>
	<line stroke-width="1" x1="0" y1="240" x2="510" y2="240" stroke="#449FDB" opacity="0.3"></line>
	<line stroke-width="1" x1="0" y1="256" x2="510" y2="256" stroke="#449FDB" opacity="1"></line>
	<line stroke-width="1" x1="0" y1="272" x2="510" y2="272" stroke="#449FDB" opacity="0.3"></line>
	<line stroke-width="1" x1="0" y1="288" x2="510" y2="288" stroke="#449FDB" opacity="1"></line>
	<line stroke-width="1" x1="0" y1="304" x2="510" y2="304" stroke="#449FDB" opacity="0.3"></line>
	<line stroke-width="1" x1="0" y1="320" x2="510" y2="320" stroke="#449FDB" opacity="1"></line>
	<line stroke-width="1" x1="0" y1="336" x2="510" y2="336" stroke="#449FDB" opacity="0.3"></line>
	<line stroke-width="1" x1="0" y1="352" x2="510" y2="352" stroke="#449FDB" opacity="1"></line>
	<line stroke-width="1" x1="0" y1="368" x2="510" y2="368" stroke="#449FDB" opacity="0.3"></line>
	<line stroke-width="1" x1="0" y1="384" x2="510" y2="384" stroke="#449FDB" opacity="1"></line>
	<line stroke-width="1" x1="0" y1="400" x2="510" y2="400" stroke="#449FDB" opacity="0.3"></line>
	<line stroke-width="1" x1="0" y1="416" x2="510" y2="416" stroke="#449FDB" opacity="1"></line>
	<line stroke-width="1" x1="0" y1="432" x2="510" y2="432" stroke="#449FDB" opacity="0.3"></line>
	<line stroke-width="1" x1="0" y1="448" x2="510" y2="448" stroke="#449FDB" opacity="1"></line>
	<line stroke-width="1" x1="0" y1="464" x2="510" y2="464" stroke="#449FDB" opacity="0.3"></line>
	<line stroke-width="1" x1="0" y1="480" x2="510" y2="480" stroke="#449FDB" opacity="1"></line>
	<line stroke-width="1" x1="0" y1="496" x2="510" y2="496" stroke="#449FDB" opacity="0.3"></line>
</g>
<path fill="rgb(255, 255, 255)" d="M254.695 0c-140.664 0-254.695 114.031-254.695 254.695 0 140.671 114.026 254.709 254.693 254.728 140.658-0.019 254.677-114.038 254.696-254.693 0-140.666-114.031-254.696-254.695-254.696zM254.695 469.348c-118.531 0-214.619-96.088-214.619-214.619 0-0.010 0-0.022 0-0.034 0-118.53 96.088-214.619 214.619-214.619 0 0 0 0 0 0s0 0 0 0c118.531 0 214.619 96.088 214.619 214.619 0 0.012 0 0.024 0 0.036 0 118.529-96.088 214.617-214.619 214.617z"></path>
<path fill="rgb(117, 47, 138)" d="M341.899 416.998c-1.187-11.833-14.715-23.733-16.478-23.733s-6.476-0.543-6.476-0.543l-3.39-54.926s0.577 0 0.577-2.678c-0.13-2.45-0.663-4.74-1.536-6.856l-1.414 0.38-2.95-44.077c1.425-0.591 2.408-1.971 2.408-3.58 0-0.257-0.025-0.507-0.073-0.75 0.010-0.086 0.014-0.214 0.014-0.344 0-2.014-0.909-3.815-2.339-5.015l-4.723-58.698c0.718-1.050 1.163-2.338 1.205-3.726 0.026 0.016 0.052-0.354 0.052-0.73 0-1.605-0.469-3.101-1.276-4.357l-1.744-3.732c-1.057-13.817-3.765-26.637-7.944-38.772 0.587 1.462-5.625-5.539-13.701-9.065-2.858-1.131-8.589-2.538-14.601-2.9s5.495-4.156 0.782-3.613-10.613-3.391-15.325-3.391-9.425-1.627-11.189-0.542c-2.281 0.959-3.906 3.067-4.159 5.58 0.023 2.489-3.368 5.202-4.114 11.643s-0.577 17.766-0.577 17.766l-42.415 5.391s-63.606 9.697-72.421 9.697-15.901 1.627-17.665 0.542l-1.763-1.085c-5.070-9.259-12.311-16.766-21.064-22.007 7.909 5.897 4.12 4.212-0.046 3.817s4.462-1.815-2.014-3.984-9.425-0.542-14.715-3.763c-1.551-1.373-3.603-2.211-5.852-2.211-1.587 0-3.076 0.417-4.364 1.149-2.745 0.419-4.904 2.637-5.252 5.418l0.008 2.119s-4.136 4.306-3.391 17.766 5.899 129.754 5.899 129.754c-0.742 1.447-1.179 3.155-1.188 4.964 0-0.066-0.001-0.007-0.001 0.052 0 1.534 0.443 2.964 1.208 4.17l2.931 76.424s1.288 3.39 6.476 2.136 4.713-3.764 4.713-3.764l-2.34-75.913-2.34-29.599s18.851 14.003 25.327 19.394 13.562 10.171 15.901 16.682c2.702 9.184 4.329 19.755 4.484 30.682l10.842 94.767s-4.136-6.985-10.171-6.985-12.951 9.697-5.9 32.312c5.968 19.156 12.782 23.733 20.615 20.987 9.425-3.39 4.713-23.157 4.713-23.157s6.476-0.543 6.476-4.306-15.901-155.048-15.901-155.048c0.603-1.669 0.953-3.595 0.953-5.603 0-1.258-0.137-2.484-0.397-3.664l-1.743-0.973-2.34-31.226c4.739 0.38 10.26 0.596 15.832 0.596 7.703 0 15.31-0.413 22.799-1.219 20.262-2.089 84.477-15.007 84.477-15.007l1.186 92.052c0.537 1.397 1.868 2.37 3.426 2.37 0.462 0 0.905-0.086 1.311-0.242 2.242-0.094 4.117-1.656 4.69-3.756l0.575-92.594 6.476-1.627s31.803 16.139 36.516 19.394 8.849 6.476 10.171 12.375 11.765 125.991 11.765 125.991l2.95 2.136h2.339s4.713 11.291 14.139 12.375 14.409-7.019 12.952-21.529zM80.558 307.722c-7.662-5.933-18.851-16.682-21.191-16.682h-2.543l-3.391-94.764c-0.104-0.829-0.163-1.79-0.163-2.763 0-2.078 0.27-4.093 0.776-6.012 1.331-2.339 2.255-5.275 2.543-8.395s8.033 8.017 10.372 8.56c-4.136-3.391 2.34 0.542 0 0 3.486 2.836 7.781 4.811 12.488 5.538l-1.876 1.446c3.463 1.111 6.291 3.379 8.094 6.34 3.495 8.552 6.467 20.221 7.225 32.49l-0.604 4.771c-0.843 1.224-1.346 2.738-1.346 4.369 0 0.554 0.058 1.094 0.168 1.615 0.214 2.205 1.193 4.197 2.668 5.703l6.138 74.465s-11.765-10.782-19.427-16.681zM150.572 272.732c-20.038 1.085-18.851 1.627-27.666 1.085s-13.562-1.085-13.562-1.085l-2.34-24.242c0.141 0.037 0.303 0.059 0.469 0.059 1.049 0 1.898-0.85 1.898-1.899 0-0.117-0.010-0.231-0.031-0.342 0.15-0.726 0.234-1.575 0.234-2.444 0-1.626-0.296-3.183-0.838-4.619-0.66-0.868-1.757-1.496-3.001-1.541s-0.495-17.762-1.105-22.611c-0.91-5.537-2.745-10.5-5.353-14.954 4.971 6.011 7.984 6.727 11.166 6.727 1.276 0 2.526-0.115 3.739-0.337l118.236-16.119 1.186 66.759s-62.995 14.546-83.034 15.596zM243.031 164.541c1.186-3.391 3.391-5.391 6.476-4.306 2.364 1.343 5.169 2.189 8.159 2.327 0.539-0.29 2.611-0.788 4.522-1.595-0.103 2.344 1.719 3.769 3.896 4.002 0.707 0.329 1.721 0.532 2.783 0.532s2.075-0.203 3.005-0.572l1.708 0.019c0.185 0.417 0.294 0.904 0.294 1.417 0 1.185-0.579 2.236-1.471 2.882-2.349 2.177 1.176 5.398 1.176 5.398l-30.514 4.306s-1.186-11.291 0-14.546zM248.355 255.406c-0.925-0.77-2.127-1.238-3.438-1.238-0.452 0-0.893 0.056-1.313 0.161-1.726 1.077-0.539-67.31-0.539-67.31l32.379-3.763c0.56 0.136 1.202 0.213 1.862 0.213 1.974 0 3.786-0.695 5.205-1.852 2.484-2.293 4.273-5.333 5.010-8.764 4.185 18.692 7.449 36.994 8.175 55.947-3.303-29.913-3.034-27.38-3.034-24.785 0 1.214-0.059 2.415-0.174 3.599s-3.378 2.019-2.327 4.698 1.763 4.306 1.763 4.306l2.339 28.006c-11.618 4.656-25.067 7.626-39.13 8.232 2.038 0.889-6.778 2.517-6.778 2.517zM284.87 274.224c-8.239-4.849-20.615-10.782-20.615-10.782s19.428-3.764 24.14-4.849 8.137-2.102 8.137-2.102l1.763 27.463c-10.223-8.916-22.663-15.561-36.375-19.002z"></path>
<path fill="rgb(117, 47, 138)" d="M420.253 53.604s14.918-10.816 19.36-14.172c9.96-9.137 22.1-16.066 35.541-19.913-20.589 9.47-12.791 5.368-8.315 9.844s5.221 13.053 4.849 16.783 0.373 7.086-2.983 7.832-11.188 4.849-19.021 7.459-21.598 6.34-21.598 6.34c0.058 0.373 0.091 0.802 0.091 1.24 0 2.452-1.037 4.662-2.697 6.215-3.396 2.615-8.955-1.487-8.955-1.487s-8.578 11.561-8.951 20.106c-0.305 6.781 11.188 24.954 16.783 33.532s8.578 12.307 7.832 25.327-2.611 89.069-2.611 89.069c2.092 3.123 3.586 6.825 4.224 10.814-1.038-5.194-0.475-3.351-0.475-1.376 0 0.222-0.007 0.443-0.021 0.662-0.112 1.411-0.863 2.657-1.967 3.436l-0.642 1.043-0.373 10.307c0.257-0.054 0.551-0.084 0.853-0.084 1.507 0 2.834 0.768 3.613 1.933 19.108 18.529 42.267 32.971 68.013 41.871l-52.339-28.429s14.918-7.459 19.733-6.34c3.096 0.779 5.525 3.065 6.491 6.012 1.183 0.169 2.099 1.481 2.099 3.005 0 0.108-0.005 0.214-0.014 0.32 0.001 2.97 0.747 7.072-0.372 8.192-1.31 1.402-3.169 2.276-5.233 2.276-0.259 0-0.514-0.014-0.766-0.041-2.43-0.277-4.387-2.128-4.825-4.512l0.009-4.437c0.089-1.366 0.553-2.61 1.291-3.645 0.776-1.551 2.136-3.025 3.79-4.080s-5.827 3.216-11.048 4.707-15.664 5.967-15.664 5.967l-24.954 19.394s-14.173 17.156-16.037 21.971-2.983 8.205-2.983 8.205c1.411 3.082 2.284 6.675 2.401 10.459-0.2 1.108-2.933 3.818-6.3 3.818-0.793 0-1.55-0.151-2.246-0.424-2.599-0.517-4.56-2.817-4.56-5.575 0-0.422 0.046-0.833 0.133-1.229 1.016-1.587 1.704-3.522 1.911-5.597-0.036 0.532 0.767-0.953 1.875-2.154 0.678-5.296 3.537-10.786 7.445-15.351 0.018-0.255 10.8-14.767 10.8-14.767s-14.173-11.562-15.664-13.562l-1.492-1.865-31.668 0.373c-0.302-0.041-0.651-0.065-1.005-0.065-1.264 0-2.458 0.3-3.515 0.831-0.995 0.5-1.721 1.512-1.832 2.702 1.26 2.68 2.050 5.926 2.2 9.339-0.314-2.995-0.31-2.861-0.31-2.726 0 3.169-2.47 5.76-5.589 5.955-3.205-0.277-5.723-2.805-5.986-5.973 0.934-5.592 2.446-10.599 4.508-15.31l-1.524 7.789s2.611-6.34 6.34-7.459 39.5-1.119 39.5-1.119l22.344-15.664 2.238-121.109s1.119-5.221-4.476-13.799-19.597-29.159-20.716-40.008 4.849-20.106 6.34-23.090c4.541-6.851 10.575-12.364 17.665-16.166-11.459 6.725-11.795 5.279-11.795 3.755 0-2.706 1.057-5.165 2.779-6.987 1.060-1.286 2.661-2.103 4.452-2.103 1.615 0 3.075 0.664 4.121 1.734z"></path>
<path fill="rgb(255, 255, 255)" d="M333.524 412.455c3.221 8.578 2.102 16.952-2.475 18.614s-10.884-3.832-14.104-12.409-2.102-16.952 2.475-18.614 10.884 3.832 14.104 12.409zM118.498 482.74c3.221 8.578 2.102 16.952-2.475 18.614s-10.883-3.832-14.105-12.409-2.102-16.952 2.475-18.614 10.883 3.832 14.105 12.409z"></path>
</svg>
