<?xml version="1.0" encoding="UTF-8"?><!DOCTYPE svg PUBLIC "-//W3C//DTD SVG 1.1//EN" "http://www.w3.org/Graphics/SVG/1.1/DTD/svg11.dtd"><svg xmlns="http://www.w3.org/2000/svg" xmlns:xlink="http://www.w3.org/1999/xlink"><defs><clipPath id="clip-path" transform="translate(9.58 557.21)"><rect x="-9.58" y="-557.21" width="150.24" height="150.24" style="fill:none"/></clipPath><clipPath id="clip-path" transform="translate(-231.99 335.86)"><rect x="231.99" y="-335.86" width="150.24" height="150.24" style="fill:none"/></clipPath><clipPath id="clip-path" transform="translate(-205.25 533.61)"><rect x="205.25" y="-533.61" width="158.79" height="150.24" style="fill:none"/></clipPath><clipPath id="clip-path" transform="translate(-31.99 329.12)"><rect x="31.99" y="-329.12" width="150.24" height="150.24" style="fill:none"/></clipPath><clipPath id="clip-path" transform="translate(165.76 312.65)"><rect x="-165.76" y="-312.65" width="150.24" height="151.01" style="fill:none"/></clipPath></defs><symbol id="phone" viewBox="0 0 150.24 150.24"><title>phone</title><g id="Vector_Smart_Object" data-name="Vector Smart Object"><g style="clip-path:url(#clip-path)"><g style="clip-path:url(#clip-path)"><path d="M65.54-557.21A75.12,75.12,0,0,0-9.58-482.09,75.13,75.13,0,0,0,65.54-407a75.13,75.13,0,0,0,75.12-75.12,75.12,75.12,0,0,0-75.12-75.12m0,138.42a63.3,63.3,0,0,1-63.3-63.3,63.3,63.3,0,0,1,63.3-63.31,63.3,63.3,0,0,1,63.3,63.31,63.3,63.3,0,0,1-63.3,63.3" transform="translate(9.58 557.21)" style="fill:#fff"/><path d="M39.7-493.59H9a9.6,9.6,0,0,1-9.57-9.57V-534A9.6,9.6,0,0,1,9-543.52H39.7A9.6,9.6,0,0,1,49.27-534v30.79a9.6,9.6,0,0,1-9.57,9.57" transform="translate(9.58 557.21)" style="fill:#752f8a"/><rect x="9.01" y="13.68" width="49.85" height="49.94" rx="9.57" ry="9.57" style="fill:none;stroke:#752f8a;stroke-miterlimit:10"/><path d="M43.47-422.05L13-425.44A9.6,9.6,0,0,1,4.49-436l3.4-30.61a9.6,9.6,0,0,1,10.57-8.46L49-471.68a9.6,9.6,0,0,1,8.46,10.57L54-430.51a9.6,9.6,0,0,1-10.57,8.46" transform="translate(9.58 557.21)" style="fill:#752f8a"/><path d="M43.47-422.05L13-425.44A9.6,9.6,0,0,1,4.49-436l3.4-30.61a9.6,9.6,0,0,1,10.57-8.46L49-471.68a9.6,9.6,0,0,1,8.46,10.57L54-430.51A9.6,9.6,0,0,1,43.47-422.05Z" transform="translate(9.58 557.21)" style="fill:none;stroke:#752f8a;stroke-miterlimit:10"/><path d="M40.17-449.52a8.31,8.31,0,0,1-8.31,8.31,8.31,8.31,0,0,1-8.31-8.31,8.31,8.31,0,0,1,8.31-8.31,8.31,8.31,0,0,1,8.31,8.31" transform="translate(9.58 557.21)" style="fill:#fff"/><circle cx="41.44" cy="107.69" r="8.31" style="fill:none;stroke:#752f8a;stroke-miterlimit:10"/><path d="M31.86-518.55a8.31,8.31,0,0,1-8.31,8.31,8.31,8.31,0,0,1-8.31-8.31,8.31,8.31,0,0,1,8.31-8.31,8.31,8.31,0,0,1,8.31,8.31" transform="translate(9.58 557.21)" style="fill:#fff"/><circle cx="33.13" cy="38.65" r="8.31" style="fill:none;stroke:#752f8a;stroke-miterlimit:10"/><rect x="33.13" y="35.91" width="25.72" height="5.24" style="fill:#fff"/><rect x="20.6" y="-462.84" width="25.72" height="5.23" transform="translate(498.69 169.81) rotate(-85.08)" style="fill:#fff"/><path d="M46-518.19l14.12-3.08a20.4,20.4,0,0,0,7.14-2.52c1.29-.86,2.36-2,3.56-3,4.1-3.34,9.47-4.61,14.67-5.6,6.32-1.19,13-2.06,19,.16a5.58,5.58,0,0,1,3.29,2.47,6.44,6.44,0,0,1,.42,2.83c0,3.07-.85,5.36-0.85,8.44,2.27-2.73.47-7.21-2.62-9s-6.87-1.54-10.4-1.28a12,12,0,0,0-5.51,1.3c-1.83,1.13-2.9,3.12-4,5-11.29,18.77-33,28.31-48.61,43.67-1.15,1.13-2.35,2.65-1.84,4.18" transform="translate(9.58 557.21)" style="fill:none;stroke:#fff;stroke-miterlimit:10"/><path d="M121.12-426.29h-29a9.6,9.6,0,0,1-9.57-9.57v-74.88a9.6,9.6,0,0,1,9.57-9.57h29a9.6,9.6,0,0,1,9.57,9.57v74.88a9.6,9.6,0,0,1-9.57,9.57" transform="translate(9.58 557.21)" style="fill:#752f8a"/><rect x="92.09" y="36.9" width="48.19" height="94.02" rx="9.57" ry="9.57" style="fill:none;stroke:#752f8a;stroke-miterlimit:10"/><path d="M103.21-445.37a7.48,7.48,0,0,1-7.48,7.48,7.48,7.48,0,0,1-7.48-7.48,7.48,7.48,0,0,1,7.48-7.48,7.48,7.48,0,0,1,7.48,7.48" transform="translate(9.58 557.21)" style="fill:#fff"/><path d="M124.08-445.37a7.48,7.48,0,0,1-7.48,7.48,7.48,7.48,0,0,1-7.48-7.48,7.48,7.48,0,0,1,7.48-7.48,7.48,7.48,0,0,1,7.48,7.48" transform="translate(9.58 557.21)" style="fill:#fff"/><path d="M115.31-458.63H98.63a9.6,9.6,0,0,1-9.57-9.57v-33.26A9.6,9.6,0,0,1,98.63-511h16.68a9.6,9.6,0,0,1,9.57,9.57v33.26a9.6,9.6,0,0,1-9.57,9.57" transform="translate(9.58 557.21)" style="fill:#fff"/></g></g></g></symbol><symbol id="plus-sign" viewBox="0 0 150.24 150.24"><title>plus-sign</title><g id="Vector_Smart_Object" data-name="Vector Smart Object"><g style="clip-path:url(#clip-path)"><g style="clip-path:url(#clip-path)"><path d="M307.11-335.86A75.12,75.12,0,0,0,232-260.74a75.13,75.13,0,0,0,75.12,75.12,75.13,75.13,0,0,0,75.12-75.12,75.12,75.12,0,0,0-75.12-75.12m0,138.42a63.3,63.3,0,0,1-63.3-63.3A63.3,63.3,0,0,1,307.11-324a63.3,63.3,0,0,1,63.3,63.31,63.3,63.3,0,0,1-63.3,63.3" transform="translate(-231.99 335.86)" style="fill:#fff"/><path d="M276.59-280.15c0,1.93,0,3.73,0,5.52,0.28,10.59.6,21.19,0.83,31.78a3.54,3.54,0,0,0,1.95,3.5c2.37,1.34,4.51,3.07,6.8,4.55,4.44,2.87,8.91,5.67,13.37,8.5,0.19,0.12.37,0.26,0.73,0.52-0.47,0-.74.05-1,0a49.06,49.06,0,0,0-22.5,5.4,12.85,12.85,0,0,0-7.45,9.74c-0.1.58-.1,1.17-0.17,1.92l-4.75-3.42q-10.12-7.32-20.26-14.62a2.52,2.52,0,0,1-1.1-2c-0.25-2.62-.54-5.24-0.76-7.86-0.31-3.65-.61-7.3-0.82-11-0.32-5.55-.55-11.1-0.82-16.65-0.17-3.59-.36-7.19-0.53-10.78,0-.83,0-1.66,0-2.6A53.13,53.13,0,0,0,258.4-276c6.14-.4,12.29-0.94,18.19-4.14" transform="translate(-231.99 335.86)" style="fill:#752f8a"/><path d="M279.75-206.89a35.59,35.59,0,0,1-5-1.09c-2.54-.92-3.18-2.93-1.67-5.18a14.37,14.37,0,0,1,3.33-3.53,35.48,35.48,0,0,1,17.64-6.61,17.15,17.15,0,0,1,6.63.43,6.72,6.72,0,0,1,1.73.75,2.76,2.76,0,0,1,1.18,3.8,13.19,13.19,0,0,1-2.82,3.68c-4.07,3.53-9,5.45-14.13,6.67-2.19.51-4.45,0.71-6.9,1.09" transform="translate(-231.99 335.86)" style="fill:#752f8a"/><path d="M246-286.61c6.29,2.49,12.54,2.43,18.85,1.3a10.64,10.64,0,0,0,6.15-3.11c-0.06.66-.11,1.15-0.14,1.65-0.09,1.56-.23,3.13-0.24,4.69a1.79,1.79,0,0,1-1.15,1.77,18.34,18.34,0,0,1-7.14,1.7,44.19,44.19,0,0,1-15.22-1.56,1.27,1.27,0,0,1-1.11-1.46c0.06-1.62,0-3.25,0-5" transform="translate(-231.99 335.86)" style="fill:#752f8a"/><path d="M258.21-296.09a29.42,29.42,0,0,1,8.57,1.4,9.25,9.25,0,0,1,2.62,1.4c1.29,1,1.19,2.34-.31,3A18.4,18.4,0,0,1,264.6-289a39,39,0,0,1-12.73.25,17.62,17.62,0,0,1-4-1.14c-1.82-.8-1.9-2.18-0.34-3.46a10.9,10.9,0,0,1,5.32-2.1c1.77-.29,3.56-0.41,5.35-0.6" transform="translate(-231.99 335.86)" style="fill:#752f8a"/><path d="M346.69-252.52l5.22-8.37c5.08-8.17,5.06-16.62.47-24.78-4.81-8.54-12.85-12.49-22.42-12.54-17.44-.08-27.85,13.66-23.9,30.72,0.32,1.39-1,3.16-1.56,4.75-1.3-1.12-3.31-2-3.79-3.39-6-17.12,7.28-36.19,25.38-37.6,17.78-1.38,30.44,9.64,33.82,20.85,3.33,11.05.74,20.8-6.2,29.48-1.19,1.49-4.26,1.47-6.46,2.15l-0.56-1.28" transform="translate(-231.99 335.86)" style="fill:#fff"/><path d="M366.32-231.53a16,16,0,0,1-15.88,16.18,16.17,16.17,0,0,1-16.35-16.21,16.32,16.32,0,0,1,16.17-16,16.1,16.1,0,0,1,16.05,16.07m-13.79,2.33c2.28,0,4,.25,5.51-0.09,1-.22,1.75-1.32,2.61-2-0.91-.8-1.72-2-2.77-2.28-1.52-.39-3.21-0.1-5.37-0.1,0-2.22.26-4-.1-5.7-0.2-.92-1.46-1.62-2.23-2.42-0.74.83-1.93,1.57-2.12,2.52a29.5,29.5,0,0,0-.1,5.64c-2.33,0-4.15-.26-5.82.11-0.9.2-1.56,1.49-2.32,2.29,0.75,0.68,1.41,1.77,2.26,2a40.49,40.49,0,0,0,5.88.44c0,2-.27,3.74.1,5.3,0.22,0.94,1.42,1.65,2.18,2.47,0.76-.81,2-1.52,2.18-2.46,0.37-1.55.1-3.24,0.1-5.64" transform="translate(-231.99 335.86)" style="fill:#752f8a"/><path d="M321.76-241a42.93,42.93,0,0,0,1.91-4,23.15,23.15,0,0,1,7-10.44c1.78-1.48,2.51-5.05,2.4-7.62-0.06-1.47-2.58-3.47-4.36-4-1.43-.43-3.4,1.07-5.17,1.56a20.76,20.76,0,0,1-3.23.39c0.1-1.22-.25-2.77.36-3.6,3.17-4.28,10.93-4.06,14.67.25,4,4.57,3.74,12-1.2,16a21.62,21.62,0,0,0-6.83,10,16.87,16.87,0,0,1-1.42,3c-2.58,4.26-7.43,4.46-9.36-.13-1.41-3.36-1.24-7.44-1.43-11.21,0-.73,1.51-1.54,2.33-2.32,0.63,1,1.67,2,1.81,3.12,0.38,3,.39,6,0.54,9h2" transform="translate(-231.99 335.86)" style="fill:#fff"/><path d="M349.28-272.53a95.75,95.75,0,0,1-3.11,9.74c-0.49,1.14-2.3,1.72-3.51,2.56a17.38,17.38,0,0,1-.36-4.23c0.5-3.22,2-6.43,1.86-9.58-0.4-7.11-6.59-11.93-14.71-12.23-6.3-.24-11.33,4.31-12.86,11.65a7.06,7.06,0,0,1-.31,2,34.71,34.71,0,0,1-2.38,3.22c-0.66-1.31-2-2.67-1.87-3.91,1.14-14.81,15.34-22,28.05-14.35a18.31,18.31,0,0,1,9.2,15.12" transform="translate(-231.99 335.86)" style="fill:#fff"/><path d="M332-222.06l2.91,4.51c-6.29,2.88-12.26,3.35-18-.1-5-3-6.65-8-6.2-13.53,0.11-1.35,1.84-2.56,2.82-3.83,0.93,1.14,2.55,2.2,2.69,3.44,1.12,9.43,4.76,12,14.13,9.81,0.4-.09.8-0.14,1.65-0.28" transform="translate(-231.99 335.86)" style="fill:#fff"/><path d="M352.52-229.2c0,2.39.27,4.09-.1,5.64-0.22.94-1.42,1.65-2.18,2.46-0.76-.82-2-1.53-2.18-2.47-0.36-1.56-.1-3.26-0.1-5.3a40.49,40.49,0,0,1-5.88-.44c-0.86-.18-1.52-1.27-2.26-2,0.77-.8,1.42-2.1,2.32-2.29,1.68-.37,3.5-0.11,5.82-0.11a29.5,29.5,0,0,1,.1-5.64c0.2-.95,1.38-1.69,2.13-2.52,0.78,0.8,2,1.49,2.23,2.42,0.36,1.68.1,3.49,0.1,5.7,2.16,0,3.85-.29,5.37.1,1,0.27,1.85,1.49,2.77,2.28-0.86.7-1.64,1.81-2.61,2-1.55.34-3.24,0.09-5.51,0.09" transform="translate(-231.99 335.86)" style="fill:#fff"/></g></g></g></symbol><symbol id="scooter" viewBox="0 0 158.79 150.24"><title>scooter</title><g id="Vector_Smart_Object" data-name="Vector Smart Object"><g style="clip-path:url(#clip-path)"><g style="clip-path:url(#clip-path)"><path d="M282.09-533.61A75.12,75.12,0,0,0,207-458.49a75.13,75.13,0,0,0,75.12,75.12,75.13,75.13,0,0,0,75.12-75.12,75.12,75.12,0,0,0-75.12-75.12m0,138.42a63.3,63.3,0,0,1-63.3-63.3,63.3,63.3,0,0,1,63.3-63.31,63.3,63.3,0,0,1,63.3,63.31,63.3,63.3,0,0,1-63.3,63.3" transform="translate(-205.25 533.61)" style="fill:#fff"/><rect x="133.77" y="98.17" width="2.02" height="5.54" style="fill:#752f8a"/><rect x="350.35" y="-441.29" width="3.89" height="1.22" transform="translate(450.03 568.86) rotate(-71.12)" style="fill:#752f8a"/><rect x="359.03" y="-470.81" width="3.89" height="1.22" transform="translate(483.45 557.36) rotate(-71.08)" style="fill:#752f8a"/><path d="M298.69-412.12a0.51,0.51,0,0,0,.43-0.57L299-413.87a0.5,0.5,0,0,0-.56-0.44h-0.06a7.21,7.21,0,0,0-.45-1.17l0.07,0a0.51,0.51,0,0,0,.12-0.71l-0.68-1a0.5,0.5,0,0,0-.7-0.12l-0.06,0a7.11,7.11,0,0,0-.93-0.82l0-.08a0.51,0.51,0,0,0-.21-0.69l-1-.55a0.5,0.5,0,0,0-.68.22l0,0.08a7.34,7.34,0,0,0-1.39-.44c0-.28,0-0.74-0.3-0.74h-1.18c-0.28,0-.26.5-0.26,0.78v0a8.54,8.54,0,0,0-1.69.4l0,0a0.51,0.51,0,0,0-.69-0.19l-1,.59a0.7,0.7,0,0,0-.13.69h0a3.25,3.25,0,0,0-1,.87,0.54,0.54,0,0,0-.72.16l-0.65,1a0.51,0.51,0,0,0,.11.67,7.1,7.1,0,0,0-.44,1.26,0.5,0.5,0,0,0-.5.46l-0.11,1.19a0.5,0.5,0,0,0,.4.54,7.06,7.06,0,0,0,.2,1.32,0.51,0.51,0,0,0-.24.64l0.45,1.1a0.5,0.5,0,0,0,.65.28,7.31,7.31,0,0,0,.77,1l0,0a0.51,0.51,0,0,0,.06.72L287-406a0.5,0.5,0,0,0,.71-0.06l0-.05a7.14,7.14,0,0,0,1.11.54l0,0.1a0.51,0.51,0,0,0,.38.61l1.15,0.26a0.5,0.5,0,0,0,.6-0.39l0-.13,0.43,0a7.42,7.42,0,0,0,.78,0l0,0.14a0.5,0.5,0,0,0,.62.36L294-405a0.51,0.51,0,0,0,.36-0.62l0-.13a7.24,7.24,0,0,0,1.07-.58l0.09,0.1a0.5,0.5,0,0,0,.71,0L297-407a0.51,0.51,0,0,0,0-.72l-0.07-.08a7.43,7.43,0,0,0,.69-1l0.1,0a0.5,0.5,0,0,0,.64-0.31l0.4-1.12a0.51,0.51,0,0,0-.3-0.65l-0.07,0a7.08,7.08,0,0,0,.14-1.25h0.08Z" transform="translate(-205.25 533.61)" style="fill:#752f8a"/><path d="M358.64-412.12a0.51,0.51,0,0,0,.43-0.57l-0.15-1.18a0.5,0.5,0,0,0-.56-0.44h-0.07a7,7,0,0,0-.45-1.17l0.07,0a0.51,0.51,0,0,0,.12-0.71l-0.68-1a0.5,0.5,0,0,0-.7-0.12l-0.06,0a7.12,7.12,0,0,0-.93-0.82l0-.08a0.51,0.51,0,0,0-.22-0.69l-1-.55a0.5,0.5,0,0,0-.68.22l0,0.08a7.33,7.33,0,0,0-1.39-.44c0-.28,0-0.61-0.32-0.61l-1.26.06c-0.28,0-.27.73-0.27,0.73a5.29,5.29,0,0,0-1.33.31l-0.17,0a0.59,0.59,0,0,0-.76-0.19l-1.06.59a0.52,0.52,0,0,0-.2.69h0a7.3,7.3,0,0,0-.95.87,0.5,0.5,0,0,0-.69.16l-0.64,1a0.51,0.51,0,0,0,.12.67,7,7,0,0,0-.44,1.26,0.5,0.5,0,0,0-.5.46l-0.1,1.19a0.5,0.5,0,0,0,.4.54,7.23,7.23,0,0,0,.2,1.32,0.51,0.51,0,0,0-.24.64l0.45,1.1a0.5,0.5,0,0,0,.64.28,7.24,7.24,0,0,0,.77,1l0,0a0.51,0.51,0,0,0,.06.72l0.9,0.77a0.5,0.5,0,0,0,.71-0.06l0-.05a7.13,7.13,0,0,0,1.11.54l0,0.1a0.51,0.51,0,0,0,.38.61l1.15,0.26a0.5,0.5,0,0,0,.6-0.39l0-.13,0.43,0a7.41,7.41,0,0,0,.78,0l0,0.14a0.5,0.5,0,0,0,.62.36l1.14-.31a0.51,0.51,0,0,0,.36-0.62l0-.13a7.3,7.3,0,0,0,1.07-.58l0.09,0.1a0.5,0.5,0,0,0,.71,0L357-407a0.51,0.51,0,0,0,0-.72l-0.07-.08a7.16,7.16,0,0,0,.69-1l0.1,0a0.5,0.5,0,0,0,.64-0.31l0.4-1.12a0.51,0.51,0,0,0-.3-0.65l-0.07,0a7.08,7.08,0,0,0,.14-1.25h0.08Z" transform="translate(-205.25 533.61)" style="fill:#752f8a"/><path d="M352.61-428.89H330.52c-3.49,0-7.12,2-7.12,5.51v7.59H302.66a10,10,0,0,0-10-7.71l-9.78.21a1.48,1.48,0,0,0-1.56,1.48,1.52,1.52,0,0,0,1.58,1.49h9.78a7,7,0,0,1,7.1,7,1.84,1.84,0,0,0,1.58,1.85c0.13,0,.26.23,0.39,0.23h41.11c0-.5,0-0.65,0-0.7,0-4.88,3.58-9.1,8.46-9.1,3,0,5.87,1.24,6.88,3.53v-5.85c0-3.49-2.07-5.51-5.56-5.51" transform="translate(-205.25 533.61)" style="fill:#752f8a"/><path d="M302.25-474.71c-0.54.54-1.08,1.07-1.61,1.62s-1.06,1.1-1.56,1.68-1,1.15-1.5,1.74c-0.25.29-.49,0.6-0.72,0.9s-0.48.6-.71,0.92c-0.47.62-.91,1.25-1.35,1.89a29.44,29.44,0,0,0-2.37,4.13l-0.65,1.44v0L292-449h3.52l0.49-10a31.83,31.83,0,0,0,3.62-1.94c0.66-.42,1.3-0.83,1.93-1.28,0.32-.21.63-0.44,0.94-0.67s0.62-.45.92-0.69q0.92-.7,1.79-1.43c0.6-.48,1.15-1,1.73-1.5s1.12-1,1.67-1.56l0.13-.13-6.46-6.45Z" transform="translate(-205.25 533.61)" style="fill:#752f8a"/><path d="M310-469.75l-0.2-.25-0.4-.46c-0.18-.22-0.79-0.89-1.27-1.42L306-474.16c-0.51-.5-1.17-1.14-1.38-1.32l-0.45-.41-0.25-.21c-0.12-.09-0.12-0.05-0.14,0l-0.05,0-0.21.19-0.42.39-0.8.76,6.46,6.46,0.68-.67,0.4-.41,0.2-.2,0.05,0s0.06,0,0-.14" transform="translate(-205.25 533.61)" style="fill:#752f8a"/><path d="M315.84-467.43a0.76,0.76,0,0,1-.76.76H303.5a0.76,0.76,0,0,1-.76-0.76,0.76,0.76,0,0,1,.76-0.76h11.59a0.76,0.76,0,0,1,.76.76" transform="translate(-205.25 533.61)" style="fill:#752f8a"/><path d="M303.18-477.86a0.63,0.63,0,0,1-.56-0.34l-3.1-6a0.63,0.63,0,0,1,.27-0.85,0.63,0.63,0,0,1,.85.27l3.1,6a0.63,0.63,0,0,1-.27.85,0.61,0.61,0,0,1-.29.07" transform="translate(-205.25 533.61)" style="fill:#752f8a"/><polygon points="94.67 49.6 94.83 54.17 97.67 55.12 94.67 49.6" style="fill:#752f8a"/><polygon points="97.24 61.01 93.56 54.66 94.97 53.7 95.32 54.22 94.41 54.84 97.78 60.69 97.24 61.01" style="fill:#752f8a"/><path d="M303.53-472.22a0.46,0.46,0,0,1-.46.46,0.46,0.46,0,0,1-.46-0.46,0.46,0.46,0,0,1,.46-0.46,0.46,0.46,0,0,1,.46.46" transform="translate(-205.25 533.61)" style="fill:#752f8a"/><path d="M322-418.81H304.84a11.29,11.29,0,0,0-2.7-3.68l0,0a6.72,6.72,0,0,0-2.21-3.31l-3.12-7.07h-5.68l-4.23,5.61a3.26,3.26,0,0,0-1.34.94h0l-2.64.06a4.48,4.48,0,0,0-4.61,4.47,1.08,1.08,0,0,0,1.26,1h0a1,1,0,0,0,1.25-1,1.92,1.92,0,0,1,2-1.9c0.05,0,.1-0.06.15-0.06l9.73-.08h0a11.09,11.09,0,0,1,9,4.66,9.64,9.64,0,0,1,1.18,2.16l0.31,0.73H322a1.26,1.26,0,0,0,1.26-1.26,1.26,1.26,0,0,0-1.26-1.26" transform="translate(-205.25 533.61)" style="fill:#752f8a"/><rect x="76.84" y="100.69" width="2.52" height="6.05" style="fill:#752f8a"/><path d="M284.61-427.1a2.84,2.84,0,0,0,2.18-2.2,6.11,6.11,0,0,1,1.35.37l0.85-1a8.72,8.72,0,0,0-2.34-.63,2.61,2.61,0,0,0-2-1.65" transform="translate(-205.25 533.61)" style="fill:#752f8a"/><path d="M353.13-438.09a3.54,3.54,0,0,1-3.24,3.66H329.46c-1.85,0-5.55-1.81-5.55-3.66v-0.24c0-1.85,2-3.35,3.82-3.35l21.87,1.26c1.85,0,3.53.24,3.53,2.09v0.24Z" transform="translate(-205.25 533.61)" style="fill:#752f8a"/><path d="M363.65-472.08a2.52,2.52,0,0,1-3.11,1.72l-0.15,0a2.52,2.52,0,0,1-2-2.93l1.54-3.86a2.26,2.26,0,0,1,2.62-1.69c1.39,0.42,1.69,1.65,1.39,2.93Z" transform="translate(-205.25 533.61)" style="fill:#752f8a"/><path d="M355.3-468.55a0.72,0.72,0,0,0-.42-0.28c-1.46-.26-3.66,5.29-4.91,12.39s-1.1,13.06.36,13.32a0.74,0.74,0,0,0,.49-0.12Z" transform="translate(-205.25 533.61)" style="fill:#752f8a"/><path d="M351-440.62a0.43,0.43,0,0,0,.2-0.29c0.06-1-5.24-2.06-11.82-2.42s-12,.15-12,1.13a0.44,0.44,0,0,0,.17.31Z" transform="translate(-205.25 533.61)" style="fill:#752f8a"/><path d="M353.74-452.41h0l0.15,0h0l-0.15,0" transform="translate(-205.25 533.61)" style="fill:#752f8a"/><path d="M359.31-470.35c-1.53-.34-3.46.31-4,3l-1.66,9.77h0.6c1.84,0,2.43.38,2.43,2.32v0.08c0,1.94-.94,3.65-2.75,3.65h0l-1.32-.25-1.23,7.07c-0.34,1.53,0,3,1.52,3.37s2.42-.64,2.76-2.17L362.09-467c0.34-1.53-1.25-3.06-2.78-3.4" transform="translate(-205.25 533.61)" style="fill:#752f8a"/><path d="M352.63-452.53l1.23,0.1a2.54,2.54,0,0,0,2.29-2.78v-0.08c0-1.55-.38-1.82-1.93-1.82H339c-1.55,0-4-.36-4,1.19v0.08c0,1.55,1.79,2.17,3.34,2.17l14.07,1.14h0.22Z" transform="translate(-205.25 533.61)" style="fill:#752f8a"/><path d="M352.67-452.53h0l1.07,0.1,0.15,0Z" transform="translate(-205.25 533.61)" style="fill:#752f8a"/><polygon points="147.27 81.09 147.42 81.1 147.42 81.1 147.27 81.09" style="fill:#752f8a"/><path d="M352.63-452.51l1.07,0.1h0l-1.08-.1h0Z" transform="translate(-205.25 533.61)" style="fill:#752f8a"/><path d="M356-442.29l-0.16,0a0.58,0.58,0,0,1-.41-0.71l6.65-24.08a0.59,0.59,0,0,1,.72-0.41,0.58,0.58,0,0,1,.41.71l-6.66,24.08a0.58,0.58,0,0,1-.56.43" transform="translate(-205.25 533.61)" style="fill:#752f8a"/><path d="M343.56-429.9v-1.51H337v1.51l-2.52,0c0,0.22-.06,1-0.06,1h12a9,9,0,0,0-.33-1Z" transform="translate(-205.25 533.61)" style="fill:#752f8a"/><path d="M296.7-434.43h-5.54a0.5,0.5,0,0,0-.5.5,0.5,0.5,0,0,0,.5.5h5.54a0.5,0.5,0,0,0,.5-0.5,0.5,0.5,0,0,0-.5-0.5" transform="translate(-205.25 533.61)" style="fill:#752f8a"/><path d="M296.7-435.94h-5.54a0.5,0.5,0,0,0-.5.5,0.5,0.5,0,0,0,.5.5h5.54a0.5,0.5,0,0,0,.5-0.5,0.5,0.5,0,0,0-.5-0.5" transform="translate(-205.25 533.61)" style="fill:#752f8a"/><path d="M296.7-437.46h-5.54a0.5,0.5,0,0,0-.5.5,0.5,0.5,0,0,0,.5.5h5.54a0.5,0.5,0,0,0,.5-0.5,0.5,0.5,0,0,0-.5-0.5" transform="translate(-205.25 533.61)" style="fill:#752f8a"/><path d="M296.7-439h-5.54a0.5,0.5,0,0,0-.5.5,0.5,0.5,0,0,0,.5.5h5.54a0.5,0.5,0,0,0,.5-0.5,0.5,0.5,0,0,0-.5-0.5" transform="translate(-205.25 533.61)" style="fill:#752f8a"/><path d="M296.7-440.48h-5.54a0.5,0.5,0,0,0-.5.5,0.5,0.5,0,0,0,.5.5h5.54a0.5,0.5,0,0,0,.5-0.5,0.5,0.5,0,0,0-.5-0.5" transform="translate(-205.25 533.61)" style="fill:#752f8a"/><path d="M296.7-442h-5.54a0.5,0.5,0,0,0-.5.5,0.5,0.5,0,0,0,.5.5h5.54a0.5,0.5,0,0,0,.5-0.5,0.5,0.5,0,0,0-.5-0.5" transform="translate(-205.25 533.61)" style="fill:#752f8a"/><path d="M296.7-443.5h-5.54a0.5,0.5,0,0,0-.5.5,0.5,0.5,0,0,0,.5.5h5.54a0.5,0.5,0,0,0,.5-0.5,0.5,0.5,0,0,0-.5-0.5" transform="translate(-205.25 533.61)" style="fill:#752f8a"/><path d="M296.7-445h-5.54a0.5,0.5,0,0,0-.5.5,0.5,0.5,0,0,0,.5.51h5.54a0.5,0.5,0,0,0,.5-0.51,0.5,0.5,0,0,0-.5-0.5" transform="translate(-205.25 533.61)" style="fill:#752f8a"/><path d="M296.7-446.52h-5.54a0.5,0.5,0,0,0-.5.5,0.5,0.5,0,0,0,.5.5h5.54a0.5,0.5,0,0,0,.5-0.5,0.5,0.5,0,0,0-.5-0.5" transform="translate(-205.25 533.61)" style="fill:#752f8a"/><path d="M296.7-448h-5.54a0.5,0.5,0,0,0-.5.5,0.5,0.5,0,0,0,.5.5h5.54a0.5,0.5,0,0,0,.5-0.5,0.5,0.5,0,0,0-.5-0.5" transform="translate(-205.25 533.61)" style="fill:#752f8a"/><path d="M291.16-448.54h5.54a0.5,0.5,0,0,0,.5-0.5,0.5,0.5,0,0,0-.5-0.5h-5.54a0.5,0.5,0,0,0-.5.5,0.5,0.5,0,0,0,.5.5" transform="translate(-205.25 533.61)" style="fill:#752f8a"/><path d="M291.6-450.05l-0.2-13.6H279.29l0.28,2.45v0.07h0l1.28,11.09H291.6Zm-3.45-4h-1l-0.42-5.54h1Zm0.08-5.54h1l0.42,5.54h-1Zm-1.56,6,0.08,1h-1l-0.08-1h1Zm-1-.5-0.42-5.54h1l0.42,5.54h-1Zm1.55,0.5h1l0.08,1h-1Zm-0.5-6.55-0.08-1h1l0.08,1h-1Zm-0.51,0h-1l-0.08-1h1Zm-1.51,0h-1l-0.08-1h1Zm0,0.5,0.42,5.54h-1l-0.42-5.54h1Zm0.46,6,0.08,1h-1l-0.08-1h1Zm-1.44,1h-1l-0.08-1h1Zm0,0.5,0.11,1.51h-1l-0.11-1.51h1Zm0.51,0h1l0.11,1.51h-1Zm1.51,0h1l0.11,1.51h-1Zm1.51,0h1l0.11,1.51h-1Zm1.51,0h1l0.12,1.51h-1Zm0-.5-0.08-1h1l0.08,1h-1Zm1.44-1H291v1h-0.78Zm0-.5-0.42-5.54H291l0.08,5.54h-0.87Zm-0.46-6-0.08-1h1.31l0,1h-1.25Zm-0.51,0h-1l-0.08-1h1Zm-1.12-1.51L288-463.15h1l0.11,1.51h-1Zm-0.5,0h-1l-0.12-1.51h1Zm-1.51,0h-1l-0.11-1.51h1Zm-1.51,0h-1l-0.12-1.51h1Zm-1.51,0h-1l-0.11-1.51h1Zm0,0.5,0.08,1h-1l-0.08-1h1Zm0.12,1.51,0.42,5.54h-1l-0.42-5.54h1Zm-1.09,5.54H280.9l-0.64-5.54h1.42Zm0,0.5,0.08,1h-1.14v0.07L281-453.58h1.19Zm-1,1.51h1.13l0.12,1.51h-1.07Zm9.31,1.51-0.11-1.51h0.75l0,1.51h-0.65Zm0.5-11.08h-1.34l-0.11-1.51h1.43Zm-9.52-1.51,0.12,1.51H280l-0.17-1.51h1.56Zm0.15,2,0.08,1H280.2l-0.12-1h1.48Z" transform="translate(-205.25 533.61)" style="fill:#752f8a"/><path d="M291.36-407.71h0A4.27,4.27,0,0,1,287.1-412a4.27,4.27,0,0,1,4.26-4.26,4.27,4.27,0,0,1,4.26,4.26,4.27,4.27,0,0,1-4.26,4.26" transform="translate(-205.25 533.61)" style="fill:#fff"/><path d="M347.29-412.2h0a4.27,4.27,0,0,1,4.49-4,4.27,4.27,0,0,1,4,4.49,4.27,4.27,0,0,1-4.49,4,4.27,4.27,0,0,1-4-4.49" transform="translate(-205.25 533.61)" style="fill:#fff"/><path d="M207.46-492a0.52,0.52,0,0,1,.63.36s1.3,4.69,1.67,5.75a2.79,2.79,0,0,0,1.24,1.36l5.71,3v1.17l-6.18-3.24a3.82,3.82,0,0,1-1.74-1.94c-0.38-1.1-1.64-5.62-1.69-5.81a0.52,0.52,0,0,1,.36-0.64" transform="translate(-205.25 533.61)" style="fill:#752f8a"/><path d="M213.39-487.92l0.17-1.39a0.28,0.28,0,0,1,.31-0.24,0.28,0.28,0,0,1,.24.31l-0.18,1.41v0.06a0.72,0.72,0,0,0,0,.55,1,1,0,0,0,.74.36c1,0.15,2.45.4,3.11,0.53v0.56c-0.6-.11-2.11-0.39-3.19-0.54a1.47,1.47,0,0,1-1.14-.63,1.27,1.27,0,0,1-.1-1" transform="translate(-205.25 533.61)" style="fill:#752f8a"/><path d="M213.85-494.76a0.2,0.2,0,0,1-.1-0.25l0.05-.09a0.27,0.27,0,0,1,.17-0.08l0.06-.47-0.06,0a0.2,0.2,0,0,1-.1-0.25l0.05-.1a0.26,0.26,0,0,1,.17-0.07l0-.37h0.07a0.17,0.17,0,0,1-.16-0.18,0.17,0.17,0,0,1,.2-0.13l1.1,0.13a0.17,0.17,0,0,1,.17.17,0.17,0.17,0,0,1-.2.13h0l-0.1.84,0,0a0.19,0.19,0,0,1,.09.25l0,0.1a0.23,0.23,0,0,1-.13.08l-0.06.48,0,0a0.19,0.19,0,0,1,.08.25l0,0.1a0.24,0.24,0,0,1-.13.08l-0.06.48,0,0a0.19,0.19,0,0,1,.09.25l0,0.1a0.23,0.23,0,0,1-.13.08l-0.06.48,0,0a0.19,0.19,0,0,1,.09.25l0,0.1a0.24,0.24,0,0,1-.13.08l-0.06.48,0,0a0.19,0.19,0,0,1,.08.25l0,0.1a0.23,0.23,0,0,1-.13.08l-0.06.48,0,0a0.19,0.19,0,0,1,.09.25l0,0.1a0.25,0.25,0,0,1-.13.08l-0.14,1.18-1.2-.14,0.2-1.65-0.06,0a0.2,0.2,0,0,1-.1-0.25l0-.1a0.28,0.28,0,0,1,.17-0.07l0.06-.47-0.06,0a0.2,0.2,0,0,1-.1-0.25l0.05-.1a0.25,0.25,0,0,1,.17-0.07l0.06-.47-0.06,0a0.2,0.2,0,0,1-.1-0.25l0.05-.1a0.27,0.27,0,0,1,.17-0.07l0.06-.47-0.06,0a0.2,0.2,0,0,1-.1-0.25l0.05-.1a0.26,0.26,0,0,1,.17-0.07l0.06-.47Z" transform="translate(-205.25 533.61)" style="fill:#752f8a"/><rect x="220.29" y="-494.42" width="5.3" height="1.02" transform="translate(462.93 348.58) rotate(-79.54)" style="fill:#752f8a"/><polygon points="10.32 88.97 12.99 88.97 12.99 37.38 10.32 36.37 10.32 88.97" style="fill:#752f8a"/><rect x="9.99" y="88.97" width="3.33" height="5.33" style="fill:#752f8a"/><rect x="1.67" y="94.3" width="19.65" height="1.33" style="fill:#752f8a"/><path d="M258.2-497.78c0,0.44.17,1.18,0.56,1.18H260a1.39,1.39,0,0,0,.9-1.18V-501a0.81,0.81,0,0,0-.9-0.63h-1.2a0.52,0.52,0,0,0-.56.63v3.18Z" transform="translate(-205.25 533.61)" style="fill:#752f8a"/><polygon points="55.62 34.33 36.11 29.23 10.66 34.33 10.66 31.95 36.03 26.86 55.62 31.95 55.62 34.33" style="fill:#752f8a"/><polygon points="13.15 58.53 13.62 55.43 13.23 55.37 13.48 53.76 13.98 53.84 16.55 42.12 17.89 42.34 16.54 54.24 17.29 54.35 17.03 55.96 16.64 55.9 16.17 58.99 13.15 58.53" style="fill:#752f8a"/><polygon points="53.96 37.35 53.96 36.68 54.29 36.68 54.29 37.35 54.62 37.35 54.62 38.01 53.62 38.01 53.62 37.35 53.96 37.35" style="fill:#752f8a"/><path d="M259.25-500.52a0.42,0.42,0,0,0,.42.42,0.42,0.42,0,0,0,.42-0.42,0.42,0.42,0,0,0-.42-0.42,0.42,0.42,0,0,0-.42.42" transform="translate(-205.25 533.61)" style="fill:#752f8a"/><path d="M222.9-497.21c0,0.54.15,1.28,0.54,1.28h0.18a1.13,1.13,0,0,0,.82-1.13l1-4a0.86,0.86,0,0,0-.82-0.89h-1.2c-0.39,0-.54.23-0.54,0.78v3.94Z" transform="translate(-205.25 533.61)" style="fill:#752f8a"/><path d="M223.59-500.18a0.42,0.42,0,0,0,.42.42,0.42,0.42,0,0,0,.42-0.42,0.42,0.42,0,0,0-.42-0.42,0.43,0.43,0,0,0-.42.42" transform="translate(-205.25 533.61)" style="fill:#752f8a"/><path d="M214.24-497.21c0,0.54,0,1.28.37,1.28h1.2a1.57,1.57,0,0,0,1.1-1.28v-3.94a1,1,0,0,0-1.1-.78h-1.2c-0.39,0-.37.23-0.37,0.78v3.94Z" transform="translate(-205.25 533.61)" style="fill:#752f8a"/><path d="M214.76-500.86a0.42,0.42,0,0,0,.42.43,0.42,0.42,0,0,0,.42-0.43,0.42,0.42,0,0,0-.42-0.42,0.42,0.42,0,0,0-.42.42" transform="translate(-205.25 533.61)" style="fill:#752f8a"/><path d="M217-484.48a0.34,0.34,0,0,0,.34-0.29,0.34,0.34,0,0,0-.29-0.38s-2.6-.34-4.33-0.48a1.2,1.2,0,0,1-.93-0.4,0.89,0.89,0,0,1-.09-0.67v-0.07l0.11-1.75a0.34,0.34,0,0,0-.32-0.36,0.34,0.34,0,0,0-.36.32l-0.11,1.72a1.56,1.56,0,0,0,.19,1.2,1.81,1.81,0,0,0,1.44.69c1.7,0.14,4.27.48,4.29,0.48h0" transform="translate(-205.25 533.61)" style="fill:#752f8a"/><path d="M211.12-495.29a0.25,0.25,0,0,1-.15-0.3l0.06-.12a0.34,0.34,0,0,1,.2-0.1l0-.58-0.08,0a0.25,0.25,0,0,1-.14-0.3l0.06-.12a0.32,0.32,0,0,1,.2-0.1l0-.46h0.09a0.21,0.21,0,0,1-.21-0.21,0.21,0.21,0,0,1,.24-0.18l1.36,0.08a0.21,0.21,0,0,1,.21.21,0.21,0.21,0,0,1-.24.18h0l-0.06,1,0,0a0.23,0.23,0,0,1,.12.3l0,0.12a0.3,0.3,0,0,1-.16.1l0,0.59,0,0a0.23,0.23,0,0,1,.12.3l0,0.12a0.3,0.3,0,0,1-.16.11l0,0.59,0,0a0.23,0.23,0,0,1,.12.3l0,0.12a0.28,0.28,0,0,1-.16.1l0,0.59,0,0a0.23,0.23,0,0,1,.12.3l0,0.12a0.27,0.27,0,0,1-.16.1l0,0.59,0,0a0.23,0.23,0,0,1,.12.3l0,0.12a0.29,0.29,0,0,1-.16.1l0,0.59,0,0a0.23,0.23,0,0,1,.12.3l0,0.12a0.28,0.28,0,0,1-.16.1l-0.09,1.46-1.48-.09,0.12-2-0.08,0a0.25,0.25,0,0,1-.14-0.3l0.06-.12a0.32,0.32,0,0,1,.2-0.1l0-.59-0.08,0a0.25,0.25,0,0,1-.15-0.3l0.06-.12a0.32,0.32,0,0,1,.2-0.1l0-.59L211-493a0.25,0.25,0,0,1-.15-0.3l0.06-.12a0.33,0.33,0,0,1,.2-0.1l0-.59-0.08,0a0.25,0.25,0,0,1-.15-0.3l0.06-.12a0.32,0.32,0,0,1,.2-0.1l0-.59Z" transform="translate(-205.25 533.61)" style="fill:#752f8a"/><path d="M216.32-477h4.25v2.1h1v1.67h-5.34c-0.53,0-.66-0.66-0.66-1.24v-1.63a0.71,0.71,0,0,1,.74-0.88" transform="translate(-205.25 533.61)" style="fill:#752f8a"/><path d="M205.25-491.13a1.62,1.62,0,0,0,1.59,1.65,1.62,1.62,0,0,0,1.59-1.65,1.62,1.62,0,0,0-1.59-1.65,1.62,1.62,0,0,0-1.59,1.65" transform="translate(-205.25 533.61)" style="fill:#752f8a"/><path d="M218.54-475.38a0.59,0.59,0,0,0,.49-0.26,0.6,0.6,0,0,0-.15-0.83l-9-6.21a3.21,3.21,0,0,1-1.23-1.73c-0.28-1.27-1.12-6.76-1.13-6.81a0.59,0.59,0,0,0-.68-0.5,0.59,0.59,0,0,0-.5.68c0,0.23.85,5.58,1.14,6.89a4.4,4.4,0,0,0,1.72,2.46l9,6.21a0.58,0.58,0,0,0,.34.1" transform="translate(-205.25 533.61)" style="fill:#752f8a"/><path d="M215.78-476.4a0.42,0.42,0,0,0,.42.42,0.42,0.42,0,0,0,.42-0.42,0.42,0.42,0,0,0-.42-0.42,0.42,0.42,0,0,0-.42.42" transform="translate(-205.25 533.61)" style="fill:#752f8a"/><path d="M215.78-474.36a0.42,0.42,0,0,0,.42.43,0.42,0.42,0,0,0,.42-0.43,0.42,0.42,0,0,0-.42-0.42,0.42,0.42,0,0,0-.42.42" transform="translate(-205.25 533.61)" style="fill:#752f8a"/><path d="M275.72-487.34a0.83,0.83,0,0,0,.47-0.14,0.85,0.85,0,0,0,.23-1.18c-3.13-4.68-9.89-7.7-17.22-7.7s-14,2.93-17.18,7.63a0.85,0.85,0,0,0,.23,1.18,0.85,0.85,0,0,0,1.18-.23c2.85-4.19,9-6.89,15.77-6.89s13,2.73,15.81,6.95a0.84,0.84,0,0,0,.71.38" transform="translate(-205.25 533.61)" style="fill:#752f8a"/><path d="M275.28-488.3a0.39,0.39,0,0,0,.39.39,0.39,0.39,0,0,0,.39-0.39,0.39,0.39,0,0,0-.39-0.39,0.39,0.39,0,0,0-.39.39" transform="translate(-205.25 533.61)" style="fill:#752f8a"/><path d="M242.33-488.3a0.39,0.39,0,0,0,.39.39,0.39,0.39,0,0,0,.39-0.39,0.39,0.39,0,0,0-.39-0.39,0.39,0.39,0,0,0-.39.39" transform="translate(-205.25 533.61)" style="fill:#752f8a"/><path d="M261.43-454.62a6.74,6.74,0,0,1-1.75.41h-0.41a9.41,9.41,0,0,1-2.32-.42c-2.8-.76-7.22-13.16-8.49-15.54-2.15-3.42-2.77-5.62-2.89-6.92h0c2.32-1.62,8.74,3,13.46,3.19s11.13-4.81,13.45-3.19a1.07,1.07,0,0,1,.29.31,17.75,17.75,0,0,1-2.85,6.61c-1.27,2.38-5.69,14.77-8.49,15.54" transform="translate(-205.25 533.61)" style="fill:#752f8a"/><path d="M245.58-477.08a7.66,7.66,0,0,0,.22,1.23c2.48-1.22,8.66,3.15,13.24,3.32s11.13-4.81,13.45-3.19l0.06,0a8.23,8.23,0,0,0,.23-1.09,1.16,1.16,0,0,0-.29-0.31c-2.32-1.62-8.88,3.36-13.45,3.19s-11.14-4.81-13.46-3.19h0Z" transform="translate(-205.25 533.61)" style="fill:#752f8a"/><path d="M249.07-461.37l0.34,0.81c0.22,0.5.45,1.13,0.69,1.67a22.69,22.69,0,0,1,1,2.26h0c0.33,0.67.67,1.29,1,1.9a0.84,0.84,0,0,1,.21.43h0a6.24,6.24,0,0,0,2.4,2.57c1,0.41,7.16.14,8.23,0,1.26-.15,2.08.29,3.45-1.67a33.55,33.55,0,0,0,3.44-6.73l0.07-.18c0.29-.75.57-1.51,0.83-2.28h0c2.07-6.08,3.09-12.46,2-14.18a17.76,17.76,0,0,1-2.85,6.61c-1.27,2.38-5.69,14.77-8.49,15.54a6.8,6.8,0,0,1-1.75.41h-0.41a9.44,9.44,0,0,1-2.32-.43c-2.8-.76-7.22-13.16-8.49-15.54-2.15-3.42-2.77-5.62-2.89-6.92-2.31,1.63.23,8,3.49,15.71" transform="translate(-205.25 533.61)" style="fill:#752f8a"/><path d="M245.14-476.62a19.42,19.42,0,0,0,2.91,6.57c1.33,2.47,5.92,15.36,8.83,16.16a9.83,9.83,0,0,0,2.41.44l0.43,0a7,7,0,0,0,1.81-.42c2.91-.79,7.5-13.68,8.83-16.16a21.92,21.92,0,0,0,2.74-5.79,2.65,2.65,0,0,0-.33-0.93,17.73,17.73,0,0,1-2.85,6.61c-1.27,2.38-5.69,14.77-8.49,15.54a6.78,6.78,0,0,1-1.75.41h-0.41a9.42,9.42,0,0,1-2.32-.42c-2.8-.76-7.22-13.16-8.49-15.54-2.15-3.42-2.77-5.62-2.89-6.92a1.72,1.72,0,0,0-.44.46" transform="translate(-205.25 533.61)" style="fill:#752f8a"/><path d="M245-478.12c0,0.11,0,.29,0,0.48,0.08,5.85.53,8.68,1.53,9.49l0.09,0,0.49-.9a3.46,3.46,0,0,1-.58-1.61,0.45,0.45,0,0,0,.17,0,0.51,0.51,0,0,0,.5-0.52,41.85,41.85,0,0,0-.89-7.21c-0.42-1.82-2.31-8.52-4-8.52h0a1.67,1.67,0,0,0-1.4,1.05c-0.67,1.61.7,4.18,4.09,7.66m-3.16-7.25a0.7,0.7,0,0,1,.46-0.44c0.46,0.35,1.65,2.76,2.59,6.09-3.3-3.61-3.25-5.14-3.05-5.65" transform="translate(-205.25 533.61)" style="fill:#752f8a"/><path d="M242.55-485.19a0.33,0.33,0,0,0,.33-0.34v-2.38a0.33,0.33,0,0,0-.33-0.34,0.33,0.33,0,0,0-.33.34v2.38a0.33,0.33,0,0,0,.33.34" transform="translate(-205.25 533.61)" style="fill:#752f8a"/><path d="M270.88-469l0.36,0.95a0.5,0.5,0,0,0,.21-0.1c1-.81,1.45-3.64,1.53-9.49,0-.18,0-0.36,0-0.48,3.39-3.48,4.76-6.05,4.09-7.66a1.67,1.67,0,0,0-1.4-1.05h0c-1.64,0-3.54,6.69-4,8.52a41.59,41.59,0,0,0-.89,7.2,0.51,0.51,0,0,0,.49.52,0.47,0.47,0,0,0,.17,0,3.5,3.5,0,0,1-.58,1.61m2.22-10.72c0.94-3.33,2.13-5.74,2.59-6.09a0.7,0.7,0,0,1,.46.44c0.2,0.51.25,2-3.05,5.65" transform="translate(-205.25 533.61)" style="fill:#752f8a"/><path d="M275.52-485.19a0.33,0.33,0,0,0,.33-0.34v-2.38a0.33,0.33,0,0,0-.33-0.34,0.33,0.33,0,0,0-.33.34v2.38a0.33,0.33,0,0,0,.33.34" transform="translate(-205.25 533.61)" style="fill:#752f8a"/><path d="M249.41-460.56c0.22,0.5.45,1,.69,1.58,0.85,0.85,2,2,2.58,2.56a12.63,12.63,0,0,0,3.79,2.34l0.12,0a0.34,0.34,0,0,0,.31-0.22,0.34,0.34,0,0,0-.2-0.44,12.26,12.26,0,0,1-3.57-2.19c-0.94-.9-3.53-3.53-3.56-3.56a0.32,0.32,0,0,0-.18-0.1" transform="translate(-205.25 533.61)" style="fill:#752f8a"/><path d="M251.12-456.82c0.33,0.67.67,1.37,1,2l0.21,0.36v0a10.27,10.27,0,0,0,6.8,2.53h0.16c4.1-.33,5.16-0.76,10.57-8.21l0.07-.15c0.29-.75.57-1.5,0.83-2.27a0.89,0.89,0,0,0-.08.14c-6.73,9.39-7.4,9.49-11.39,9.82h-0.15a9.65,9.65,0,0,1-7.83-4,0.46,0.46,0,0,0-.2-0.21" transform="translate(-205.25 533.61)" style="fill:#752f8a"/></g></g></g></symbol><symbol id="sock" viewBox="0 0 150.24 150.24"><title>sock</title><g id="Vector_Smart_Object" data-name="Vector Smart Object"><g style="clip-path:url(#clip-path)"><g style="clip-path:url(#clip-path)"><path d="M107.11-329.12A75.12,75.12,0,0,0,32-254a75.13,75.13,0,0,0,75.12,75.12A75.13,75.13,0,0,0,182.23-254a75.12,75.12,0,0,0-75.12-75.12m0,138.42A63.3,63.3,0,0,1,43.81-254a63.3,63.3,0,0,1,63.3-63.31A63.3,63.3,0,0,1,170.41-254a63.3,63.3,0,0,1-63.3,63.3" transform="translate(-31.99 329.12)" style="fill:#fff"/><path d="M81.13-317.55s4.35-5.36,9.38-5.36a32,32,0,0,0,8.37-1s13.06-4.69,18.75-3.68a7.7,7.7,0,0,1,6.36,6.36s3,1,3,2-2.34,20.76-2.34,20.76,1.67,0,1.67,2.68-0.33,16.07-1.67,16.41a8.34,8.34,0,0,0-2.34,1l-2,22.43s2.34,0.33,2,4.35-2,13.06-2,13.06l-2,1.34a15.71,15.71,0,0,0,.33,6.7,8.78,8.78,0,0,0,3,4.35,1.18,1.18,0,0,1,1.67-.33c1,0.67,10.38,9,10.38,9v1.34s10.71,5,13.73,7,3.68,3,3.68,3l3,2s2.34-.67,2.34,1.34-4.35,13.06-5.36,14.06-3,6.36-4.35,7.37-9.71,1.67-16.07,0-19.42-9.37-24.11-11-10-5-15.74-6.36S81.13-203,80.46-209.4s3-13.06,2.68-19.08-0.33-12.05-.33-12.05a14.41,14.41,0,0,1-.67-6.36,27.76,27.76,0,0,1,.67-5s-0.67-11.72-1-18.42a125.62,125.62,0,0,0-1.34-12.72s-0.78-1-.44-4.72,0.15-8.57.44-9.15c0.95-1.9,1-.86,1-0.86l-1-13.39,1.67-1Z" transform="translate(-31.99 329.12)" style="fill:#752f8a"/><path d="M120.41-223.55s1.74-3.38,2.9-2.92,9.1,7,9.74,8a3.63,3.63,0,0,1,.58,3.49,4.49,4.49,0,0,1-1.6,1.74l-0.58-.29s-4.5,6.1-5.81,7.85-7,7.56-7.27,8-4.94.44-4.94,0.44l-5.52-5.09,0.29-5.09a60.69,60.69,0,0,1,6.25-8.14c3.63-3.92,6.54-7.12,6.54-7.12Z" transform="translate(-31.99 329.12)" style="fill:#fff"/><path d="M120.41-223.55s1.74-3.38,2.9-2.92,9.1,7,9.74,8a3.63,3.63,0,0,1,.58,3.49,4.49,4.49,0,0,1-1.6,1.74l-0.58-.29s-4.5,6.1-5.81,7.85-7,7.56-7.27,8-4.94.44-4.94,0.44l-5.52-5.09,0.29-5.09a60.69,60.69,0,0,1,6.25-8.14c3.63-3.92,6.54-7.12,6.54-7.12Z" transform="translate(-31.99 329.12)" style="fill:none;stroke:#fff"/><path d="M85-250.29a2.73,2.73,0,0,1-1.45-.87c-0.7-.76-1.45-1.74-1.45-0.29s-0.87,5.23-.73,6.54-0.58,2.62,2.76,5.38,9.74,6.39,14.53,7,8.28,2,13.51-.58,7.7-4.07,8.28-4.94,2-12.64,2-14.39-0.58-3.49-1.16-3.92-0.8-.4-1,0.45-0.62,4.34-.62,4.92a3,3,0,0,1-.29,1.16s-5.23,3.05-10,3.2A56.61,56.61,0,0,1,98-248L94-246.66s-5.38-1.74-6.68-2.47S85-250.29,85-250.29" transform="translate(-31.99 329.12)" style="fill:#fff"/><path d="M85-250.29a2.73,2.73,0,0,1-1.45-.87c-0.7-.76-1.45-1.74-1.45-0.29s-0.87,5.23-.73,6.54-0.58,2.62,2.76,5.38,9.74,6.39,14.53,7,8.28,2,13.51-.58,7.7-4.07,8.28-4.94,2-12.64,2-14.39-0.58-3.49-1.16-3.92-0.8-.4-1,0.45-0.62,4.34-.62,4.92a3,3,0,0,1-.29,1.16s-5.23,3.05-10,3.2A56.61,56.61,0,0,1,98-248L94-246.66s-5.38-1.74-6.68-2.47S85-250.29,85-250.29Z" transform="translate(-31.99 329.12)" style="fill:none;stroke:#fff"/><path d="M82.77-295.77s-3.05-2.18-3.2-1.6a30.44,30.44,0,0,0,0,5.23c0.15,1.74-.73,4.07-0.44,5.38s0.15,4.5,4.36,6.83,16.57,5.23,20.93,5.23,11.19-.29,14.24-1.45,6-1.89,6.54-3.63,1.6-11.33,1.6-14.53,0.44-2.18,0-3.2-2.15-.95-2.15-0.95l-0.32,4.58s-10.9,4.36-22.38,3.05a67,67,0,0,1-19.18-4.94" transform="translate(-31.99 329.12)" style="fill:#fff"/><path d="M82.77-295.77s-3.05-2.18-3.2-1.6a30.44,30.44,0,0,0,0,5.23c0.15,1.74-.73,4.07-0.44,5.38s0.15,4.5,4.36,6.83,16.57,5.23,20.93,5.23,11.19-.29,14.24-1.45,6-1.89,6.54-3.63,1.6-11.33,1.6-14.53,0.44-2.18,0-3.2-2.15-.95-2.15-0.95l-0.32,4.58s-10.9,4.36-22.38,3.05A67,67,0,0,1,82.77-295.77Z" transform="translate(-31.99 329.12)" style="fill:none;stroke:#fff"/></g></g></g></symbol><symbol id="walker" viewBox="0 0 150.24 151.01"><title>walker</title><g id="Vector_Smart_Object" data-name="Vector Smart Object"><g style="clip-path:url(#clip-path)"><g style="clip-path:url(#clip-path)"><path d="M-90.64-312.65a75.12,75.12,0,0,0-75.12,75.12A75.13,75.13,0,0,0-90.64-162.4a75.13,75.13,0,0,0,75.12-75.12,75.12,75.12,0,0,0-75.12-75.12m0,138.42a63.3,63.3,0,0,1-63.3-63.3,63.3,63.3,0,0,1,63.3-63.31,63.3,63.3,0,0,1,63.3,63.31,63.3,63.3,0,0,1-63.3,63.3" transform="translate(165.76 312.65)" style="fill:#fff"/><path d="M-64.92-189.66c-0.35-3.49-4.34-7-4.86-7s-1.91-.16-1.91-0.16l-1-16.2s0.17,0,.17-0.79a6.14,6.14,0,0,0-.35-1.75l-0.52-.16-0.87-13a1.14,1.14,0,0,0,.69-1.27,1.93,1.93,0,0,0-.69-1.59l-1.39-17.31a2.08,2.08,0,0,0,.35-1,2.38,2.38,0,0,0-.35-1.59l-0.52-1.11A45.51,45.51,0,0,0-77.6-261a8.79,8.79,0,0,0-4.34-5.4,15,15,0,0,0-2.43-.79s-0.87-1.59-2.26-1.43-3.13-1-4.52-1-2.78-.48-3.3-0.16a2,2,0,0,0-1.22,1.59c0,0.79-1,1.59-1.22,3.49s-0.17,5.24-.17,5.24l-12.51,1.59s-18.76,2.86-21.36,2.86-4.69.48-5.21,0.16l-0.52-.32a16.94,16.94,0,0,0-3-4,5.84,5.84,0,0,0-2.6-1.27s0.69-.63-1.22-1.27-2.78-.16-4.34-1.11a2.61,2.61,0,0,0-3-.32,1.86,1.86,0,0,0-1.56,1.59v0.64s-1.22,1.27-1,5.24,1.74,38.27,1.74,38.27a3.3,3.3,0,0,0-.35,1.43,2.3,2.3,0,0,0,.35,1.27l0.87,22.55s0.38,1,1.91.63,1.39-1.11,1.39-1.11l-0.69-22.39-0.69-8.73s5.56,4.13,7.47,5.72,4,3,4.69,4.92a35.08,35.08,0,0,1,1.22,6.83l3.3,30.17s-1.22-2.06-3-2.06-3.82,2.86-1.74,9.53c1.76,5.65,3.77,7,6.08,6.19,2.78-1,1.39-6.83,1.39-6.83s1.91-.16,1.91-1.27-4.69-45.73-4.69-45.73a5,5,0,0,0,.17-2.7l-0.52-.32-0.69-9.21a62.14,62.14,0,0,0,11.12-.16c6.25-.64,25.19-4.45,25.19-4.45l0.35,27.15a1.08,1.08,0,0,0,1.39.63,1.51,1.51,0,0,0,1.39-1.11l0.17-27.31,1.91-.48s9.38,4.76,10.77,5.72,2.61,1.91,3,3.65,3.47,37.16,3.47,37.16l0.87,0.63h0.69s1.39,3.33,4.17,3.65,4.25-2.07,3.82-6.35M-142-221.89c-2.26-1.75-5.56-4.92-6.25-4.92H-149l-1-27.95a6.93,6.93,0,0,1,.17-2.54,6.66,6.66,0,0,0,.52-1.27s2.61,1.11,3.3,1.27c-1.22-1,.69.16,0,0a7.76,7.76,0,0,0,2.26,1.27l0.87,0.79a4.3,4.3,0,0,1,2.08,1.43,29.48,29.48,0,0,1,1.74,5.24l0.52,6.19a2.29,2.29,0,0,0-.35,1.75,2.81,2.81,0,0,0,.69,1.59l1.91,22.07s-3.47-3.18-5.73-4.92m20.67-10.32c-5.91.32-5.56,0.48-8.16,0.32s-4-.32-4-0.32l-0.69-7.15a0.56,0.56,0,0,0,.69-0.64,3.86,3.86,0,0,0-.17-2.06,1.15,1.15,0,0,0-.87-0.48s-0.17-5.24-.35-6.67a12.76,12.76,0,0,0-.87-3,6.11,6.11,0,0,0,3.65.48l34.91-4.76,0.35,19.69s-18.58,4.29-24.49,4.6m27.27-31.92c0.35-1,1-1.59,1.91-1.27a5.47,5.47,0,0,0,1.91.64,5.54,5.54,0,0,0,1.56-.32A1.73,1.73,0,0,0-87.33-264a2.4,2.4,0,0,0,1.74,0h0.52a1.05,1.05,0,0,1-.35,1.27c-0.69.64,0.35,1.59,0.35,1.59l-9,1.27s-0.35-3.33,0-4.29m1.56,26.84a1.59,1.59,0,0,0-1.39-.32c-0.52.32-.17-19.85-0.17-19.85l9.55-1.11a2.43,2.43,0,0,0,2.08-.48,4.93,4.93,0,0,0,1.22-1.75,61.27,61.27,0,0,1,1.56,6.19,10.85,10.85,0,0,1,.17,3.18s-1,.64-0.69,1.43,0.52,1.27.52,1.27l0.69,8.26a36.21,36.21,0,0,1-6.77,1.9c-4.17.79-6.77,1.27-6.77,1.27m10.77,5.56c-2.43-1.43-6.08-3.18-6.08-3.18s5.73-1.11,7.12-1.43S-78.3-237-78.3-237l0.52,8.1a26.07,26.07,0,0,0-4-2.86" transform="translate(165.76 312.65)" style="fill:#752f8a"/><path d="M-64.92-189.66c-0.35-3.49-4.34-7-4.86-7s-1.91-.16-1.91-0.16l-1-16.2s0.17,0,.17-0.79a6.14,6.14,0,0,0-.35-1.75l-0.52-.16-0.87-13a1.14,1.14,0,0,0,.69-1.27,1.93,1.93,0,0,0-.69-1.59l-1.39-17.31a2.08,2.08,0,0,0,.35-1,2.38,2.38,0,0,0-.35-1.59l-0.52-1.11A45.51,45.51,0,0,0-77.6-261a8.79,8.79,0,0,0-4.34-5.4,15,15,0,0,0-2.43-.79s-0.87-1.59-2.26-1.43-3.13-1-4.52-1-2.78-.48-3.3-0.16a2,2,0,0,0-1.22,1.59c0,0.79-1,1.59-1.22,3.49s-0.17,5.24-.17,5.24l-12.51,1.59s-18.76,2.86-21.36,2.86-4.69.48-5.21,0.16l-0.52-.32a16.94,16.94,0,0,0-3-4,5.84,5.84,0,0,0-2.6-1.27s0.69-.63-1.22-1.27-2.78-.16-4.34-1.11a2.61,2.61,0,0,0-3-.32,1.86,1.86,0,0,0-1.56,1.59v0.64s-1.22,1.27-1,5.24,1.74,38.27,1.74,38.27a3.3,3.3,0,0,0-.35,1.43,2.3,2.3,0,0,0,.35,1.27l0.87,22.55s0.38,1,1.91.63,1.39-1.11,1.39-1.11l-0.69-22.39-0.69-8.73s5.56,4.13,7.47,5.72,4,3,4.69,4.92a35.08,35.08,0,0,1,1.22,6.83l3.3,30.17s-1.22-2.06-3-2.06-3.82,2.86-1.74,9.53c1.76,5.65,3.77,7,6.08,6.19,2.78-1,1.39-6.83,1.39-6.83s1.91-.16,1.91-1.27-4.69-45.73-4.69-45.73a5,5,0,0,0,.17-2.7l-0.52-.32-0.69-9.21a62.14,62.14,0,0,0,11.12-.16c6.25-.64,25.19-4.45,25.19-4.45l0.35,27.15a1.08,1.08,0,0,0,1.39.63,1.51,1.51,0,0,0,1.39-1.11l0.17-27.31,1.91-.48s9.38,4.76,10.77,5.72,2.61,1.91,3,3.65,3.47,37.16,3.47,37.16l0.87,0.63h0.69s1.39,3.33,4.17,3.65S-64.5-185.38-64.92-189.66ZM-142-221.89c-2.26-1.75-5.56-4.92-6.25-4.92H-149l-1-27.95a6.93,6.93,0,0,1,.17-2.54,6.66,6.66,0,0,0,.52-1.27s2.61,1.11,3.3,1.27c-1.22-1,.69.16,0,0a7.76,7.76,0,0,0,2.26,1.27l0.87,0.79a4.3,4.3,0,0,1,2.08,1.43,29.48,29.48,0,0,1,1.74,5.24l0.52,6.19a2.29,2.29,0,0,0-.35,1.75,2.81,2.81,0,0,0,.69,1.59l1.91,22.07S-139.79-220.15-142-221.89Zm20.67-10.32c-5.91.32-5.56,0.48-8.16,0.32s-4-.32-4-0.32l-0.69-7.15a0.56,0.56,0,0,0,.69-0.64,3.86,3.86,0,0,0-.17-2.06,1.15,1.15,0,0,0-.87-0.48s-0.17-5.24-.35-6.67a12.76,12.76,0,0,0-.87-3,6.11,6.11,0,0,0,3.65.48l34.91-4.76,0.35,19.69S-115.47-232.53-121.37-232.22Zm27.27-31.92c0.35-1,1-1.59,1.91-1.27a5.47,5.47,0,0,0,1.91.64,5.54,5.54,0,0,0,1.56-.32A1.73,1.73,0,0,0-87.33-264a2.4,2.4,0,0,0,1.74,0h0.52a1.05,1.05,0,0,1-.35,1.27c-0.69.64,0.35,1.59,0.35,1.59l-9,1.27S-94.45-263.18-94.1-264.13Zm1.56,26.84a1.59,1.59,0,0,0-1.39-.32c-0.52.32-.17-19.85-0.17-19.85l9.55-1.11a2.43,2.43,0,0,0,2.08-.48,4.93,4.93,0,0,0,1.22-1.75,61.27,61.27,0,0,1,1.56,6.19,10.85,10.85,0,0,1,.17,3.18s-1,.64-0.69,1.43,0.52,1.27.52,1.27l0.69,8.26a36.21,36.21,0,0,1-6.77,1.9C-89.94-237.77-92.54-237.3-92.54-237.3Zm10.77,5.56c-2.43-1.43-6.08-3.18-6.08-3.18s5.73-1.11,7.12-1.43S-78.3-237-78.3-237l0.52,8.1A26.07,26.07,0,0,0-81.77-231.74Z" transform="translate(165.76 312.65)" style="fill:none;stroke:#752f8a"/><path d="M-41.81-296.84s4.4-3.19,5.71-4.18a26.25,26.25,0,0,1,3.41-2.64c1-.44,3.3-1.65,4.62-0.33s1.54,3.85,1.43,4.95,0.11,2.09-.88,2.31-3.3,1.43-5.61,2.2-6.37,1.87-6.37,1.87a2.51,2.51,0,0,1-.77,2.2c-1,.77-2.64-0.44-2.64-0.44s-2.53,3.41-2.64,5.93c-0.09,2,3.3,7.36,4.95,9.89s2.53,3.63,2.31,7.47-0.77,26.27-.77,26.27a8.13,8.13,0,0,1,.66,1.21,3,3,0,0,1,.44,1.76,1.38,1.38,0,0,1-.55,1l-0.22.33L-38.84-234a1.28,1.28,0,0,1,1.32.55,54.38,54.38,0,0,0,4.29,3.74l0.33,0.22s4.4-2.2,5.82-1.87a2.69,2.69,0,0,1,1.87,1.65,1.1,1.1,0,0,1,.66,1.1c0,0.88.22,2.09-.11,2.42a2.11,2.11,0,0,1-1.76.66,1.64,1.64,0,0,1-1.43-1.32v-1.32a2.08,2.08,0,0,1,.33-1,3.33,3.33,0,0,1,.55-0.77s-1.1.44-2.64,0.88-4.62,1.76-4.62,1.76l-7.36,5.72s-4.18,5.06-4.73,6.48-0.88,2.42-.88,2.42a8.21,8.21,0,0,1,.66,2.42A1.81,1.81,0,0,1-49-208.59a1.68,1.68,0,0,1-1.32-2,3.9,3.9,0,0,0,.44-1,2.82,2.82,0,0,1,.44-1A11.36,11.36,0,0,1-48-216.06c1-1.43,4.18-5.71,4.18-5.71s-4.18-3.41-4.62-4l-0.44-.55-9.34.11a2.31,2.31,0,0,0-1.32.22,1,1,0,0,0-.55.77,7.86,7.86,0,0,1,.55,1.87,1.76,1.76,0,0,1-1.65,1.87,1.93,1.93,0,0,1-1.76-1.76,18.91,18.91,0,0,1,.44-2l0.44-.22s0.77-1.87,1.87-2.2,11.65-.33,11.65-0.33l6.59-4.62,0.66-35.72s0.33-1.54-1.32-4.07S-48.4-281-48.73-284.2s1.43-5.93,1.87-6.81a14.31,14.31,0,0,1,2-2.42,3,3,0,0,1,.55-3.3,1.7,1.7,0,0,1,2.53-.11" transform="translate(165.76 312.65)" style="fill:#752f8a"/><path d="M-67.39-191c0.95,2.53.62,5-.73,5.49s-3.21-1.13-4.16-3.66-0.62-5,.73-5.49,3.21,1.13,4.16,3.66" transform="translate(165.76 312.65)" style="fill:#fff"/><path d="M-130.81-170.27c0.95,2.53.62,5-.73,5.49s-3.21-1.13-4.16-3.66-0.62-5,.73-5.49,3.21,1.13,4.16,3.66" transform="translate(165.76 312.65)" style="fill:#fff"/></g></g></g></symbol></svg>