<svg id="Layer_1" data-name="Layer 1" xmlns="http://www.w3.org/2000/svg" viewBox="0 0 474.38 196.63"><title>logo</title><path d="M85.63,446.7v15H84.75v-7.29H76.17v7.29H75.29v-15h0.88v7h8.58v-7h0.88Z" transform="translate(-73.53 -293.41)" style="fill:#fff;stroke:#fff;stroke-miterlimit:10;stroke-width:0.5px"/><path d="M96.13,457c0,2.5,1.21,4.19,3.92,4.19s3.74-1.48,3.74-2.73h0.88v0.08c0,1.46-1.36,3.39-4.62,3.39-3.41,0-4.84-2.31-4.84-5.1v-0.38c0-2.79,1.41-5.1,4.73-5.1s4.73,2.31,4.73,5.1V457H96.13Zm0-.73h7.61c-0.07-2.5-1.25-4.19-3.81-4.19S96.17,453.74,96.13,456.24Z" transform="translate(-73.53 -293.41)" style="fill:#fff;stroke:#fff;stroke-miterlimit:10;stroke-width:0.5px"/><path d="M121.17,460.17a5.36,5.36,0,0,1-4.29,1.73c-2,0-3.3-1.06-3.3-2.69V459c0-2.21,2-2.81,3.7-3l3.78-.52v-0.38c0-2-.73-3-3.08-3-2.53,0-3.08,1.29-3.08,2.83H114V454.7c0-1.46.66-3.39,4-3.39,3,0,4,1.58,4,3.75v3.75l0.11,2.89h-0.66Zm-0.11-.92v-3.08l-3.85.56c-1.65.25-2.75,1-2.75,2.29v0.19c0,1,.77,2,2.53,2A4.42,4.42,0,0,0,121.06,459.24Z" transform="translate(-73.53 -293.41)" style="fill:#fff;stroke:#fff;stroke-miterlimit:10;stroke-width:0.5px"/><path d="M131.85,446.31h0.88v15.39h-0.88V446.31Z" transform="translate(-73.53 -293.41)" style="fill:#fff;stroke:#fff;stroke-miterlimit:10;stroke-width:0.5px"/><path d="M148.58,451.51v0.73h-4V459c0,1.73.81,2.15,2.42,2.15a4.82,4.82,0,0,0,1.32-.17v0.71a4.85,4.85,0,0,1-1.54.19c-1.76,0-3.08-.77-3.08-2.79v-6.87h-1.87v-0.73h1.87v-2.89h0.88v2.89h4Z" transform="translate(-73.53 -293.41)" style="fill:#fff;stroke:#fff;stroke-miterlimit:10;stroke-width:0.5px"/><path d="M158.7,452.85a4.71,4.71,0,0,1,3.85-1.54c2.2,0,3.52,1.25,3.52,3.17v7.22h-0.88v-7.12c0-1.83-1.21-2.54-2.86-2.54a4.1,4.1,0,0,0-3.63,1.77v7.89h-0.88V446.31h0.88v6.54Z" transform="translate(-73.53 -293.41)" style="fill:#fff;stroke:#fff;stroke-miterlimit:10;stroke-width:0.5px"/><path d="M179.76,446.7c2.93,0,5.13,1.17,5.13,3.64v0.39c0,1.77-1.14,2.81-2.86,3.23,2,0.4,3.3,1.54,3.3,3.52v0.38c0,2.56-2.2,3.85-5.13,3.85h-4.33v-15h3.89Zm-3,.73v6.2h3.12c2.27,0,4.09-.85,4.09-2.94v-0.31c0-2.1-1.83-2.94-4.09-2.94h-3.12Zm0,6.93V461h3.56c2.27,0,4.09-1,4.09-3.16v-0.31c0-2.19-1.83-3.16-4.09-3.16h-3.56Z" transform="translate(-73.53 -293.41)" style="fill:#fff;stroke:#fff;stroke-miterlimit:10;stroke-width:0.5px"/><path d="M199.19,451.33V452H199a3.75,3.75,0,0,0-3.3,1.77v7.89h-0.88v-7.31l-0.11-2.89h0.66l0.2,1.44a3.87,3.87,0,0,1,3.32-1.64Z" transform="translate(-73.53 -293.41)" style="fill:#fff;stroke:#fff;stroke-miterlimit:10;stroke-width:0.5px"/><path d="M209.65,448.72h-1.32v-1.15h1.32v1.15Zm-1.1,2.79h0.88v10.2h-0.88v-10.2Z" transform="translate(-73.53 -293.41)" style="fill:#fff;stroke:#fff;stroke-miterlimit:10;stroke-width:0.5px"/><path d="M226.92,452.78v-6.46h0.88v12.51l0.11,2.89h-0.66L227,460.26a4,4,0,0,1-3.52,1.64c-3.19,0-4.51-2.31-4.51-5.1v-0.38c0-2.79,1.32-5.1,4.51-5.1A4.08,4.08,0,0,1,226.92,452.78Zm0,1a3.88,3.88,0,0,0-3.3-1.77c-2.49,0-3.7,1.71-3.7,4.37v0.38c0,2.66,1.21,4.37,3.7,4.37a3.88,3.88,0,0,0,3.3-1.77v-5.58Z" transform="translate(-73.53 -293.41)" style="fill:#fff;stroke:#fff;stroke-miterlimit:10;stroke-width:0.5px"/><path d="M245.08,459.68a4.1,4.1,0,0,1-3.41,1.44c-3.19,0-4.51-2.21-4.51-4.71V456c0-2.5,1.32-4.71,4.51-4.71a4,4,0,0,1,3.52,1.64l0.22-1.44h0.66L246,454.39v7.5c0,2.12-1.1,3.85-4.29,3.85s-4.29-1.73-4.29-3.85v-0.19h0.88c0,2.25,1,3.31,3.41,3.31s3.41-1.19,3.41-3.21v-2.12Zm-3.3-7.64c-2.49,0-3.7,1.62-3.7,4v0.38c0,2.37,1.21,4,3.7,4a3.88,3.88,0,0,0,3.3-1.77v-4.81A3.88,3.88,0,0,0,241.78,452Z" transform="translate(-73.53 -293.41)" style="fill:#fff;stroke:#fff;stroke-miterlimit:10;stroke-width:0.5px"/><path d="M256.24,457c0,2.5,1.21,4.19,3.92,4.19s3.74-1.48,3.74-2.73h0.88v0.08c0,1.46-1.36,3.39-4.62,3.39-3.41,0-4.84-2.31-4.84-5.1v-0.38c0-2.79,1.41-5.1,4.73-5.1s4.73,2.31,4.73,5.1V457h-8.54Zm0-.73h7.61c-0.07-2.5-1.25-4.19-3.81-4.19S256.28,453.74,256.24,456.24Z" transform="translate(-73.53 -293.41)" style="fill:#fff;stroke:#fff;stroke-miterlimit:10;stroke-width:0.5px"/><path d="M292.51,461.71h-0.66L286.17,448l0.07,3.46v10.2h-0.88v-15h1.14l5.68,13.7,5.68-13.7H299v15h-0.88v-10.2l0.07-3.46Z" transform="translate(-73.53 -293.41)" style="fill:#fff;stroke:#fff;stroke-miterlimit:10;stroke-width:0.5px"/><path d="M309.5,457c0,2.5,1.21,4.19,3.92,4.19s3.74-1.48,3.74-2.73H318v0.08c0,1.46-1.36,3.39-4.62,3.39-3.41,0-4.84-2.31-4.84-5.1v-0.38c0-2.79,1.41-5.1,4.73-5.1s4.73,2.31,4.73,5.1V457H309.5Zm0-.73h7.61c-0.07-2.5-1.25-4.19-3.81-4.19S309.54,453.74,309.5,456.24Z" transform="translate(-73.53 -293.41)" style="fill:#fff;stroke:#fff;stroke-miterlimit:10;stroke-width:0.5px"/><path d="M335,452.78v-6.46h0.88v12.51l0.11,2.89h-0.66l-0.22-1.44a4,4,0,0,1-3.52,1.64c-3.19,0-4.51-2.31-4.51-5.1v-0.38c0-2.79,1.32-5.1,4.51-5.1A4.07,4.07,0,0,1,335,452.78Zm0,1a3.88,3.88,0,0,0-3.3-1.77c-2.49,0-3.7,1.71-3.7,4.37v0.38c0,2.66,1.21,4.37,3.7,4.37a3.88,3.88,0,0,0,3.3-1.77v-5.58Z" transform="translate(-73.53 -293.41)" style="fill:#fff;stroke:#fff;stroke-miterlimit:10;stroke-width:0.5px"/><path d="M346.87,448.72h-1.32v-1.15h1.32v1.15Zm-1.1,2.79h0.88v10.2h-0.88v-10.2Z" transform="translate(-73.53 -293.41)" style="fill:#fff;stroke:#fff;stroke-miterlimit:10;stroke-width:0.5px"/><path d="M361,461.17c2.55,0,3.41-1.42,3.41-2.92h0.88v0.27c0,1.46-1.12,3.39-4.29,3.39-3.32,0-4.73-2.31-4.73-5.1v-0.38c0-2.79,1.41-5.1,4.73-5.1,3.17,0,4.29,2,4.29,3.48v0.37h-0.88c0-1.73-.95-3.12-3.41-3.12-2.62,0-3.81,1.77-3.81,4.37v0.38C357.15,459.4,358.33,461.17,361,461.17Z" transform="translate(-73.53 -293.41)" style="fill:#fff;stroke:#fff;stroke-miterlimit:10;stroke-width:0.5px"/><path d="M381.75,460.17a5.36,5.36,0,0,1-4.29,1.73c-2,0-3.3-1.06-3.3-2.69V459c0-2.21,2-2.81,3.7-3l3.78-.52v-0.38c0-2-.73-3-3.08-3-2.53,0-3.08,1.29-3.08,2.83H374.6V454.7c0-1.46.66-3.39,4-3.39,3,0,4,1.58,4,3.75v3.75l0.11,2.89H382Zm-0.11-.92v-3.08l-3.85.56c-1.65.25-2.75,1-2.75,2.29v0.19c0,1,.77,2,2.53,2A4.42,4.42,0,0,0,381.64,459.24Z" transform="translate(-73.53 -293.41)" style="fill:#fff;stroke:#fff;stroke-miterlimit:10;stroke-width:0.5px"/><path d="M392.43,446.31h0.88v15.39h-0.88V446.31Z" transform="translate(-73.53 -293.41)" style="fill:#fff;stroke:#fff;stroke-miterlimit:10;stroke-width:0.5px"/><path d="M73.53,434.17V293.5h28.13v56.27h65.55V293.41h28.13V434.07l-28.13.09V376H101.66v58.14H73.53Z" transform="translate(-73.53 -293.41)" style="fill:#82bc00"/><path d="M311.2,360q18.47,12.38,19.6,32.17-1.88,39.76-42.48,42.11l-79.15-.09V293.6h74.65q35.54,2.06,37.51,41.36Q320.67,353.71,311.2,360Zm-73.8-10h39.39q17-.28,17.44-17.54-0.47-10.31-17.16-10.88H237.4V350Zm0,62.27h46q19.79-.28,20.26-20.35-0.47-13.5-20-14.07H237.4v34.42Z" transform="translate(-73.53 -293.41)" style="fill:#82bc00"/><path d="M344.43,434.17V293.5h9.38l61,69.4,61-69.4h9.38V434.17H457.06L457,352.58l-42.2,46.89-42.2-46.89v81.59H344.43Z" transform="translate(-73.53 -293.41)" style="fill:#82bc00"/><path d="M498.83,293.41h28V434.17h-28V293.41Z" transform="translate(-73.53 -293.41)" style="fill:#82bc00"/><path d="M543.39,459.05c-1.69.35-2.51-.6-2-2.06a5.73,5.73,0,0,1,4.11-3.17c1.77-.31,2.8.56,2.17,2a6.76,6.76,0,0,1-4.33,3.24h0Zm-6-2.21c-2.73.5-4.39-1-3.93-3.28s3-4.41,5.83-4.81,4.92,1,4.33,3.16-3.49,4.42-6.22,4.92h0ZM507.6,421.15c3.69,0.07,7.23,2.64,7.7,5.74s-2.35,5.73-6.16,5.88-7.12-2.41-7.49-5.72,2.25-6,5.94-5.9h0Zm-10.55-7.49a6.32,6.32,0,0,1,5.77,4.87c0.41,2.54-1.63,4.57-4.49,4.54a5.75,5.75,0,0,1-5.69-4.85,4,4,0,0,1,4.41-4.57h0Z" transform="translate(-73.53 -293.41)" style="fill:#fff;fill-rule:evenodd"/><path d="M442.66,465.22c4.39-.71,7.73-4.41,7.45-8.26s-4.11-6.58-8.52-6.11-7.75,4.17-7.44,8.25,4.12,6.82,8.51,6.11h0Z" transform="translate(-73.53 -293.41)" style="fill:#fff;fill-rule:evenodd"/><path d="M453.45,451.65c5.14-.59,9.06-4.53,8.75-8.78s-4.76-7.49-9.93-7.22-9.09,4.2-8.75,8.78,4.79,7.81,9.92,7.22h0Z" transform="translate(-73.53 -293.41)" style="fill:#fff;fill-rule:evenodd"/><path d="M396.89,489.93a5.35,5.35,0,0,0,4.21-5.37,4,4,0,0,0-4.89-3.53,5.22,5.22,0,0,0-4.21,5.36,3.9,3.9,0,0,0,4.89,3.54h0Z" transform="translate(-73.53 -293.41)" style="fill:#fff;fill-rule:evenodd"/><path d="M407.26,481.76c3.92-.77,6.87-4.32,6.6-7.94s-3.68-6.07-7.62-5.48a7.73,7.73,0,0,0-6.62,7.94c0.29,3.79,3.71,6.25,7.64,5.48h0Z" transform="translate(-73.53 -293.41)" style="fill:#fff;fill-rule:evenodd"/><path d="M432.25,453.4c6-.69,10.55-5.27,10.2-10.22s-5.54-8.72-11.57-8.41-10.59,4.9-10.19,10.23,5.58,9.1,11.56,8.41h0Z" transform="translate(-73.53 -293.41)" style="fill:#752f8a;fill-rule:evenodd"/><path d="M469.08,408.39c-2.57-.12-4.55,1.36-4.42,3.29s2.33,3.53,4.89,3.58,4.55-1.42,4.42-3.28-2.32-3.47-4.89-3.59h0Z" transform="translate(-73.53 -293.41)" style="fill:#752f8a;fill-rule:evenodd"/><path d="M529.17,451.39c3-.44,5.5-2.86,5.55-5.37s-2.49-4.29-5.53-4-5.42,2.65-5.38,5.33,2.41,4.49,5.36,4.05h0Z" transform="translate(-73.53 -293.41)" style="fill:#752f8a;fill-rule:evenodd"/><path d="M463.33,423.51c-4.46,0-7.86,3.07-7.59,6.8s4.09,6.55,8.53,6.3,7.84-3.31,7.59-6.81-4.07-6.32-8.53-6.29h0Z" transform="translate(-73.53 -293.41)" style="fill:#752f8a;fill-rule:evenodd"/><path d="M474.32,416c-3.44-.09-6.07,2-5.88,4.77s3.13,4.89,6.56,4.84,6.06-2.17,5.89-4.76-3.12-4.75-6.57-4.85h0Z" transform="translate(-73.53 -293.41)" style="fill:#752f8a;fill-rule:evenodd"/><path d="M483.54,412.24c-2.21-.1-3.91,1.17-3.8,2.83s2,3,4.2,3.07,3.9-1.22,3.8-2.82-2-3-4.2-3.08h0Z" transform="translate(-73.53 -293.41)" style="fill:#752f8a;fill-rule:evenodd"/><path d="M490.77,410.92c-1.31-.07-2.32.65-2.25,1.59s1.17,1.73,2.48,1.78,2.32-.66,2.26-1.58-1.17-1.72-2.48-1.79h0Z" transform="translate(-73.53 -293.41)" style="fill:#752f8a;fill-rule:evenodd"/><path d="M420.39,481.33a4.59,4.59,0,0,0,3.62-4.61,3.4,3.4,0,0,0-4.19-3,4.48,4.48,0,0,0-3.62,4.6,3.35,3.35,0,0,0,4.2,3h0Z" transform="translate(-73.53 -293.41)" style="fill:#752f8a;fill-rule:evenodd"/><path d="M432,476c3.37-.66,5.9-3.71,5.67-6.82s-3.16-5.21-6.54-4.7a6.63,6.63,0,0,0-5.68,6.82A5.27,5.27,0,0,0,432,476h0Z" transform="translate(-73.53 -293.41)" style="fill:#752f8a;fill-rule:evenodd"/><path d="M520,443.89c4.42-.44,8-3.58,7.8-7s-4.26-6-8.68-5.87-7.67,3.25-7.42,6.94,3.89,6.34,8.3,5.9h0Z" transform="translate(-73.53 -293.41)" style="fill:#752f8a;fill-rule:evenodd"/><path d="M456.55,411.87c-4-.11-7.07,2.37-6.84,5.55s3.64,5.69,7.64,5.64,7.06-2.54,6.86-5.54-3.64-5.53-7.65-5.64h0Z" transform="translate(-73.53 -293.41)" style="fill:#752f8a;fill-rule:evenodd"/><path d="M443.75,420.62c-5.2,0-9.16,3.58-8.84,7.92s4.77,7.63,9.94,7.34S454,432,453.69,428s-4.74-7.36-9.94-7.33h0Z" transform="translate(-73.53 -293.41)" style="fill:#752f8a;fill-rule:evenodd"/><path d="M419.68,469.2c5.12-.83,9-5.13,8.68-9.62s-4.78-7.66-9.92-7.11-9,4.86-8.67,9.61,4.8,7.94,9.91,7.12h0Z" transform="translate(-73.53 -293.41)" style="fill:#752f8a;fill-rule:evenodd"/></svg>