<svg id="Layer_1" data-name="Layer 1" xmlns="http://www.w3.org/2000/svg" xmlns:xlink="http://www.w3.org/1999/xlink" viewBox="0 0 150.24 151.01"><defs><clipPath id="clip-path" transform="translate(165.76 312.65)"><rect x="-165.76" y="-312.65" width="150.24" height="151.01" style="fill:none"/></clipPath></defs><title>walker</title><g id="Vector_Smart_Object" data-name="Vector Smart Object"><g style="clip-path:url(#clip-path)"><g style="clip-path:url(#clip-path)"><path d="M-90.64-312.65a75.12,75.12,0,0,0-75.12,75.12A75.13,75.13,0,0,0-90.64-162.4a75.13,75.13,0,0,0,75.12-75.12,75.12,75.12,0,0,0-75.12-75.12m0,138.42a63.3,63.3,0,0,1-63.3-63.3,63.3,63.3,0,0,1,63.3-63.31,63.3,63.3,0,0,1,63.3,63.31,63.3,63.3,0,0,1-63.3,63.3" transform="translate(165.76 312.65)" style="fill:#fff"/><path d="M-64.92-189.66c-0.35-3.49-4.34-7-4.86-7s-1.91-.16-1.91-0.16l-1-16.2s0.17,0,.17-0.79a6.14,6.14,0,0,0-.35-1.75l-0.52-.16-0.87-13a1.14,1.14,0,0,0,.69-1.27,1.93,1.93,0,0,0-.69-1.59l-1.39-17.31a2.08,2.08,0,0,0,.35-1,2.38,2.38,0,0,0-.35-1.59l-0.52-1.11A45.51,45.51,0,0,0-77.6-261a8.79,8.79,0,0,0-4.34-5.4,15,15,0,0,0-2.43-.79s-0.87-1.59-2.26-1.43-3.13-1-4.52-1-2.78-.48-3.3-0.16a2,2,0,0,0-1.22,1.59c0,0.79-1,1.59-1.22,3.49s-0.17,5.24-.17,5.24l-12.51,1.59s-18.76,2.86-21.36,2.86-4.69.48-5.21,0.16l-0.52-.32a16.94,16.94,0,0,0-3-4,5.84,5.84,0,0,0-2.6-1.27s0.69-.63-1.22-1.27-2.78-.16-4.34-1.11a2.61,2.61,0,0,0-3-.32,1.86,1.86,0,0,0-1.56,1.59v0.64s-1.22,1.27-1,5.24,1.74,38.27,1.74,38.27a3.3,3.3,0,0,0-.35,1.43,2.3,2.3,0,0,0,.35,1.27l0.87,22.55s0.38,1,1.91.63,1.39-1.11,1.39-1.11l-0.69-22.39-0.69-8.73s5.56,4.13,7.47,5.72,4,3,4.69,4.92a35.08,35.08,0,0,1,1.22,6.83l3.3,30.17s-1.22-2.06-3-2.06-3.82,2.86-1.74,9.53c1.76,5.65,3.77,7,6.08,6.19,2.78-1,1.39-6.83,1.39-6.83s1.91-.16,1.91-1.27-4.69-45.73-4.69-45.73a5,5,0,0,0,.17-2.7l-0.52-.32-0.69-9.21a62.14,62.14,0,0,0,11.12-.16c6.25-.64,25.19-4.45,25.19-4.45l0.35,27.15a1.08,1.08,0,0,0,1.39.63,1.51,1.51,0,0,0,1.39-1.11l0.17-27.31,1.91-.48s9.38,4.76,10.77,5.72,2.61,1.91,3,3.65,3.47,37.16,3.47,37.16l0.87,0.63h0.69s1.39,3.33,4.17,3.65,4.25-2.07,3.82-6.35M-142-221.89c-2.26-1.75-5.56-4.92-6.25-4.92H-149l-1-27.95a6.93,6.93,0,0,1,.17-2.54,6.66,6.66,0,0,0,.52-1.27s2.61,1.11,3.3,1.27c-1.22-1,.69.16,0,0a7.76,7.76,0,0,0,2.26,1.27l0.87,0.79a4.3,4.3,0,0,1,2.08,1.43,29.48,29.48,0,0,1,1.74,5.24l0.52,6.19a2.29,2.29,0,0,0-.35,1.75,2.81,2.81,0,0,0,.69,1.59l1.91,22.07s-3.47-3.18-5.73-4.92m20.67-10.32c-5.91.32-5.56,0.48-8.16,0.32s-4-.32-4-0.32l-0.69-7.15a0.56,0.56,0,0,0,.69-0.64,3.86,3.86,0,0,0-.17-2.06,1.15,1.15,0,0,0-.87-0.48s-0.17-5.24-.35-6.67a12.76,12.76,0,0,0-.87-3,6.11,6.11,0,0,0,3.65.48l34.91-4.76,0.35,19.69s-18.58,4.29-24.49,4.6m27.27-31.92c0.35-1,1-1.59,1.91-1.27a5.47,5.47,0,0,0,1.91.64,5.54,5.54,0,0,0,1.56-.32A1.73,1.73,0,0,0-87.33-264a2.4,2.4,0,0,0,1.74,0h0.52a1.05,1.05,0,0,1-.35,1.27c-0.69.64,0.35,1.59,0.35,1.59l-9,1.27s-0.35-3.33,0-4.29m1.56,26.84a1.59,1.59,0,0,0-1.39-.32c-0.52.32-.17-19.85-0.17-19.85l9.55-1.11a2.43,2.43,0,0,0,2.08-.48,4.93,4.93,0,0,0,1.22-1.75,61.27,61.27,0,0,1,1.56,6.19,10.85,10.85,0,0,1,.17,3.18s-1,.64-0.69,1.43,0.52,1.27.52,1.27l0.69,8.26a36.21,36.21,0,0,1-6.77,1.9c-4.17.79-6.77,1.27-6.77,1.27m10.77,5.56c-2.43-1.43-6.08-3.18-6.08-3.18s5.73-1.11,7.12-1.43S-78.3-237-78.3-237l0.52,8.1a26.07,26.07,0,0,0-4-2.86" transform="translate(165.76 312.65)" style="fill:#752f8a"/><path d="M-64.92-189.66c-0.35-3.49-4.34-7-4.86-7s-1.91-.16-1.91-0.16l-1-16.2s0.17,0,.17-0.79a6.14,6.14,0,0,0-.35-1.75l-0.52-.16-0.87-13a1.14,1.14,0,0,0,.69-1.27,1.93,1.93,0,0,0-.69-1.59l-1.39-17.31a2.08,2.08,0,0,0,.35-1,2.38,2.38,0,0,0-.35-1.59l-0.52-1.11A45.51,45.51,0,0,0-77.6-261a8.79,8.79,0,0,0-4.34-5.4,15,15,0,0,0-2.43-.79s-0.87-1.59-2.26-1.43-3.13-1-4.52-1-2.78-.48-3.3-0.16a2,2,0,0,0-1.22,1.59c0,0.79-1,1.59-1.22,3.49s-0.17,5.24-.17,5.24l-12.51,1.59s-18.76,2.86-21.36,2.86-4.69.48-5.21,0.16l-0.52-.32a16.94,16.94,0,0,0-3-4,5.84,5.84,0,0,0-2.6-1.27s0.69-.63-1.22-1.27-2.78-.16-4.34-1.11a2.61,2.61,0,0,0-3-.32,1.86,1.86,0,0,0-1.56,1.59v0.64s-1.22,1.27-1,5.24,1.74,38.27,1.74,38.27a3.3,3.3,0,0,0-.35,1.43,2.3,2.3,0,0,0,.35,1.27l0.87,22.55s0.38,1,1.91.63,1.39-1.11,1.39-1.11l-0.69-22.39-0.69-8.73s5.56,4.13,7.47,5.72,4,3,4.69,4.92a35.08,35.08,0,0,1,1.22,6.83l3.3,30.17s-1.22-2.06-3-2.06-3.82,2.86-1.74,9.53c1.76,5.65,3.77,7,6.08,6.19,2.78-1,1.39-6.83,1.39-6.83s1.91-.16,1.91-1.27-4.69-45.73-4.69-45.73a5,5,0,0,0,.17-2.7l-0.52-.32-0.69-9.21a62.14,62.14,0,0,0,11.12-.16c6.25-.64,25.19-4.45,25.19-4.45l0.35,27.15a1.08,1.08,0,0,0,1.39.63,1.51,1.51,0,0,0,1.39-1.11l0.17-27.31,1.91-.48s9.38,4.76,10.77,5.72,2.61,1.91,3,3.65,3.47,37.16,3.47,37.16l0.87,0.63h0.69s1.39,3.33,4.17,3.65S-64.5-185.38-64.92-189.66ZM-142-221.89c-2.26-1.75-5.56-4.92-6.25-4.92H-149l-1-27.95a6.93,6.93,0,0,1,.17-2.54,6.66,6.66,0,0,0,.52-1.27s2.61,1.11,3.3,1.27c-1.22-1,.69.16,0,0a7.76,7.76,0,0,0,2.26,1.27l0.87,0.79a4.3,4.3,0,0,1,2.08,1.43,29.48,29.48,0,0,1,1.74,5.24l0.52,6.19a2.29,2.29,0,0,0-.35,1.75,2.81,2.81,0,0,0,.69,1.59l1.91,22.07S-139.79-220.15-142-221.89Zm20.67-10.32c-5.91.32-5.56,0.48-8.16,0.32s-4-.32-4-0.32l-0.69-7.15a0.56,0.56,0,0,0,.69-0.64,3.86,3.86,0,0,0-.17-2.06,1.15,1.15,0,0,0-.87-0.48s-0.17-5.24-.35-6.67a12.76,12.76,0,0,0-.87-3,6.11,6.11,0,0,0,3.65.48l34.91-4.76,0.35,19.69S-115.47-232.53-121.37-232.22Zm27.27-31.92c0.35-1,1-1.59,1.91-1.27a5.47,5.47,0,0,0,1.91.64,5.54,5.54,0,0,0,1.56-.32A1.73,1.73,0,0,0-87.33-264a2.4,2.4,0,0,0,1.74,0h0.52a1.05,1.05,0,0,1-.35,1.27c-0.69.64,0.35,1.59,0.35,1.59l-9,1.27S-94.45-263.18-94.1-264.13Zm1.56,26.84a1.59,1.59,0,0,0-1.39-.32c-0.52.32-.17-19.85-0.17-19.85l9.55-1.11a2.43,2.43,0,0,0,2.08-.48,4.93,4.93,0,0,0,1.22-1.75,61.27,61.27,0,0,1,1.56,6.19,10.85,10.85,0,0,1,.17,3.18s-1,.64-0.69,1.43,0.52,1.27.52,1.27l0.69,8.26a36.21,36.21,0,0,1-6.77,1.9C-89.94-237.77-92.54-237.3-92.54-237.3Zm10.77,5.56c-2.43-1.43-6.08-3.18-6.08-3.18s5.73-1.11,7.12-1.43S-78.3-237-78.3-237l0.52,8.1A26.07,26.07,0,0,0-81.77-231.74Z" transform="translate(165.76 312.65)" style="fill:none;stroke:#752f8a"/><path d="M-41.81-296.84s4.4-3.19,5.71-4.18a26.25,26.25,0,0,1,3.41-2.64c1-.44,3.3-1.65,4.62-0.33s1.54,3.85,1.43,4.95,0.11,2.09-.88,2.31-3.3,1.43-5.61,2.2-6.37,1.87-6.37,1.87a2.51,2.51,0,0,1-.77,2.2c-1,.77-2.64-0.44-2.64-0.44s-2.53,3.41-2.64,5.93c-0.09,2,3.3,7.36,4.95,9.89s2.53,3.63,2.31,7.47-0.77,26.27-.77,26.27a8.13,8.13,0,0,1,.66,1.21,3,3,0,0,1,.44,1.76,1.38,1.38,0,0,1-.55,1l-0.22.33L-38.84-234a1.28,1.28,0,0,1,1.32.55,54.38,54.38,0,0,0,4.29,3.74l0.33,0.22s4.4-2.2,5.82-1.87a2.69,2.69,0,0,1,1.87,1.65,1.1,1.1,0,0,1,.66,1.1c0,0.88.22,2.09-.11,2.42a2.11,2.11,0,0,1-1.76.66,1.64,1.64,0,0,1-1.43-1.32v-1.32a2.08,2.08,0,0,1,.33-1,3.33,3.33,0,0,1,.55-0.77s-1.1.44-2.64,0.88-4.62,1.76-4.62,1.76l-7.36,5.72s-4.18,5.06-4.73,6.48-0.88,2.42-.88,2.42a8.21,8.21,0,0,1,.66,2.42A1.81,1.81,0,0,1-49-208.59a1.68,1.68,0,0,1-1.32-2,3.9,3.9,0,0,0,.44-1,2.82,2.82,0,0,1,.44-1A11.36,11.36,0,0,1-48-216.06c1-1.43,4.18-5.71,4.18-5.71s-4.18-3.41-4.62-4l-0.44-.55-9.34.11a2.31,2.31,0,0,0-1.32.22,1,1,0,0,0-.55.77,7.86,7.86,0,0,1,.55,1.87,1.76,1.76,0,0,1-1.65,1.87,1.93,1.93,0,0,1-1.76-1.76,18.91,18.91,0,0,1,.44-2l0.44-.22s0.77-1.87,1.87-2.2,11.65-.33,11.65-0.33l6.59-4.62,0.66-35.72s0.33-1.54-1.32-4.07S-48.4-281-48.73-284.2s1.43-5.93,1.87-6.81a14.31,14.31,0,0,1,2-2.42,3,3,0,0,1,.55-3.3,1.7,1.7,0,0,1,2.53-.11" transform="translate(165.76 312.65)" style="fill:#752f8a"/><path d="M-67.39-191c0.95,2.53.62,5-.73,5.49s-3.21-1.13-4.16-3.66-0.62-5,.73-5.49,3.21,1.13,4.16,3.66" transform="translate(165.76 312.65)" style="fill:#fff"/><path d="M-130.81-170.27c0.95,2.53.62,5-.73,5.49s-3.21-1.13-4.16-3.66-0.62-5,.73-5.49,3.21,1.13,4.16,3.66" transform="translate(165.76 312.65)" style="fill:#fff"/></g></g></g></svg>